<?xml version="1.0" encoding="UTF-8" standalone="no"?>
<!DOCTYPE svg PUBLIC "-//W3C//DTD SVG 1.1//EN" "http://www.w3.org/Graphics/SVG/1.1/DTD/svg11.dtd">
<svg width="100%" height="100%" viewBox="0 0 288 192" version="1.1" xmlns="http://www.w3.org/2000/svg" xmlns:xlink="http://www.w3.org/1999/xlink" xml:space="preserve" xmlns:serif="http://www.serif.com/" style="fill-rule:evenodd;clip-rule:evenodd;stroke-linecap:round;stroke-linejoin:round;stroke-miterlimit:1.5;">
    <g id="Bandage" transform="matrix(0.965926,-0.258819,0.258819,0.965926,-19.9399,40.5411)">
        <g id="Base" transform="matrix(1.5,-8.32667e-16,3.33067e-16,1.02439,-211.5,-1.31707)">
            <path d="M271,60.839C271,57.062 268.909,54 266.329,54L207.667,54C205.089,54 203,57.059 203,60.833C203,76.277 203,113.723 203,129.167C203,132.941 205.089,136 207.667,136C220.097,136 253.903,136 266.333,136C268.911,136 271,132.941 271,129.167C271,113.725 271,76.286 271,60.839Z" style="fill:rgb(12,50,50);stroke:rgb(183,36,36);stroke-width:3.11px;"/>
        </g>
        <g id="Middle" transform="matrix(1.26471,-6.74064e-16,2.80821e-16,0.829268,-155.735,17.2195)">
            <path d="M271,56.412C271,55.08 270.292,54 269.419,54C260.227,54 213.773,54 204.581,54C203.708,54 203,55.08 203,56.412C203,68.412 203,121.588 203,133.588C203,134.92 203.708,136 204.581,136C213.773,136 260.227,136 269.419,136C270.292,136 271,134.92 271,133.588C271,121.588 271,68.412 271,56.412Z" style="fill:rgb(12,50,50);stroke:rgb(183,36,36);stroke-width:3.74px;"/>
        </g>
        <g id="Center" transform="matrix(0.911765,-2.77556e-16,2.02452e-16,0.341463,-72.0882,63.561)">
            <path d="M271,59.857C271,56.622 270.018,54 268.806,54C258.556,54 215.444,54 205.194,54C203.982,54 203,56.622 203,59.857C203,74.952 203,115.048 203,130.143C203,133.378 203.982,136 205.194,136C215.444,136 258.556,136 268.806,136C270.018,136 271,133.378 271,130.143C271,115.048 271,74.952 271,59.857Z" style="fill:rgb(12,50,50);stroke:rgb(183,36,36);stroke-width:5.81px;"/>
        </g>
    </g>
</svg>
