<?xml version="1.0" encoding="UTF-8" standalone="no"?>
<!DOCTYPE svg PUBLIC "-//W3C//DTD SVG 1.1//EN" "http://www.w3.org/Graphics/SVG/1.1/DTD/svg11.dtd">
<svg width="100%" height="100%" viewBox="0 0 288 192" version="1.1" xmlns="http://www.w3.org/2000/svg" xmlns:xlink="http://www.w3.org/1999/xlink" xml:space="preserve" xmlns:serif="http://www.serif.com/" style="fill-rule:evenodd;clip-rule:evenodd;stroke-linejoin:round;stroke-miterlimit:2;">
    <g id="Bandanna">
        <g transform="matrix(1,0,0,1,31.2598,124.068)">
            <path d="M0,-49.239C-0.479,-51.615 1.019,-57.674 1.234,-60.059C1.478,-62.763 5.421,-64.174 7.86,-64.426C8.734,-64.516 15.576,-71.667 22.671,-73.094C26.041,-73.772 34.754,-69.705 34.754,-69.705C34.754,-69.705 39.812,-65.135 39.626,-64.1C39.601,-63.963 54.801,-53.756 54.801,-53.756L65.45,-60.802L68.711,-81.957L79.936,-84.012L101.626,-70.695L115.581,-57.911L108.224,-46.339L88.126,-58.564L73.868,-60.419L71.593,-53.65L64.161,-47.508L60.596,-38.735L52.936,-33.408L47.02,-33.712L33.521,-45.736C33.521,-45.736 21.55,-48.032 21.173,-46.548C17.854,-33.5 20.354,-28.803 30.059,-19.323C32.043,-17.385 42.337,-9.456 44.761,-8.068C52.603,-3.579 56.771,-4.114 65.959,-3.037C73.557,-2.145 76.714,-2.865 84.309,-2.751C86.718,-2.715 94.39,-5.72 96.726,-6.22C97.461,-6.379 102.785,-5.373 103.937,-4.625C107.808,-2.111 117.911,5.376 117.911,5.376L120.029,1.05L108.741,-22.442L106.754,-37.027L111.145,-51.492L125.595,-63.029L139.016,-65.441L168.005,-43.627L180.424,-40.061L200.593,-46.539L216.643,-49.316L221.131,-48.205L202.13,-35.434L191.8,-33.46L171.754,-38.519L158.22,-46.937L139.41,-57.788L128.873,-56.791L122.951,-51.06L132.792,-39.439L144.296,-33.649L161.965,-32.536L150.132,-26.616L135.08,-27.376L121.91,-30.622L121.779,-26.53L133.931,-14.471L139.016,-5.243C139.016,-5.243 130.469,16.619 130.376,17.699C130.296,18.623 121.801,19.72 121.801,19.72C121.801,19.72 120.027,21.348 119.332,22.393C118.166,24.146 115.799,26.234 113.746,25.456C110.412,24.195 107.193,22.127 104.392,20.112C102.53,18.773 100.271,16.467 98.35,15.157C96.978,14.222 96.357,11.821 94.127,13.529C91.883,15.248 90.222,18.599 89.255,21.155C87.327,26.254 83.758,29.254 79.836,32.887C78.38,34.235 75.087,34.391 73.081,34.45C62.249,34.773 52.666,33.928 41.834,34.19C39.627,34.243 35.888,33.792 33.584,33.239C27.643,31.812 25.016,27.933 21.173,23.566C15.278,16.867 9.169,10.087 3.378,3.295C2.317,2.051 -2.312,-3.977 -2.923,-5.439C-3.298,-6.334 1.191,-14.135 1.884,-13.977C2.312,-13.88 6.624,-22.995 7.795,-24.601C8.452,-25.502 1.133,-43.621 0,-49.239" style="fill:rgb(12,50,50);fill-rule:nonzero;"/>
        </g>
        <g transform="matrix(1,0,0,1,209.46,38.1173)">
            <path d="M0,3.658L0.391,-4.964L5.403,-11.431L14.583,-13.26L24.088,-10.908L37.629,0.066L49.673,11.039L44.79,13.783L35.806,16.918L31.835,15.22L28.71,7.577L21.81,-1.241L14.974,-5.683L6.575,-3.788L0,3.658Z" style="fill:rgb(12,50,50);fill-rule:nonzero;"/>
        </g>
        <g transform="matrix(1,0,0,1,99.896,140.469)">
            <path d="M0,-97.225C0.57,-89.319 -0.759,-86.462 -1.682,-79.639C-2.102,-76.537 -3.668,-73.972 -6.613,-72.317C-7.815,-71.642 -10.085,-70.864 -9.813,-69.737C-9.458,-68.271 -5.255,-66.908 -3.732,-66.67C-1.246,-66.281 -0.848,-67.554 0.285,-69.364C2.053,-72.188 2.749,-75.584 2.753,-79.032C2.759,-83.747 3.275,-91.939 0,-97.225M149.375,-64.32C139.725,-64.32 133.172,-64.32 125.941,-59.391C117.035,-53.319 109.528,-55.186 102.637,-56.881C108.042,-53.831 114.006,-52.967 118.328,-52.059C124.57,-50.748 130.687,-51.027 136.071,-54.999C140.386,-58.184 144.939,-60.987 149.375,-64.32M91.138,-48.893C83.749,-47.745 76.407,-46.661 69.851,-50.594C64.778,-53.637 60.412,-57.578 56.31,-61.772C54.074,-64.058 54.211,-63.847 53.494,-61.094C52.721,-58.13 51.319,-49.689 54.522,-48.094C57.161,-46.78 63.32,-43.998 71.802,-43.998C80.635,-43.998 86.524,-45.627 91.138,-48.893M-33.398,-71.473C-26.736,-70.115 -19.145,-63.316 -12.51,-57.042C-11.484,-56.072 -10.062,-55.195 -7.849,-55.895C-12.129,-60.149 -16.053,-64.202 -20.755,-68.014C-19.047,-68.403 -18.264,-67.56 -17.347,-67.113C-14.215,-65.587 -11.65,-63.24 -8.83,-61.261C-8.194,-60.815 -7.358,-60.166 -6.588,-60.89C-5.868,-61.566 -5.981,-62.607 -6.187,-63.478C-6.417,-64.456 -7.419,-64.493 -8.201,-64.662C-10.847,-65.236 -13.06,-66.581 -15.226,-68.171C-17.825,-70.078 -20.197,-72.247 -22.837,-74.12C-33.165,-81.444 -45.231,-73.015 -45.231,-63.562C-43.333,-64.024 -40.569,-64.158 -37.595,-63.467C-38.46,-65.627 -40.547,-66.697 -41.306,-69.241C-39.016,-67.944 -31.004,-60.082 -26.862,-56.031C-25.504,-54.702 -24.272,-53.246 -22.653,-52.188C-20.037,-50.479 -17.357,-50.482 -14.803,-52.21C-13.433,-53.138 -13.276,-53.836 -14.659,-55.037C-16.713,-56.821 -18.722,-58.726 -20.419,-60.843C-26.083,-67.903 -32.532,-69.459 -33.398,-71.473M88.308,-51.001C93.032,-52.121 96.993,-56.231 96.993,-56.231C96.993,-56.231 90.92,-61.207 88.869,-62.679C84.046,-66.139 79.03,-69.386 73.545,-71.786C70.684,-73.037 67.708,-73.452 64.659,-73.034C58.149,-72.141 55.831,-67.49 55.831,-67.49C55.831,-67.49 64.724,-56.368 70.992,-53.16C76.739,-50.218 82.946,-49.73 88.308,-51.001M35.69,-75.319C29.707,-81.009 13.316,-89.098 8.332,-91.023C5.302,-92.193 5.491,-92.211 5.485,-89.601C5.478,-86.534 5.389,-83.145 5.389,-80.045C5.389,-76.913 5.74,-77.168 8.504,-77.317C15.65,-77.701 22.076,-75.12 28.313,-71.922C31.627,-70.223 34.135,-67.611 36.701,-65.029C38.421,-63.297 38.513,-63.074 39.224,-64.721C40.536,-67.759 42.604,-70.2 44.679,-72.659C45.524,-73.661 45.548,-73.567 44.326,-74.905C36.128,-83.88 26.457,-90.838 15.688,-96.327C13.927,-97.225 12.08,-97.972 10.226,-98.663C8.427,-99.334 7.381,-98.031 6.612,-96.784C5.926,-95.672 7.014,-95.2 7.861,-94.852C14.063,-92.31 33.539,-80.399 35.69,-75.319M95.401,-60.51C94.372,-62.584 92.461,-63.782 90.764,-65.177C85.793,-69.261 80.733,-73.234 75.676,-77.211C72.355,-79.825 68.847,-81.18 64.42,-79.927C59.32,-78.483 54.822,-76.121 50.62,-72.951C41.867,-66.348 37.776,-54.664 40.347,-44.012C42.396,-35.523 45.842,-27.717 50.77,-20.551C52.758,-17.66 53.536,-14.554 52.553,-11.143C52.226,-10.008 52.77,-9.404 53.497,-8.824C55.581,-7.163 57.839,-5.807 60.376,-4.946C61.984,-4.401 63.05,-4.653 64.011,-6.352C65.622,-9.202 66.574,-12.267 67.563,-15.327C69.065,-19.97 69.205,-24.473 65.429,-28.247C63.15,-30.525 61.001,-32.953 58.284,-34.757C54.767,-37.092 52.48,-40.36 51.191,-44.356C50.456,-46.64 50.12,-49.002 49.702,-51.36C48.229,-59.663 50.485,-66.711 56.897,-72.105C60.597,-75.217 64.868,-76.974 69.974,-75.154C73.817,-73.784 77.435,-71.994 80.883,-69.897C85.804,-66.905 90.569,-63.652 95.401,-60.51M-46.582,-60.044C-48.143,-58.647 -48.455,-50.449 -42.347,-41.49C-35.923,-32.068 -25.123,-25.558 -15.412,-22.426C-10.543,-20.855 0.411,-19.889 7.948,-19.824C12.221,-19.788 20.468,-21.379 23.598,-22.833C25.164,-23.56 28.91,-25.534 30.569,-24.947C33.916,-23.764 38.594,-21.183 41.261,-18.62C43.506,-16.462 46.751,-13.493 49.975,-12.013C50.821,-17.148 46.248,-23.75 41.381,-31.913C38.083,-37.446 36.196,-46.139 36.913,-53.668C37.006,-54.647 37.945,-59.952 37.945,-59.952C31.74,-68.94 21.758,-72.303 17.128,-74.163C11.401,-76.463 5.389,-74.935 5.389,-74.935C4.853,-73.477 5.592,-70.652 2.142,-67.277C-0.101,-65.083 -3.462,-63.357 -3.527,-62.192C-3.732,-58.496 -9.335,-52.581 -13.612,-49.708C-15.481,-48.453 -17.445,-47.163 -20.046,-48.07C-24.319,-49.559 -32.51,-56.883 -35.733,-60.565C-36.986,-61.996 -44.639,-61.783 -46.582,-60.044M-8.627,1.787C-17.755,-0.528 -26.533,-5.24 -32.217,-9.116C-38.967,-13.719 -45.369,-18.722 -50.725,-25.02C-53.795,-28.631 -60.459,-38.209 -60.459,-38.209C-65.062,-32.278 -64.164,-32.775 -61.917,-26.141C-59.862,-20.076 -56.496,-14.77 -52.645,-9.792C-48.995,-5.074 -44.902,-0.668 -39.97,2.73C-31.708,8.421 -25.02,10.694 -14.816,10.69C-19.383,12.935 -31.395,11.449 -37.689,7.926C-43.725,4.548 -48.638,-0.241 -53.236,-5.375C-60.736,-13.183 -64.719,-22.126 -65.856,-26.511C-66.293,-28.195 -66.164,-29.951 -66.164,-29.951C-67.528,-28.538 -68.037,-27.872 -68.375,-26.364C-68.692,-24.958 -66.513,-20.543 -64.986,-17.595C-68.076,-19.564 -69.151,-22.524 -70.192,-24.955C-72.179,-22.451 -70.054,-19.242 -67.854,-16.484C-64.161,-11.855 -57.624,-3.436 -50.04,3.992C-45.885,8.062 -38.413,14.784 -32.548,16.502C-26.067,18.399 -11.271,17.499 6.547,16.78C8.553,16.7 10.318,16.265 11.774,14.916C15.696,11.283 19.063,7.245 20.992,2.145C21.958,-0.411 23.321,-2.697 25.566,-4.417C27.795,-6.124 32.153,-9.208 34.824,-8.852C33.438,-7.208 29.487,-6.027 27.26,-3.919C30.244,-1.347 32.769,0.345 34.989,1.92C37.805,3.916 40.199,6.525 43.516,7.83C46.417,8.972 47.39,9.174 51.347,4.328C48.262,3.05 44.452,-1.985 41.985,-4.632C44.212,-4.261 46.338,-3.227 48.019,-2.302L47.42,-4.335C46.922,-4.525 41.08,-9.238 37.765,-10.837C35.332,-12.01 33.229,-11.82 31.005,-10.366C28.31,-8.603 26.473,-5.884 23.574,-4.316C19.823,-2.29 15.972,-0.302 12.875,2.635C9.003,6.306 -2.651,12.628 -11.741,11.025C-0.957,8.617 7.597,1.177 13.052,-2.254C17.875,-5.286 22.923,-7.956 26.975,-12.122C28.348,-13.533 30.331,-14.348 32.231,-14.823C34.279,-15.336 36.479,-15.584 38.462,-14.294C41.751,-12.155 48.574,-5.064 49.799,-3.029C48.673,-3.392 48.129,-3.806 47.42,-4.335L48.019,-2.302C49.21,-1.595 50.407,-0.671 51.214,0.155C54.188,3.202 60.922,1.695 61.258,-0.292C61.258,-0.292 51.676,-4.688 47.18,-9.105C43.939,-12.288 39.019,-17.833 35.147,-20.347C33.995,-21.095 32.938,-21.423 31.706,-20.704C29.608,-19.48 27.622,-18.029 26.374,-15.953C23.458,-11.099 16.56,-6.239 11.955,-5.767C16.991,-9.401 22.814,-14.379 26.137,-20.837C21.898,-19.288 18.389,-17.909 15.63,-17.668C8.063,-17.004 0.439,-17.219 -7.159,-18.109C-16.347,-19.187 -24.371,-23.181 -32.212,-27.67C-34.636,-29.058 -37.073,-30.612 -39.057,-32.551C-48.762,-42.031 -51.987,-53.627 -48.47,-66.623C-45.77,-76.601 -39.126,-79.899 -29.339,-80.218C-32.771,-84.904 -43.283,-82.152 -49.056,-72.879C-49.225,-80.857 -40.434,-85.093 -34.674,-85.252C-37.998,-87.317 -41.721,-89.35 -45.091,-88.672C-52.187,-87.245 -57.366,-80.976 -57.836,-73.72C-58.76,-59.483 -52.818,-44.477 -49.495,-36.382C-53.983,-42.703 -55.721,-49.589 -57.943,-55.841C-61.629,-66.209 -60.24,-78.942 -60.24,-78.942C-64.339,-79.461 -66.895,-75.929 -67.139,-73.224C-67.354,-70.839 -67.484,-68.407 -67.005,-66.031C-65.872,-60.412 -63.582,-55.199 -61.546,-49.871C-56.557,-36.81 -48.575,-25.715 -38.556,-16.377C-28.813,-7.295 -17.41,-1.772 -8.627,1.787M-71.792,-27.137C-69.917,-29.85 -67.448,-32.12 -65.779,-35.021C-63.857,-38.364 -62.482,-41.642 -63.301,-45.7C-64.18,-50.056 -69.284,-57.929 -70.298,-67.892C-71.208,-76.82 -65.503,-81.699 -61.493,-82.281C-59.578,-82.558 -58.272,-82.723 -56.927,-84.65C-55.221,-87.095 -52.677,-89.523 -49.965,-90.552C-46.032,-92.044 -41.604,-91.836 -37.71,-89.692C-35.092,-88.251 -32.361,-86.788 -30.256,-84.681C-27.276,-81.699 -23.583,-77.266 -17.175,-73.464C-15.928,-72.725 -14.465,-71.862 -12.089,-72.428C-9.306,-73.091 -3.744,-75.451 -3.738,-81.452C-3.732,-87.035 -3.433,-94.648 -0.69,-100.006C1.082,-103.469 6.456,-103.865 11.983,-101.455C20.747,-97.634 38.934,-85.683 45.419,-77.781C47.525,-75.216 48.986,-75.677 51.475,-77.892C56.758,-82.594 68.35,-85.335 75.942,-79.995C82.483,-75.394 92.662,-65.057 101.06,-60.537C107.928,-66.914 107.705,-88.974 107.558,-99.996C107.494,-104.844 109.597,-111.469 114.872,-114.808C119.964,-118.032 128.217,-117.831 135.995,-112.96C143.446,-108.293 151.503,-98.876 161.104,-90.829C160.479,-90.815 152.108,-87.201 149.892,-86.312C150.088,-86.604 150.04,-87.319 150.409,-87.475C152.665,-88.431 156.687,-89.568 157.964,-90.805C158.145,-90.979 158.143,-91.27 157.987,-91.466C157.152,-92.518 156.158,-92.824 154.855,-93.729C150.57,-96.705 146.519,-99.962 143.005,-103.839C138.331,-108.998 132.851,-112.56 125.856,-113.911C117.805,-115.465 111.22,-111.414 110.26,-100.818C114.429,-108.759 124.458,-111.79 130.637,-105.279C134.402,-101.464 137.725,-97.38 140.011,-92.57C141.933,-88.524 141.125,-84.721 151.569,-87.917C151.168,-86.134 147.625,-85.668 146.719,-85.394C142.569,-84.137 140.245,-86.127 139.332,-89.692C137.511,-96.797 130.477,-104.113 126.492,-106.416C122.988,-108.441 118.021,-107.365 115.295,-103.533C112.988,-100.29 110.837,-96.932 111.293,-80.521C111.507,-72.835 109.469,-64.57 105.804,-58.569C109.389,-57.445 112.555,-57.096 118.069,-58.917C122.568,-60.403 126.363,-63.371 131.752,-65.186C143.322,-69.084 149.823,-65.73 160.119,-66.788C149.641,-63.113 142.227,-55.993 135.818,-52.071C133.208,-50.475 130.609,-49.209 127.138,-48.954C115.403,-48.09 102.637,-53.761 102.637,-53.761C102.637,-53.761 96.924,-48.016 89.279,-44.791C84.29,-42.687 80.711,-41.915 74.323,-42.236C64.938,-42.707 57.378,-44.55 54.391,-45.78C55.24,-39.058 66.671,-31.917 68.07,-29.769C71.936,-23.833 71.387,-19.151 70.666,-16.693C69.46,-12.588 68.076,-6.108 64.199,-0.227C61.726,3.521 58.517,4.551 54.638,4.719C53.394,4.773 52.569,5.257 52.073,6.135C48.977,11.608 47.38,11.643 41.693,9.059C36.917,6.889 30.083,1.671 28.002,-0.684C27.357,-1.416 26.414,-2.509 24.982,0.617C24.345,2.01 15.053,16.055 11.049,18.531C7.369,20.807 -19.501,19.879 -31.063,19.65C-34.083,19.591 -35.915,18.855 -38.819,16.825C-48.138,10.317 -62.347,-4.994 -70.278,-16.439C-73.128,-20.553 -73.68,-24.406 -71.792,-27.137" style="fill:rgb(183,36,36);fill-rule:nonzero;"/>
        </g>
        <g transform="matrix(1,0,0,1,57.9736,135.776)">
            <path d="M0,-22.879C9.594,-12.939 22.643,-3.577 48.704,-2.436C23.752,0.023 9.398,-8.357 0.024,-22.902L0,-22.879Z" style="fill:rgb(183,36,36);fill-rule:nonzero;"/>
        </g>
        <g transform="matrix(-0.899674,0.436562,0.436562,0.899674,164.191,115.959)">
            <path d="M4.422,-25.618C6.391,-20.621 5.592,-15.769 3.535,-11.163C0.924,-5.315 2.375,-0.619 4.422,1.727C3.633,-2.62 4.61,-6.715 6.052,-8.974C9.871,-14.958 7.968,-23.912 4.422,-25.618" style="fill:rgb(183,36,36);fill-rule:nonzero;"/>
        </g>
    </g>
</svg>
