<?xml version="1.0" encoding="UTF-8" standalone="no"?>
<!DOCTYPE svg PUBLIC "-//W3C//DTD SVG 1.1//EN" "http://www.w3.org/Graphics/SVG/1.1/DTD/svg11.dtd">
<svg width="100%" height="100%" viewBox="0 0 288 192" version="1.1" xmlns="http://www.w3.org/2000/svg" xmlns:xlink="http://www.w3.org/1999/xlink" xml:space="preserve" xmlns:serif="http://www.serif.com/" style="fill-rule:evenodd;clip-rule:evenodd;stroke-linejoin:round;stroke-miterlimit:2;">
    <g id="Layer-1-Image" serif:id="Layer 1 Image">
        <g transform="matrix(1,0,0,1,63.1899,103.788)">
            <path d="M0,-16.549L75.635,53.322L79.714,50.31L87.181,39.801L99.29,31.851L115.623,22.067L122.912,13.523L123.655,3.049L122.144,-7.067L118.845,-16.549L113.073,-24.705L109.054,-29.005L116.746,-36.079L112.338,-40.81L67.686,-69.871L64.88,-57.983L61.127,-52.983L51.082,-47.877L32.307,-43.295L17.053,-39.238L5.903,-32.56L1.271,-24.574L0,-16.549Z" style="fill:rgb(24,87,115);fill-rule:nonzero;"/>
        </g>
        <g transform="matrix(1,0,0,1,143.707,74.6006)">
            <path d="M0,77.54C0,77.54 7.137,67.891 12.252,64.586C17.421,61.244 24.084,58.883 29.305,55.663C42.771,47.357 43.643,39.602 41.755,23.276C41.562,13.048 31.311,3.648 28.537,0.183C28.537,0.183 35.845,-8.193 38.204,-7.4C40.963,-6.473 53.446,11.966 52.188,14.502C51.38,16.128 72.87,22.739 72.87,22.739C71.93,23.908 67.294,34.039 67.503,34.175C70.695,35.817 77.828,41.915 80.735,43.963C82.469,45.184 68.264,56.943 63.063,59.76C50.299,66.671 37.616,73.579 24.222,79.238C18.222,81.773 12.456,83.478 5.861,84.249C4.122,85.733 -0.397,84.183 -0.397,84.183L0,77.54Z" style="fill:rgb(14,60,64);fill-rule:nonzero;"/>
        </g>
        <g transform="matrix(1,0,0,1,211.115,142.985)">
            <path d="M0,-33.062C-2.962,-29.799 -15.56,-17.408 -21.618,-13.003C-27.797,-8.511 -40.591,-0.809 -48.636,1.466C-39.742,-3.897 -29.819,-9.551 -23.108,-14.648C-16.616,-19.579 -7.835,-27.913 -2.394,-34.528C-2.394,-34.528 -0.492,-33.565 0,-33.062" style="fill:rgb(14,66,75);fill-rule:nonzero;"/>
        </g>
        <g transform="matrix(1,0,0,1,144.602,159.027)">
            <path d="M0,-6.875C1.382,-4.892 4.749,-6.652 7.002,-7.517C5.961,-5.516 4.159,-3.128 4.826,-0.68C4.826,-0.68 3.896,0.296 3.444,0.227C2.285,0.048 -0.98,0.642 -1.154,-0.661C-1.388,-2.419 -1.652,-5.094 0,-6.875" style="fill:rgb(14,66,75);fill-rule:nonzero;"/>
        </g>
        <g transform="matrix(1,0,0,1,152.861,148.958)">
            <path d="M0,1.732C0.293,0.58 0.789,0 1.769,0.031C1.921,0.036 2.221,0.393 2.186,0.503C1.894,1.42 1.135,1.643 0,1.732" style="fill:rgb(14,66,75);fill-rule:nonzero;"/>
        </g>
    </g>
    <g id="Layer-4" serif:id="Layer 4">
        <g transform="matrix(1,0,0,1,144.018,116.557)">
            <path d="M0,-11.874C2.283,-12.341 4.946,-12.986 6.749,-15.296C7.353,-16.069 7.843,-17.25 6.995,-18.029C6.005,-18.938 5.177,-17.952 4.496,-17.241C3.093,-15.776 1.589,-14.507 -0.561,-14.388C-1.506,-14.336 -2.584,-14.333 -2.529,-13.072C-2.475,-11.82 -1.362,-11.901 0,-11.874M23.803,-1.141C23.838,-2.386 22.803,-4.23 21.206,-5.771C19.189,-7.718 18.449,-7.76 16.485,-5.796C15.133,-4.444 13.523,-3.441 12.068,-2.238C10.693,-1.102 8.91,-0.38 8.146,1.436C7.756,2.364 7.731,3.158 8.479,3.931C9.2,4.677 9.899,4.481 10.723,4.113C12.405,3.362 13.863,2.359 15.151,1.02C17.725,-1.657 17.758,-1.607 20.992,0.356C21.528,0.681 22.102,1.2 22.805,0.729C23.456,0.292 23.867,-0.307 23.803,-1.141M9.309,24.158C6.782,22.384 4.808,19.766 2.958,17.732C-0.86,13.536 -4.39,9.075 -7.883,4.587C-10.755,0.897 -11.974,-3.303 -12.426,-7.733C-12.846,-11.845 -13.518,-15.806 -14.639,-19.836C-14.13,-20.509 -13.417,-20.776 -12.61,-20.856C-12.583,-19.968 -11.145,-16.749 -9.478,-17.149C-7.334,-17.663 -8.467,-19.49 -8.888,-20.831C-9.082,-21.447 -9.326,-22.081 -9.697,-22.6C-10.433,-23.629 -11.359,-24.227 -12.616,-23.325C-12.64,-24.56 -12.907,-26.004 -11.448,-26.557C-10.125,-27.059 -9.696,-25.661 -8.979,-24.942C-8.57,-24.531 -8.151,-24.129 -7.753,-23.709C-7.071,-22.99 -6.26,-22.506 -5.338,-23.103C-4.238,-23.815 -4.652,-24.81 -5.098,-25.742C-6.25,-28.15 -8.178,-29.712 -10.436,-31.078C-11.515,-31.73 -13.79,-32.159 -12.794,-34.179C-11.881,-36.032 -9.912,-35.279 -8.312,-35.092C-7.922,-35.047 -7.555,-34.769 -7.188,-34.577C-4.33,-33.082 -1.667,-31.291 0.853,-29.283C0.164,-28.237 0.354,-27.057 0.372,-25.916C0.388,-24.907 0.029,-23.425 1.63,-23.487C3.042,-23.541 3.573,-24.888 3.731,-26.158C3.796,-26.684 3.462,-27.258 3.31,-27.811C4.501,-27.628 5.454,-28.151 6.354,-28.832C8.607,-26.438 11.282,-24.382 12.619,-21.252C13.85,-18.374 15.686,-16.11 18.186,-14.125C21.029,-11.866 23.286,-8.887 26.038,-6.495C30.02,-3.037 35.278,-0.598 40.388,0.755C40.389,5.969 29.237,14.332 17.492,19.126C13.889,16.557 10.565,12.238 6.086,10.825C7.337,13.376 9,15.557 11.043,17.456C12.17,18.504 13.126,19.659 13.848,21.475C12.563,22.213 10.593,23.419 9.309,24.158" style="fill:rgb(14,66,75);fill-rule:nonzero;"/>
        </g>
        <g transform="matrix(0.491879,0.870664,0.870664,-0.491879,116.361,130.954)">
            <path d="M3.307,-2.062C1.956,-0.845 0.846,4.125 1.63,5.512C2.011,6.185 2.962,5.99 3.307,4.95C3.952,3.005 4.864,0.693 5.598,-1.221C4.97,-1.895 4.196,-2.002 3.307,-2.062" style="fill:rgb(14,66,75);fill-rule:nonzero;"/>
        </g>
        <g transform="matrix(0.47512,0.879921,0.879921,-0.47512,108.292,123.575)">
            <path d="M3.319,-1.887C1.981,0.329 1.442,2.307 1.428,4.429C1.42,5.57 3.124,5.585 3.319,4.598C3.69,2.707 4.256,1.023 5.495,-1.091C4.929,-1.869 4.157,-1.743 3.319,-1.887" style="fill:rgb(14,66,75);fill-rule:nonzero;"/>
        </g>
        <g transform="matrix(0.47669,0.879072,0.879072,-0.47669,124.257,138.466)">
            <path d="M3.467,-1.881C1.987,-0.348 1.485,1.891 1.412,3.869C1.347,5.61 2.945,5.94 3.467,4.377C4.033,2.681 5.063,0.919 5.586,-1.1C4.944,-1.717 4.344,-1.792 3.467,-1.881" style="fill:rgb(14,66,75);fill-rule:nonzero;"/>
        </g>
        <g transform="matrix(1,0,0,1,99.4487,80.0308)">
            <path d="M0,7.208C-0.214,7.268 -1.034,8.508 -0.881,8.89C0.164,11.493 -1.878,12.236 -3.386,13.266C-5.636,14.803 -7.962,16.23 -10.21,17.771C-11.629,18.744 -12.934,18.683 -14.328,17.746C-19.594,14.204 -23.557,9.48 -26.52,3.959C-27.677,1.804 -27.219,-0.703 -25.931,-2.699C-22.643,-7.793 -17.741,-10.668 -11.782,-11.147C-6.951,-11.536 -3.286,-8.756 -0.315,-5.203C2.013,-2.419 4.217,0.473 6.354,3.406C7.167,4.522 8.643,5.73 7.489,7.324C6.403,8.823 4.825,8.212 3.387,7.744C2.442,7.436 1.506,7.176 0.482,7.177C0.51,6.688 0.483,6.189 0.575,5.712C1.119,2.892 0.286,1.799 -2.503,1.725C-2.327,1.103 -1.36,0.685 -1.704,0.023C-2.705,-1.901 -3.112,-4.198 -5.284,-5.414C-7.328,-6.557 -9.555,-7.157 -11.777,-7.656C-18.097,-9.073 -16.368,-2.87 -15.458,-2.78C-18.228,-2.554 -19.898,-0.722 -20.484,2.733C-20.875,2.365 -22.162,1.842 -22.896,3.035C-23.459,3.951 -23.357,4.739 -22.811,5.546C-20.995,8.226 -18.874,10.633 -15.976,12.164C-13.848,13.287 -13.175,12.771 -13.016,10.205C-8.187,10.162 -7.081,9.152 -6.998,4.708C-6.304,5.492 -4.821,5.113 -4.505,3.541C-4.295,2.496 -3.631,1.827 -2.504,1.726C-4.118,5.634 -3.521,6.938 0,7.208" style="fill:rgb(14,66,75);fill-rule:nonzero;"/>
        </g>
        <g transform="matrix(1,0,0,1,124.861,49.9379)">
            <path d="M0,14.398C-2.064,12.091 -2.2,9.911 0.235,8.052C4.46,4.828 7.847,0.846 11.366,-3.047C13.192,-5.068 15.117,-4.133 17.025,-1.07C14.105,0.264 13.787,1.913 15.953,4.127C17.624,5.835 19.963,6.736 21.407,8.713C23.93,12.164 25.773,12.444 28.99,9.897C30.379,12.632 28.651,14.434 26.976,16.122C23.654,19.466 21.634,19.394 18.137,16.288C15.557,13.997 12.896,11.782 10.133,9.716C8.042,8.153 7.248,8.662 7.034,11.388C4.167,11.175 1.853,12.25 0,14.398" style="fill:rgb(14,66,75);fill-rule:nonzero;"/>
        </g>
        <g transform="matrix(1,0,0,1,102.641,112.301)">
            <path d="M0,-13.419C3.488,-15.997 7.049,-17.308 11.309,-16.318C17.083,-14.976 18.589,-10.222 16.501,-4.664C14.828,-0.211 7.626,3.889 2.758,2.472C-0.661,1.477 -2.693,-2.664 -2.693,-7.253C-2.693,-9.371 -1.552,-12.273 0,-13.419" style="fill:rgb(14,60,64);fill-rule:nonzero;"/>
        </g>
        <g transform="matrix(1,0,0,1,150.371,84.5641)">
            <path d="M0,3.161C-0.899,3.841 -1.853,4.365 -3.043,4.182C-3.862,3.691 -4.682,3.2 -5.501,2.709C-8.02,0.701 -10.683,-1.09 -13.542,-2.585C-13.909,-2.776 -14.276,-3.054 -14.666,-3.1C-16.266,-3.287 -18.235,-4.04 -19.148,-2.186C-20.143,-0.167 -17.868,0.263 -16.789,0.915C-14.531,2.28 -12.604,3.843 -11.452,6.25C-11.005,7.183 -10.591,8.178 -11.692,8.89C-12.614,9.487 -13.425,9.002 -14.106,8.284C-14.505,7.863 -14.923,7.461 -15.333,7.051C-16.049,6.332 -16.479,4.934 -17.801,5.435C-19.26,5.989 -18.994,7.433 -18.97,8.667C-18.967,9.49 -18.965,10.313 -18.963,11.136C-19.771,11.216 -20.484,11.484 -20.992,12.157C-22.408,7.175 -22.656,2.834 -21.184,-1.823C-19.642,-6.705 -10.739,-8.996 -5.826,-3.915C-3.688,-1.704 -2.196,0.486 0,3.161" style="fill:rgb(14,60,64);fill-rule:nonzero;"/>
        </g>
        <g transform="matrix(1,0,0,1,116.928,68.2029)">
            <path d="M0,14.572C-2.658,17.777 -3.8,17.453 -6.614,14.573C-10.4,10.7 -14.11,6.687 -18.583,3.512C-19.815,2.638 -21.951,2.225 -21.316,-0.053C-20.89,-1.589 -17.523,-3.205 -15.605,-2.784C-14.507,-2.543 -13.817,-2.318 -12.488,-1.411C-11.823,1.98 -10.111,4.448 -7.085,6.416C-4.055,8.386 -0.817,10.53 0,14.572" style="fill:rgb(14,60,64);fill-rule:nonzero;"/>
        </g>
        <g transform="matrix(1,0,0,1,110.894,73.7662)">
            <path d="M0,-6.775C0.228,-8.296 1.161,-9.729 2.577,-10.575C3.809,-11.313 4.605,-9.95 5.479,-9.26C8.277,-7.052 10.979,-4.797 12.453,-1.38C12.898,-0.346 14.054,0.247 15.041,0.881C15.572,1.222 16.18,1.719 15.639,2.505C14.564,4.068 9.479,4.538 8.34,3.019C6.432,0.476 4.152,-1.635 1.684,-3.596C0.758,-4.332 0.116,-5.3 0,-6.775" style="fill:rgb(14,60,64);fill-rule:nonzero;"/>
        </g>
        <g transform="matrix(1,0,0,1,124.861,70.8129)">
            <path d="M0,-6.477C1.853,-8.625 4.167,-9.7 7.034,-9.487C7.072,-9.071 7.233,-8.781 7.538,-8.507C7.566,-5.223 8.75,-4.042 12.04,-4.019C13.57,-3.037 14.937,-1.55 15.405,0.23C16.057,2.708 14.102,3.223 11.019,2.97C9.682,-1.021 4.733,-4.955 1.011,-4.986C0.559,-5.676 0.365,-6.078 0,-6.477" style="fill:rgb(14,60,64);fill-rule:nonzero;"/>
        </g>
        <g transform="matrix(1,0,0,1,102.419,106.837)">
            <path d="M0,-5.175C3.88,-7.857 6.4,-7.211 9.121,-3.43C9.629,-2.723 10.228,-2.279 11.148,-2.165C12.199,-2.036 13.049,-1.567 13.026,-0.271C13.006,0.865 12.204,1.32 11.342,1.648C8.626,2.682 5.187,1.675 3.701,-0.74C2.696,-2.374 0.454,-2.011 -0.475,-3.674C-0.767,-4.198 -0.526,-4.812 0,-5.175" style="fill:rgb(24,115,161);fill-rule:nonzero;"/>
        </g>
        <g transform="matrix(1,0,0,1,153.852,51.415)">
            <path d="M0,8.42C-3.217,10.967 -5.061,10.687 -7.583,7.236C-9.027,5.259 -11.366,4.358 -13.038,2.649C-15.203,0.436 -14.885,-1.213 -11.965,-2.547C-11.101,-1.08 -9.451,0.478 -8.584,2.256C-7.993,3.468 -6.946,4.003 -5.751,4.447C-3.508,5.281 -1.306,6.216 0,8.42" style="fill:rgb(14,60,64);fill-rule:nonzero;"/>
        </g>
        <g transform="matrix(1,0,0,1,116.928,66.7919)">
            <path d="M0,15.983C-0.817,11.941 -4.055,9.797 -7.085,7.827C-10.111,5.859 -11.823,3.391 -12.488,0C-10.716,0.981 -9.467,1.692 -8.183,2.769C-5.287,5.199 -2.529,7.806 0.16,10.467C2.056,12.345 1.916,13.922 0,15.983" style="fill:rgb(14,66,75);fill-rule:nonzero;"/>
        </g>
        <g transform="matrix(1,0,0,1,163.344,79.7623)">
            <path d="M0,-11.398C-0.338,-7.748 -2.023,-4.66 -4.94,-2.4C-7.089,-0.736 -7.211,-0.363 -8.254,0.873C-9.9,2.825 -12.089,0.801 -10.252,-0.981C-8.771,-2.419 -7.482,-4.036 -6.091,-5.55C-4.373,-7.42 -2.938,-9.34 -2.429,-11.868C-1.954,-14.223 0.127,-13.873 0,-11.398" style="fill:rgb(14,66,75);fill-rule:nonzero;"/>
        </g>
        <g transform="matrix(1,0,0,1,125.872,73.7831)">
            <path d="M0,-7.956C3.723,-7.925 8.671,-3.992 10.008,0C8.333,-0.253 7.206,-0.456 6.536,-1.038C4.135,-3.124 1.536,-5.048 0,-7.956" style="fill:rgb(14,66,75);fill-rule:nonzero;"/>
        </g>
        <g transform="matrix(1,0,0,1,171.265,87.1631)">
            <path d="M0,-4.02C-0.04,-2.785 -3.62,1.631 -4.897,1.975C-5.471,2.129 -6.048,2.104 -6.506,1.629C-7.078,1.037 -6.925,0.39 -6.531,-0.174C-5.363,-1.849 -4.174,-3.51 -2.935,-5.133C-2.464,-5.749 -1.784,-6.149 -0.997,-5.612C-0.451,-5.24 0.034,-4.776 0,-4.02" style="fill:rgb(14,66,75);fill-rule:nonzero;"/>
        </g>
        <g transform="matrix(1,0,0,1,178.811,94.5426)">
            <path d="M0,-3.421C0.054,-1.856 -3.519,2.101 -5.075,2.059C-6.677,2.016 -6.877,0.787 -6.205,-0.181C-5.176,-1.664 -4.171,-3.153 -3.226,-4.692C-2.717,-5.522 -1.793,-5.437 -0.984,-5.206C-0.119,-4.958 0.016,-4.207 0,-3.421" style="fill:rgb(14,66,75);fill-rule:nonzero;"/>
        </g>
        <g transform="matrix(1,0,0,1,96.9453,87.2384)">
            <path d="M0,-5.483C2.789,-5.408 3.622,-4.316 3.079,-1.495C2.986,-1.019 3.013,-0.519 2.985,-0.031C2.771,-0.04 2.672,-0.085 2.503,0C-1.018,-0.269 -1.614,-1.573 -0.001,-5.482L0,-5.483Z" style="fill:rgb(14,60,65);fill-rule:nonzero;"/>
        </g>
        <g transform="matrix(1,0,0,1,136.901,62.3059)">
            <path d="M0,4.488C-3.289,4.465 -4.474,3.284 -4.502,0C-3.001,1.496 -1.888,3.121 0,4.488" style="fill:rgb(14,66,75);fill-rule:nonzero;"/>
        </g>
        <g transform="matrix(1,0,0,1,142.87,108.774)">
            <path d="M0,1.462C0,2.121 0.05,2.784 -0.014,3.437C-0.08,4.097 0.352,5.108 -0.773,5.199C-1.586,5.265 -1.712,4.405 -1.925,3.806C-2.416,2.418 -2.9,1.026 -3.333,-0.38C-3.744,-1.713 -3.525,-3.101 -2.099,-3.421C-0.396,-3.803 -0.241,-2.182 -0.035,-1.004C0.104,-0.204 -0.008,0.639 -0.008,1.462L0,1.462Z" style="fill:rgb(14,60,64);fill-rule:nonzero;"/>
        </g>
        <g transform="matrix(-0.144892,0.989447,0.989447,0.144892,87.6541,77.2128)">
            <path d="M6.751,-7.794C3.248,-7.715 1.193,-6.328 0.568,-3.62C0.841,0.707 3.841,3.243 6.751,5.837C11.161,6.399 12.32,5.451 13.063,0.678C12.047,-2.96 8.653,-5.191 6.751,-7.794" style="fill:rgb(14,60,64);fill-rule:nonzero;"/>
        </g>
    </g>
    <g transform="matrix(1,0,0,1,193.87,98.6758)">
        <g id="Layer-3" serif:id="Layer 3">
            <path d="M0,-4.815C-1.063,-19.114 -8.223,-28.282 -13.342,-30.851C-13.046,-27.573 -18.471,-24.773 -21.185,-23.545C-15.346,-20.491 -9.921,-12.228 -8.021,-4.223C-6.75,1.14 -5.237,8.597 -6.397,16.396C-2.378,9.895 0.521,2.176 0,-4.815M-14.62,25.167C-6.582,17.413 -7.431,1.912 -12.285,-8.925C-14.573,-14.033 -20.64,-20.167 -26.443,-24.205C-22.604,-25.386 -19.003,-27.185 -17.87,-28.293C-15.862,-30.257 -16.061,-31.999 -18.354,-33.548C-32.015,-42.78 -56.358,-59.777 -61.528,-63.25C-62.374,-55.964 -65.884,-48.235 -73.438,-44.106C-83.097,-38.826 -105.797,-35.896 -113.257,-32.829C-122.923,-28.857 -127.287,-23.471 -129.943,-12.906C-125.04,-7.594 -109.816,5.971 -100.65,14.487C-95.614,19.166 -55.051,56.667 -54.119,57.657C-51.36,46.668 -42.514,42.593 -37.086,39.224C-33.062,36.726 -21.016,31.336 -14.62,25.167M14.852,9.781C17.808,6.612 19.784,2.345 20.984,-0.717C14.445,-1.768 6.864,-4.489 3.375,-6.631C4.133,10.814 -6.62,24.117 -20.086,32.422C-25.308,35.643 -31.074,37.886 -36.244,41.227C-41.358,44.532 -45.92,47.149 -49.105,53.653C-50.173,55.834 -50.012,57.621 -49.229,59.213C-48.672,60.347 -44.958,59.623 -44.484,59.516C-29.532,56.125 -19.709,51.595 -5.807,44.56C9.495,36.818 20.065,29.898 28.929,20.491C25.048,17.754 15.795,11.176 14.852,9.781M-52,62.282C-72.189,46.907 -119.848,2.611 -132.87,-11.443C-130.68,-23.471 -124.968,-30.225 -117.254,-33.527C-110.615,-36.37 -96.164,-39.957 -89.27,-41.311C-80.476,-43.039 -70.499,-45.757 -66.933,-53.003C-64.833,-57.27 -63.414,-61.958 -64.033,-67.676C-54.115,-61.277 -13.353,-34.153 -9.449,-31.458C-4.656,-28.15 -0.675,-22.703 1.296,-17.319C2.701,-13.481 2.896,-10.408 2.896,-10.408C4.442,-9.199 9.247,-6.491 12.706,-5.391C15.764,-4.419 20.064,-3.753 25.083,-3.469C23.635,-0.19 21.013,5.656 18.552,9.283C21.961,12.393 27.81,16.734 33.13,19.77C28.836,24.294 25.596,28.217 18.746,33.338C7.964,41.4 -4.168,47.015 -16.362,52.555C-27.106,57.324 -40.378,62.861 -52,62.282" style="fill:rgb(24,140,206);fill-rule:nonzero;"/>
        </g>
    </g>
</svg>
