<?xml version="1.0" encoding="UTF-8" standalone="no"?>
<!DOCTYPE svg PUBLIC "-//W3C//DTD SVG 1.1//EN" "http://www.w3.org/Graphics/SVG/1.1/DTD/svg11.dtd">
<svg width="100%" height="100%" viewBox="0 0 288 192" version="1.1" xmlns="http://www.w3.org/2000/svg" xmlns:xlink="http://www.w3.org/1999/xlink" xml:space="preserve" xmlns:serif="http://www.serif.com/" style="fill-rule:evenodd;clip-rule:evenodd;stroke-linecap:round;stroke-linejoin:round;stroke-miterlimit:1.5;">
    <g id="Card-Key" serif:id="Card Key">
        <rect x="78" y="58" width="132" height="80" style="fill:rgb(48,32,64);stroke:rgb(152,16,222);stroke-width:4px;"/>
        <g id="Trim">
            <rect x="94" y="78" width="8" height="28" style="fill:rgb(64,32,92);stroke:rgb(64,32,92);stroke-width:4px;"/>
            <path d="M82,114L82,134L206,134L206,130L142,130L142,114L82,114Z" style="fill:rgb(64,32,92);stroke:rgb(64,32,92);stroke-width:4px;stroke-linejoin:miter;"/>
            <rect x="90" y="106" width="16" height="12" style="fill:rgb(100,24,140);stroke:rgb(100,24,140);stroke-width:4px;"/>
            <path d="M166,94L162,98" style="fill:none;stroke:rgb(100,24,140);stroke-width:4px;"/>
            <path d="M130,94L114,110" style="fill:none;stroke:rgb(100,24,140);stroke-width:4px;"/>
            <rect x="86" y="66" width="88" height="12" style="fill:rgb(64,32,92);stroke:rgb(100,24,140);stroke-width:4px;"/>
            <path d="M114,66L114,78" style="fill:none;stroke:rgb(100,24,140);stroke-width:4px;"/>
            <path d="M122,78L122,66" style="fill:none;stroke:rgb(100,24,140);stroke-width:4px;"/>
            <rect x="162" y="74" width="12" height="4" style="fill:rgb(100,24,140);stroke:rgb(100,24,140);stroke-width:4px;"/>
            <rect x="198" y="66" width="8" height="12" style="fill:rgb(100,24,140);stroke:rgb(100,24,140);stroke-width:4px;stroke-linejoin:miter;"/>
            <path d="M206,98C205.448,98 205,98.448 205,99C205,99.611 205,100.389 205,101C205,101.552 205.448,102 206,102C206,102 206,102 206,102L206,98L206,98Z" style="fill:none;stroke:rgb(100,24,140);stroke-width:4px;stroke-linejoin:miter;"/>
            <g transform="matrix(-1,0,0,1,288,0)">
                <path d="M206,98C205.448,98 205,98.448 205,99C205,99.611 205,100.389 205,101C205,101.552 205.448,102 206,102C206,102 206,102 206,102L206,98L206,98Z" style="fill:none;stroke:rgb(100,24,140);stroke-width:4px;stroke-linejoin:miter;"/>
            </g>
            <path d="M190,72C190,68.686 192.686,66 196,66L202,66L202,78L196,78C192.686,78 190,75.314 190,72L190,72Z" style="fill:rgb(100,24,140);stroke:rgb(100,24,140);stroke-width:4px;"/>
        </g>
        <rect x="190" y="110" width="8" height="12" style="fill:none;stroke:rgb(152,16,222);stroke-width:4px;"/>
        <path d="M178,114L178,122L174,122C171.791,122 170,120.209 170,118L170,114" style="fill:none;stroke:rgb(152,16,222);stroke-width:4px;"/>
        <path d="M154,106L154,122L162,122" style="fill:none;stroke:rgb(152,16,222);stroke-width:4px;"/>
    </g>
</svg>
