<?xml version="1.0" encoding="UTF-8" standalone="no"?>
<!DOCTYPE svg PUBLIC "-//W3C//DTD SVG 1.1//EN" "http://www.w3.org/Graphics/SVG/1.1/DTD/svg11.dtd">
<svg width="100%" height="100%" viewBox="0 0 288 192" version="1.1" xmlns="http://www.w3.org/2000/svg" xmlns:xlink="http://www.w3.org/1999/xlink" xml:space="preserve" xmlns:serif="http://www.serif.com/" style="fill-rule:evenodd;clip-rule:evenodd;stroke-linecap:round;stroke-linejoin:round;stroke-miterlimit:1.5;">
    <g id="Layer1">
        <g id="Layer-2" serif:id="Layer 2">
            <g transform="matrix(1,0,0,1,80.4761,173.215)">
                <path d="M0,-8.545L4.508,-6.194L38.055,4.572L41.718,6.077L38.499,7.274C31.53,4.64 21.25,3.386 18.801,2.155C14.23,-0.142 2.252,-2.622 -3.209,-4.707C-12.845,-8.385 -21.579,-7.733 -22.439,-12.078C-22.21,-14.377 -19.309,-15.819 -17.439,-15.819C-17.893,-14.172 -18.104,-12.421 -16.91,-12.299C-10.432,-11.633 -9.594,-9.366 0,-8.545" style="fill:rgb(92,36,36);fill-rule:nonzero;"/>
            </g>
            <g transform="matrix(1,0,0,1,157.934,158.222)">
                <path d="M0,20.346L2.764,14.522L5.46,10.968C7.426,9.021 11.408,6.495 12.86,0.376C15.087,0.691 17.274,0 19.491,0.178C17.919,1.319 18.315,3.05 17.48,4.09C13.838,8.626 11.251,14.078 6.22,17.414C4.301,18.687 4.353,19.479 0,20.346" style="fill:rgb(92,36,36);fill-rule:nonzero;"/>
            </g>
            <g transform="matrix(1,0,0,1,149.704,165.129)">
                <path d="M0,15.524C-6.424,14.843 -12.68,14.7 -19.039,15.402C-22.706,15.807 -28.886,16.234 -30.729,15.36C-42.86,9.609 -67.495,1.383 -70.449,-0.577C-66.814,-0.71 -56.733,2.968 -53.712,4.503C-47.859,7.474 -36.905,10.563 -25.082,11.462C-20.016,11.848 -3.848,13.958 1.062,11.299C3.515,9.972 7.461,10.029 13.689,4.061C12.466,6.574 11.494,13.449 7.915,13.459C4.284,13.467 2.034,15.74 0,15.524" style="fill:rgb(124,36,36);fill-rule:nonzero;"/>
            </g>
            <g transform="matrix(1,0,0,1,214.904,158.599)">
                <path d="M0,-89.907C2.307,-83.07 -3.261,-68.709 -5.001,-60.692C-5.948,-56.328 -4.807,-53.021 -3.391,-48.892C-3.152,-48.197 -3.226,-47.696 -3.253,-46.735C-3.601,-45.429 -4.666,-42.76 -4.987,-42.371C-6.302,-40.778 -5.495,-38.628 -6.603,-36.978C-8.817,-33.672 -10.751,-30.249 -13.59,-27.302C-17.299,-23.45 -19.722,-18.124 -24.344,-15.338C-33.2,-9.999 -37.479,-0.199 -37.479,-0.199C-37.479,-0.199 -40.345,-2.6 -44.11,0C-41.993,-3.613 -38.723,-7.75 -38.272,-8.561C-35.607,-13.355 -31.387,-16.512 -27.428,-19.98C-22.975,-23.881 -19.198,-28.309 -15.657,-33.098C-13.474,-36.052 -11.666,-39.323 -10.436,-42.426C-9.334,-45.206 -7.577,-48.193 -7.852,-51.709C-8.211,-56.297 -7.815,-60.856 -6.135,-65.355C-5.201,-67.857 -4.587,-79.661 -3.105,-82.516C-2.721,-83.259 -0.295,-85.907 0,-89.907" style="fill:rgb(92,36,36);fill-rule:nonzero;"/>
            </g>
            <g transform="matrix(1,0,0,1,58.0366,144.572)">
                <path d="M0,16.565C-0.316,12.352 1.426,8.687 4.656,6.915C10.437,3.744 17.878,5.027 22.911,5.343C28.105,5.669 41.989,6.283 49.214,8.223C55.112,9.807 77.753,12.029 89.304,12.049C96.851,12.063 107.705,9.992 109.395,9.592C110.742,9.274 117.626,10 119.37,8.396C124.173,3.975 131.336,3.068 136.875,0L137.643,3.169C137.643,3.169 124.136,10.029 124.465,10.061C122.767,10.256 121.435,13.013 119.388,13.829C117.323,14.652 112.757,14.027 106.407,15.124C100.916,16.072 84.204,15.951 77.175,15.516C71.705,15.177 56.835,15.127 45.913,11.948C34.801,8.714 15.971,5.356 8.015,9.156C6.442,9.907 5.417,11.351 4.814,13.577C2.566,12.455 0.867,14.534 0,16.565" style="fill:rgb(124,36,36);fill-rule:nonzero;"/>
            </g>
            <g transform="matrix(1,0,0,1,229.869,146.801)">
                <path d="M0,-96.541C-0.641,-94.636 -3.052,-89.931 -5.975,-88.833C-7.983,-88.078 -8.926,-86.799 -9.509,-84.772C-10.783,-80.345 -13.857,-74.856 -13.362,-70.733C-12.689,-65.13 -15.244,-60.264 -16.437,-55.078C-18.783,-44.883 -14.413,-27.342 -15.423,-19.03C-15.919,-14.94 -20.699,-8.232 -25.091,-4.538C-26.569,-3.295 -27.119,-1.412 -28.894,-0.131C-31.777,1.951 -43.499,7.19 -47.778,7.931C-43.012,3.847 -36.888,2.463 -34.957,-2.229C-32.788,-3.436 -31.002,-2.942 -25.985,-7.565C-21.771,-11.447 -20.314,-15.438 -18.836,-18.676C-16.741,-23.263 -19.102,-35.635 -19.34,-36.33C-20.756,-40.458 -21.422,-44.62 -20.475,-48.983C-18.734,-57.001 -17.101,-65.041 -15.423,-73.073C-14.539,-75.025 -15.028,-77.081 -14.972,-79.096C-15.026,-80.681 -14.711,-82.16 -13.937,-83.574C-13.112,-85.079 -13.462,-86.063 -15.369,-86.049C-16.225,-86.042 -17.046,-85.935 -16.952,-87.25C-16.724,-90.486 -28.652,-86.257 -30.963,-78.284C-31.634,-75.968 -32.165,-73.541 -33.882,-71.632C-34.17,-71.313 -36.519,-76.144 -38.062,-77.419C-39.783,-78.843 -39.312,-79.856 -37.771,-80.853C-36.999,-81.353 -37.895,-82.63 -37.986,-83.614C-38.287,-86.821 -34.996,-88.955 -34.879,-92.086C-34.071,-92.03 -33.452,-91.618 -32.916,-91.049C-32.908,-89.98 -32.975,-88.904 -32.869,-87.845C-32.773,-86.881 -32.299,-86.49 -31.419,-87.29C-29.136,-89.364 -26.916,-91.465 -27.378,-94.976C-26.534,-95.629 -25.692,-96.286 -24.845,-96.936C-21.604,-99.421 -18.195,-101.507 -13.917,-101.534C-13.828,-99.852 -14.935,-98.832 -15.947,-97.711C-17.22,-96.303 -18.977,-95.284 -19.987,-92.972C-18.532,-93.517 -17.528,-93.375 -16.463,-93.221C-14.808,-92.982 -13.022,-92.537 -11.409,-93.572C-6.684,-93.858 -3.83,-97.309 -4.348,-102.121C-4.412,-102.728 -4.185,-103.676 -4.654,-104.472C-2.499,-102.501 0.832,-99.014 0,-96.541" style="fill:rgb(183,36,36);fill-rule:nonzero;"/>
            </g>
            <g transform="matrix(1,0,0,1,226.09,59.7977)">
                <path d="M0,-16.617C0.038,-15.715 -0.192,-15.689 -0.127,-15.083C0.39,-10.27 -2.942,-4.743 -7.669,-4.456C-7.664,-5.354 -17.889,-4.126 -17.688,-5.024C-17.11,-7.626 -11.414,-11.282 -13.551,-11.771C-17.829,-11.744 -17.005,-10.831 -20.244,-8.346C-21.092,-7.696 -27.716,1.535 -28.561,2.188C-29.656,2.513 -29.968,-2.649 -29.137,-4.046C-27.993,-2.837 -25.123,-10.656 -23.339,-12.275C-21.006,-14.394 -18.686,-16.09 -15.618,-17.281C-12.972,-18.309 -10.545,-19.026 -7.735,-19.077C-4.811,-19.13 -2.079,-19.021 0,-16.617" style="fill:rgb(92,36,36);fill-rule:nonzero;"/>
            </g>
        </g>
    </g>
    <g id="Dog-Tags" serif:id="Dog Tags">
        <g transform="matrix(0.944228,0.343234,-0.341636,0.939832,125.496,-58.9122)">
            <path d="M21,68L95,68C108.048,72.071 108.113,111.907 95,115L21,115C7.999,111.999 7.995,72.064 21,68Z" style="fill:rgb(12,50,50);stroke:rgb(183,36,36);stroke-width:2px;"/>
        </g>
        <g transform="matrix(0.902729,-0.440972,0.438919,0.898527,62.4834,39.374)">
            <path d="M21,68L95,68C108.048,72.071 108.113,111.907 95,115L21,115C7.999,111.999 7.995,72.064 21,68Z" style="fill:rgb(12,50,50);stroke:rgb(183,36,36);stroke-width:2px;"/>
        </g>
        <g transform="matrix(0.945519,0.325568,-0.323971,0.935533,-0.683331,2.38552)">
            <g transform="matrix(0.700735,0,0.000879318,1,41.8227,0)">
                <text x="139.718px" y="-11.489px" style="font-family:'LucidaGrande-Bold', 'Lucida Grande', sans-serif;font-weight:600;font-size:8.994px;fill:rgb(183,36,36);">DOG TAGS</text>
            </g>
            <g transform="matrix(0.700735,0,0.000879318,1,41.933,0)">
                <text x="140.118px" y="-0.695px" style="font-family:'LucidaGrande-Bold', 'Lucida Grande', sans-serif;font-weight:600;font-size:8.994px;fill:rgb(183,36,36);">SOLDIERS</text>
            </g>
        </g>
        <g transform="matrix(0.897491,-0.441033,0.442947,0.89655,0,0)">
            <g transform="matrix(0.700571,0,-0.00106615,1,24.1727,0)">
                <text x="80.186px" y="152.651px" style="font-family:'LucidaGrande-Bold', 'Lucida Grande', sans-serif;font-weight:600;font-size:8.995px;fill:rgb(183,36,36);">DOG TAGS</text>
            </g>
            <g transform="matrix(0.700571,0,-0.00106615,1,24.2959,0)">
                <text x="80.559px" y="163.446px" style="font-family:'LucidaGrande-Bold', 'Lucida Grande', sans-serif;font-weight:600;font-size:8.995px;fill:rgb(183,36,36);">SOLDIERS</text>
            </g>
        </g>
    </g>
</svg>
