<?xml version="1.0" encoding="UTF-8" standalone="no"?>
<!DOCTYPE svg PUBLIC "-//W3C//DTD SVG 1.1//EN" "http://www.w3.org/Graphics/SVG/1.1/DTD/svg11.dtd">
<svg width="100%" height="100%" viewBox="0 0 288 192" version="1.1" xmlns="http://www.w3.org/2000/svg" xmlns:xlink="http://www.w3.org/1999/xlink" xml:space="preserve" xmlns:serif="http://www.serif.com/" style="fill-rule:evenodd;clip-rule:evenodd;stroke-linecap:round;stroke-linejoin:round;stroke-miterlimit:1.5;">
    <g id="Gas-Mask" serif:id="Gas Mask">
        <path d="M194,2L194,18C194,22.082 214,36.025 214,44L214,124C214,168.045 168.835,184 164,184C147.995,187.085 143.993,187.026 128,184C123.832,184 78,168.06 78,124L78,44C78,36.018 98,21.936 98,18L98,2L120,2C120,9.803 172,9.651 172,2L194,2ZM128,68C130.413,70.778 130.704,72.481 130,73C123.706,79.696 117.86,81.57 110,82C101.534,82.209 96.201,78.209 94,70C94.107,62.51 97.375,57.854 106,58C113.832,57.295 121.147,60.776 128,68ZM163.967,68C161.554,70.778 161.263,72.481 161.967,73C168.261,79.696 174.107,81.57 181.967,82C190.433,82.209 195.767,78.209 197.967,70C197.86,62.51 194.592,57.854 185.967,58C178.136,57.295 170.82,60.776 163.967,68Z" style="fill:rgb(12,50,50);stroke:rgb(183,36,36);stroke-width:2px;"/>
        <path d="M95.373,132.289C96.449,132.04 97.603,133.053 97.949,134.549C98.295,136.046 97.702,137.462 96.627,137.711C95.551,137.96 94.397,136.947 94.051,135.451C93.705,133.954 94.298,132.538 95.373,132.289ZM196.627,132.289C195.551,132.04 194.397,133.053 194.051,134.549C193.705,136.046 194.298,137.462 195.373,137.711C196.449,137.96 197.603,136.947 197.949,135.451C198.295,133.954 197.702,132.538 196.627,132.289Z" style="fill:none;stroke:rgb(183,36,36);stroke-width:4px;"/>
        <g transform="matrix(1,0,0,1.025,0,-4.05)">
            <circle cx="146" cy="142" r="20" style="fill:none;stroke:rgb(183,36,36);stroke-width:3.95px;"/>
        </g>
        <path d="M132,104C123.8,110.071 127.861,114.05 124,116C117.93,120.168 114,119.941 114,142C114,155.941 117.846,182 146,182C173.978,182 178,155.906 178,142C178,120.011 173.836,120.128 168,116C164.001,113.906 166.337,109.901 160,104" style="fill:none;stroke:rgb(183,36,36);stroke-width:4px;"/>
        <g transform="matrix(0.894396,-0.202989,0.225941,0.995528,17.1207,3.19264)">
            <ellipse cx="52" cy="142.5" rx="12" ry="16.5" style="fill:none;stroke:rgb(183,36,36);stroke-width:4.12px;"/>
        </g>
        <g transform="matrix(-0.894396,-0.202989,-0.225941,0.995528,274.531,3.19264)">
            <ellipse cx="52" cy="142.5" rx="12" ry="16.5" style="fill:none;stroke:rgb(183,36,36);stroke-width:4.12px;"/>
        </g>
        <path d="M160,128C150.331,132.268 146.65,144.393 146,162" style="fill:none;stroke:rgb(183,36,36);stroke-width:4px;"/>
        <g transform="matrix(-1,0,0,1,292,0)">
            <path d="M160,128C150.331,132.268 146.65,144.393 146,162" style="fill:none;stroke:rgb(183,36,36);stroke-width:4px;"/>
        </g>
        <path d="M128,68C130.413,70.778 130.704,72.481 130,73C123.706,79.696 117.86,81.57 110,82C101.534,82.209 96.201,78.209 94,70C94.107,62.51 97.375,57.854 106,58C113.832,57.295 121.147,60.776 128,68Z" style="fill:rgb(92,36,36);stroke:rgb(183,36,36);stroke-width:4px;"/>
        <g transform="matrix(-1,0,0,1,291.967,0)">
            <path d="M128,68C130.413,70.778 130.704,72.481 130,73C123.706,79.696 117.86,81.57 110,82C101.534,82.209 96.201,78.209 94,70C94.107,62.51 97.375,57.854 106,58C113.832,57.295 121.147,60.776 128,68Z" style="fill:rgb(92,36,36);stroke:rgb(183,36,36);stroke-width:4px;"/>
        </g>
        <path d="M159,61C176.243,45.171 187.177,35.159 202.711,48.766C205.921,51.533 208.168,55.249 209.128,59.377C211.358,69.04 210.296,80.587 208.891,87.988C208.162,91.65 206.421,95.033 203.866,97.756C190.513,112.123 165.63,107.442 162,93" style="fill:none;stroke:rgb(183,36,36);stroke-width:4px;"/>
        <g transform="matrix(-1,0,0,1,292.008,0)">
            <path d="M159,61C176.243,45.171 187.177,35.159 202.711,48.766C205.921,51.533 208.168,55.249 209.128,59.377C211.358,69.04 210.296,80.587 208.891,87.988C208.162,91.65 206.421,95.033 203.866,97.756C190.513,112.123 165.63,107.442 162,93" style="fill:none;stroke:rgb(183,36,36);stroke-width:4px;"/>
        </g>
        <path d="M146,24L150,30L150,60C155.201,69.306 153.081,78.644 147,88C147.217,91.614 148.113,95.274 150,99L142,99C143.96,95.437 144.85,91.758 145,88C138.88,78.667 136.787,69.333 142,60L142,30L146,24Z" style="fill:rgb(183,36,36);stroke:rgb(183,36,36);stroke-width:4px;"/>
        <path d="M123,6L122,19L124,22" style="fill:none;stroke:rgb(183,36,36);stroke-width:4px;"/>
        <path d="M169,6L170,19L168,22" style="fill:none;stroke:rgb(183,36,36);stroke-width:4px;"/>
        <path d="M159,23L153,17" style="fill:none;stroke:rgb(183,36,36);stroke-width:4px;"/>
        <path d="M133,23L139,17" style="fill:none;stroke:rgb(183,36,36);stroke-width:4px;"/>
        <path d="M133,115C141.974,112.006 149.952,112.017 159,115C155.916,110.036 153.958,109 146,109C138.026,109 136.021,110.042 133,115Z" style="fill:rgb(92,36,36);stroke:rgb(92,36,36);stroke-width:4px;"/>
        <g transform="matrix(1,0,0,1,0.5,0.5)">
            <path d="M176,5L199,34" style="fill:none;stroke:rgb(183,36,36);stroke-width:4px;"/>
        </g>
        <g transform="matrix(-1,0,0,1,291.5,0.5)">
            <path d="M176,5L199,34" style="fill:none;stroke:rgb(183,36,36);stroke-width:4px;"/>
        </g>
    </g>
</svg>
