<?xml version="1.0" encoding="UTF-8" standalone="no"?>
<!DOCTYPE svg PUBLIC "-//W3C//DTD SVG 1.1//EN" "http://www.w3.org/Graphics/SVG/1.1/DTD/svg11.dtd">
<svg width="100%" height="100%" viewBox="0 0 288 192" version="1.1" xmlns="http://www.w3.org/2000/svg" xmlns:xlink="http://www.w3.org/1999/xlink" xml:space="preserve" xmlns:serif="http://www.serif.com/" style="fill-rule:evenodd;clip-rule:evenodd;stroke-linejoin:round;stroke-miterlimit:2;">
    <g id="Layer-2" serif:id="Layer 2">
        <g transform="matrix(0,-1,-1,0,137.71,62.3022)">
            <path d="M-46.813,-46.813C-72.293,-46.813 -90.221,-25.896 -90.221,0C-90.221,25.896 -72.293,46.813 -46.813,46.813C-7.054,46.813 -7.054,22.908 -3.405,0C-7.054,-22.909 -7.054,-46.813 -46.813,-46.813" style="fill:rgb(213,36,36);fill-rule:nonzero;"/>
        </g>
        <g transform="matrix(1,0,0,1,180.538,110.231)">
            <path d="M0,-1.034C0,22.372 -19.92,38.309 -42.829,38.309C-65.737,38.309 -85.657,22.372 -85.657,-1.034C-85.657,-29.231 -73.169,-35.432 -58.048,-38.385C-53.14,-39.343 -48.232,-39.21 -42.829,-39.21C-37.592,-39.21 -32.518,-39.343 -27.609,-38.385C-12.488,-35.432 0,-29.231 0,-1.034" style="fill:rgb(12,50,50);fill-rule:nonzero;"/>
        </g>
        <g transform="matrix(1,0,0,1,0,35.858)">
            <rect x="94.881" y="77.324" width="85.657" height="1.494" style="fill:rgb(213,36,36);"/>
        </g>
        <g transform="matrix(1,0,0,1,0,26.892)">
            <rect x="94.411" y="81.309" width="86.837" height="2.49" style="fill:rgb(213,36,36);"/>
        </g>
        <g transform="matrix(1,0,0,1,150.941,65.3067)">
            <path d="M0,4.56L-25.367,5.227L-26.822,-13.883L-33.625,-20.522L-32.887,-26.416L-24.854,-26.833L-23.707,-29.947L10.635,-29.538L39.529,6.54L43.393,34.507L34.321,14.804L16.618,-3.965L-1.25,-4.047L0,4.56Z" style="fill:rgb(12,50,50);fill-rule:nonzero;"/>
        </g>
        <g transform="matrix(1,0,0,1,161.116,132.105)">
            <path d="M0,-72.21C0,-72.21 -1.022,-73.18 -1.062,-73.209C-2.837,-74.555 -4.6,-75.918 -6.401,-77.228C-10.098,-79.911 -10.786,-81.546 -9.435,-85.897C-8.903,-87.606 -9.371,-88.354 -10.893,-88.85C-16.679,-90.738 -22.385,-93.027 -28.692,-92.051C-29.7,-91.896 -30.67,-92.067 -31.331,-93.033C-31.686,-93.552 -32.037,-94.316 -32.851,-93.935C-33.586,-93.589 -33.364,-92.78 -33.364,-92.15C-33.367,-84.262 -37.473,-86.25 -37.351,-83.124C-37.294,-81.673 -34.363,-81.672 -34.363,-77.19L-34.363,-73.704C-34.363,-72.879 -33.694,-72.21 -32.869,-72.21L0,-72.21ZM-1.992,-92.13C-1.992,-89.876 -7.394,-87.676 -7.222,-81.672C-7.07,-80.247 1.008,-73.24 5.976,-72.21C9.515,-71.476 27.888,-53.286 30.728,-40.474C33.61,-60.216 5.976,-86.761 2.366,-91.671C0,-94.621 -1.992,-94.621 -4.233,-94.621C-4.233,-93.376 -1.992,-94.123 -1.992,-92.13M-18.427,-94.123L-28.262,-94.123C-28.469,-94.123 -28.636,-93.955 -28.636,-93.749C-28.636,-93.543 -28.469,-93.376 -28.262,-93.376L-18.427,-93.376C-13.944,-93.376 -13.17,-91.383 -11.205,-91.383C-9.463,-91.383 -9.463,-91.904 -8.168,-93.376C-7.906,-93.672 -7.222,-93.62 -7.222,-94.123C-7.222,-94.658 -7.659,-94.621 -8.168,-94.621C-11.601,-94.621 -15.247,-94.123 -18.427,-94.123M-15.438,-69.222L-31.375,-69.222C-32.2,-69.222 -32.869,-68.553 -32.869,-67.728L-32.869,-64.242C-32.869,-63.417 -32.2,-62.748 -31.375,-62.748L-15.438,-62.748C-14.613,-62.748 -13.944,-63.417 -13.944,-64.242L-13.944,-67.728C-13.944,-68.553 -14.613,-69.222 -15.438,-69.222M-37.351,-60.756L-37.351,-69.222C-37.351,-70.246 -38.342,-70.713 -39.074,-70.161L-45.12,-66.237C-46.275,-65.537 -47.942,-67.994 -47.311,-68.625L-39.688,-75.314C-37.351,-77.178 -38.048,-80.616 -40.315,-81.904C-41.098,-82.349 -43.18,-82.904 -44.472,-83.741C-44.885,-84.008 -45.12,-84.481 -45.12,-84.973L-45.12,-93.625C-45.12,-94.45 -44.451,-95.119 -43.626,-95.119L-37.351,-95.119C-34.363,-95.119 -37.351,-98.605 -33.367,-98.605L0,-98.605C3.108,-98.605 30.256,-67.036 32.868,-53.286C36.274,-35.357 36.49,26.395 35.407,26.395L34.899,26.395C33.791,26.395 38.396,-7.948 26.282,-43.106C22.119,-52.523 8.735,-69.222 0,-69.222L-7.969,-69.222C-8.794,-69.222 -9.463,-68.553 -9.463,-67.728L-9.463,-60.756L-37.351,-60.756Z" style="fill:rgb(213,36,36);fill-rule:nonzero;"/>
        </g>
        <g transform="matrix(1,0,0,1,129.243,52.4244)">
            <path d="M0,0.498L0,-0C0,-1.1 0.892,-1.992 1.992,-1.992L6.474,-1.992C7.574,-1.992 8.466,-1.1 8.466,-0L8.466,0.498C8.466,1.598 7.574,2.49 6.474,2.49L1.992,2.49C0.892,2.49 0,1.598 0,0.498" style="fill:rgb(213,36,36);fill-rule:nonzero;"/>
        </g>
        <g transform="matrix(0,-1,-1,0,159.651,46.9406)">
            <path d="M-2.786,-2.786C-4.324,-2.786 -5.571,-1.539 -5.571,-0.001C-5.571,1.538 -4.324,2.786 -2.786,2.786C-1.247,2.786 -0.001,1.538 -0.001,-0.001C-0.001,-1.539 -1.247,-2.786 -2.786,-2.786" style="fill:rgb(213,36,36);fill-rule:nonzero;"/>
        </g>
        <g transform="matrix(0,-1,-1,0,121.752,40.716)">
            <path d="M-2.244,-2.244C-3.483,-2.244 -4.488,-1.239 -4.488,0.001C-4.488,1.24 -3.483,2.244 -2.244,2.244C-1.005,2.244 0.001,1.24 0.001,0.001C0.001,-1.239 -1.005,-2.244 -2.244,-2.244" style="fill:rgb(12,50,50);fill-rule:nonzero;"/>
        </g>
    </g>
</svg>
