<?xml version="1.0" encoding="UTF-8" standalone="no"?>
<!DOCTYPE svg PUBLIC "-//W3C//DTD SVG 1.1//EN" "http://www.w3.org/Graphics/SVG/1.1/DTD/svg11.dtd">
<svg width="100%" height="100%" viewBox="0 0 288 192" version="1.1" xmlns="http://www.w3.org/2000/svg" xmlns:xlink="http://www.w3.org/1999/xlink" xml:space="preserve" xmlns:serif="http://www.serif.com/" style="fill-rule:evenodd;clip-rule:evenodd;stroke-linecap:round;stroke-linejoin:round;stroke-miterlimit:1.5;">
    <g id="Ketchup">
        <path d="M110,181C110,182.326 110.527,183.598 111.464,184.536C112.402,185.473 113.674,186 115,186C128.189,186 163.811,186 177,186C179.761,186 182,183.761 182,181C182,166.782 182,126.057 182,109.131C182,104.648 180.493,100.295 177.723,96.77C156.244,69.507 158,47 158,47L158,6L134,6L134,47C134,47 135.853,69.37 114.316,96.804C111.555,100.318 110.054,104.658 110.054,109.127C110,126.044 110,166.779 110,181Z" style="fill:rgb(12,50,50);stroke:rgb(92,36,36);stroke-width:4px;"/>
        <g transform="matrix(1.13365,0,0,1.17362,-19.7752,-19.3777)">
            <path d="M142,109L142,111" style="fill:none;stroke:rgb(92,36,36);stroke-width:1.73px;"/>
        </g>
        <g transform="matrix(1.13365,0,0,1.17362,-19.7752,-19.3777)">
            <path d="M153,115L152,116" style="fill:none;stroke:rgb(92,36,36);stroke-width:1.73px;"/>
        </g>
        <g transform="matrix(1.13365,0,0,1.17362,-19.7752,-19.3777)">
            <path d="M139,118C135.567,108.924 145.439,107.193 151,116C145.13,112.33 140.119,111.276 139,118Z" style="fill:rgb(92,36,36);"/>
        </g>
        <g transform="matrix(1.13365,0,0,1.17362,-19.7752,-19.3777)">
            <path d="M144.914,116.186C144.724,116.246 144.517,116.167 144.421,115.998C144.325,115.829 144.367,115.618 144.521,115.496C149.904,111.029 155.824,115.427 153.743,119.839C153.663,120.006 153.477,120.101 153.29,120.07C153.102,120.04 152.959,119.891 152.94,119.708C152.431,116.681 149.236,114.773 144.914,116.186Z" style="fill:rgb(92,36,36);"/>
        </g>
        <path d="M134,18L158,18" style="fill:none;stroke:rgb(92,36,36);stroke-width:4px;"/>
        <path d="M134,42L158,42" style="fill:none;stroke:rgb(92,36,36);stroke-width:4px;"/>
        <path d="M128.732,105.352C129.033,105.268 129.356,105.33 129.605,105.52C129.854,105.709 130,106.003 130,106.316C130,109.88 130,119.742 130,124C130,125.105 129.105,126 128,126C126.279,126 123.752,126 121.669,126C120.768,126 119.915,126.405 119.345,127.103C118.775,127.8 118.549,128.717 118.729,129.6C121.163,141.376 129.124,178 134,178L158,178C163.217,178 170.955,141.333 173.301,129.579C173.474,128.699 173.244,127.788 172.674,127.095C172.105,126.402 171.254,126 170.357,126C168.269,126 165.728,126 164,126C162.895,126 162,125.105 162,124C162,119.742 162,109.88 162,106.316C162,106.003 162.146,105.709 162.395,105.52C162.644,105.33 162.967,105.268 163.268,105.352C167.367,106.491 180,110 180,110L180,181C180,181.796 179.684,182.559 179.121,183.121C178.559,183.684 177.796,184 177,184C165.763,184 126.237,184 115,184C114.204,184 113.441,183.684 112.879,183.121C112.316,182.559 112,181.796 112,181C112,167.143 112,110 112,110C112,110 124.633,106.491 128.732,105.352Z" style="fill:rgb(183,36,36);"/>
        <path d="M110,110C130.01,110.09 130.015,98.003 146.014,98C162.029,97.997 162.037,110.087 182,110" style="fill:none;stroke:rgb(92,36,36);stroke-width:4px;"/>
        <g transform="matrix(0.7,0,0,1,30.7213,3)">
            <text id="Ketchup1" serif:id="Ketchup" x="132.404px" y="141.721px" style="font-family:'TimesNewRomanPSMT', 'Times New Roman', serif;font-size:14px;fill:rgb(92,36,36);">KETCHUP</text>
        </g>
        <g transform="matrix(1,0,0,1,-5,-4.88565)">
            <text id="Tomato" x="132.471px" y="139.787px" style="font-family:'Apple-Chancery', 'Apple Chancery', cursive;font-style:italic;font-size:9px;fill:rgb(92,36,36);">Real</text>
        </g>
        <path d="M134,39C133.771,29.773 139.433,18.824 146,18L134,18L134,39Z" style="fill:rgb(92,36,36);stroke:rgb(92,36,36);stroke-width:4px;"/>
        <g transform="matrix(-1,0,0,1,291.993,0)">
            <path d="M134,39C133.771,29.773 139.433,18.824 146,18L134,18L134,39Z" style="fill:rgb(92,36,36);stroke:rgb(92,36,36);stroke-width:4px;"/>
        </g>
    </g>
</svg>
