<?xml version="1.0" encoding="UTF-8" standalone="no"?>
<!DOCTYPE svg PUBLIC "-//W3C//DTD SVG 1.1//EN" "http://www.w3.org/Graphics/SVG/1.1/DTD/svg11.dtd">
<svg width="100%" height="100%" viewBox="0 0 288 192" version="1.1" xmlns="http://www.w3.org/2000/svg" xmlns:xlink="http://www.w3.org/1999/xlink" xml:space="preserve" xmlns:serif="http://www.serif.com/" style="fill-rule:evenodd;clip-rule:evenodd;stroke-linejoin:round;stroke-miterlimit:2;">
    <g id="Layer-4" serif:id="Layer 4">
        <g transform="matrix(1,0,0,1,190.174,108.935)">
            <path d="M0,-26.094C-7.48,-26.094 -13.545,-22.081 -13.545,-17.131C-13.545,-12.18 -7.48,-8.168 0,-8.168C7.481,-8.168 13.546,-12.18 13.546,-17.131C13.546,-22.081 7.481,-26.094 0,-26.094M-150.682,-56.05L-70.063,-56.05C-69.769,-56.05 -69.481,-55.962 -69.236,-55.799C-69.236,-55.799 -68.455,-55.059 -68.12,-55.054C-66.947,-55.037 -65.237,-57.125 -64.141,-57.543C-63.56,-57.765 -62.322,-57.543 -61.654,-57.543C-60.837,-57.543 -58.67,-55.054 -58.67,-53.56C-58.67,-53.56 -13.908,-53.172 1.006,-53.554C3.87,-53.628 9.589,-53.995 12.452,-54.058C16.679,-54.151 27.202,-54.058 29.363,-54.058C31.353,-54.058 30.644,-56.833 31.353,-57.543C31.968,-58.159 34.072,-57.964 34.834,-57.543C36.053,-56.869 37.755,-53.56 38.813,-53.56L42.294,-53.56L42.294,-53.056L45.268,-53.069L45.278,-53.56C45.278,-53.56 47.935,-53.838 48.76,-53.56C49.814,-53.206 50.749,-52.054 50.749,-49.578C50.749,-47.517 48.76,-46.526 48.76,-44.102C48.76,-41.936 50.749,-33.648 58.707,-33.648C60.199,-33.648 60.199,-27.674 58.707,-27.674C54.729,-27.674 46.273,-27.674 46.273,-19.709C46.273,-13.81 58.707,7.239 58.707,20.117C58.707,28.354 56.837,32.065 54.729,32.065L22.399,32.065C22.399,9.69 17.939,-5.769 12.452,-5.769C7.658,-5.769 3.499,-4.547 -1.161,-4.547C-5.951,-4.547 -13.813,-8.259 -17.887,-8.259L-69.612,-8.259C-69.612,-8.259 -72.099,-11.744 -72.099,-15.726C-72.099,-19.709 -69.612,-23.691 -69.612,-23.691L-56.681,-23.691L-56.681,-26.678C-56.681,-27.228 -57.126,-27.674 -57.675,-27.674C-58.225,-27.674 -58.67,-28.119 -58.67,-28.669C-58.67,-29.219 -59.115,-29.665 -59.665,-29.665L-67.125,-29.665C-67.949,-29.665 -68.617,-30.334 -68.617,-31.158L-68.617,-35.639C-68.866,-35.639 -69.115,-35.888 -69.115,-36.136L-69.115,-39.124L-69.612,-39.124L-69.612,-36.136C-69.612,-35.862 -69.834,-35.639 -70.109,-35.639L-150.682,-35.639C-151.506,-35.639 -152.174,-36.307 -152.174,-37.133L-152.174,-54.556C-152.174,-55.381 -151.506,-56.05 -150.682,-56.05" style="fill:rgb(24,140,206);fill-rule:nonzero;"/>
        </g>
        <g transform="matrix(-0.963989,-0.265942,-0.265942,0.963989,189.011,97.3105)">
            <path d="M4.019,-14.705C4.898,-16.661 -4.261,-18.118 -4.456,-15.983C-5.245,-7.364 -3.343,0.073 4.019,3.055C6.015,3.864 6.08,1.688 5.738,1.143C1.193,-6.1 0.28,-6.381 4.019,-14.705" style="fill:rgb(24,140,206);fill-rule:nonzero;"/>
        </g>
    </g>
    <g id="Layer-2" serif:id="Layer 2">
        <g transform="matrix(1,0,0,1,41.979,69.812)">
            <path d="M0,-14.437L5.968,-14.437L5.968,0L0,0C-0.549,0 -0.995,-0.446 -0.995,-0.996L-0.995,-13.441C-0.995,-13.991 -0.549,-14.437 0,-14.437" style="fill:rgb(14,60,64);fill-rule:nonzero;"/>
        </g>
        <g transform="matrix(1,0,0,1,50.6826,69.812)">
            <path d="M0,-14.437C0.412,-14.437 0.746,-14.103 0.746,-13.69L0.746,-0.747C0.746,-0.334 0.412,0 0,0C-0.412,0 -0.746,-0.334 -0.746,-0.747L-0.746,-13.69C-0.746,-14.103 -0.412,-14.437 0,-14.437" style="fill:rgb(14,60,64);fill-rule:nonzero;"/>
        </g>
        <g transform="matrix(1,0,0,1,54.9102,68.8156)">
            <path d="M0,-12.445L0,0C0,0.55 0.445,0.996 0.995,0.996L43.768,0.996C44.317,0.996 44.763,0.55 44.763,0L44.763,-12.445C44.763,-12.995 44.317,-13.441 43.768,-13.441L0.995,-13.441C0.445,-13.441 0,-12.995 0,-12.445" style="fill:rgb(14,60,64);fill-rule:nonzero;"/>
        </g>
        <g transform="matrix(1,0,0,1,102.408,69.812)">
            <path d="M0,-14.437C0.412,-14.437 0.746,-14.103 0.746,-13.69L0.746,-0.747C0.746,-0.334 0.412,0 0,0C-0.412,0 -0.746,-0.334 -0.746,-0.747L-0.746,-13.69C-0.746,-14.103 -0.412,-14.437 0,-14.437" style="fill:rgb(14,60,64);fill-rule:nonzero;"/>
        </g>
        <g transform="matrix(1,0,0,1,107.63,69.812)">
            <path d="M0,-14.437L9.45,-14.437C10,-14.437 10.445,-13.991 10.445,-13.441L10.445,-0.996C10.445,-0.446 10,0 9.45,0L0,0C-0.549,0 -0.995,-0.446 -0.995,-0.996L-0.995,-13.441C-0.995,-13.991 -0.549,-14.437 0,-14.437" style="fill:rgb(14,60,64);fill-rule:nonzero;"/>
        </g>
        <g transform="matrix(1,0,0,1,122.551,97.191)">
            <path d="M0,-8.96L10.445,-8.96C9.45,-6.471 9.45,-2.488 10.445,0L0,0C-0.549,0 -0.995,-0.445 -0.995,-0.995L-0.995,-7.964C-0.995,-8.514 -0.549,-8.96 0,-8.96" style="fill:rgb(14,60,64);fill-rule:nonzero;"/>
        </g>
        <g transform="matrix(1,0,0,1,135.483,96.1956)">
            <path d="M0,-6.969L0,0.001C0,0.551 0.445,0.996 0.995,0.996L34.815,0.996C35.365,0.996 35.81,0.551 35.81,0.001L35.81,-2.58C35.81,-3.17 35.635,-3.746 35.308,-4.237L33.268,-7.3C32.992,-7.715 32.526,-7.965 32.027,-7.965L0.995,-7.965C0.445,-7.965 0,-7.519 0,-6.969" style="fill:rgb(14,60,64);fill-rule:nonzero;"/>
        </g>
        <g transform="matrix(1,0,0,1,173.537,97.0976)">
            <path d="M0,-1.642L1.479,-0.161C1.573,-0.066 1.507,0.094 1.374,0.094L0.242,0.094C-0.032,0.094 -0.255,-0.129 -0.255,-0.403L-0.255,-1.537C-0.255,-1.669 -0.095,-1.736 0,-1.642" style="fill:rgb(14,60,64);fill-rule:nonzero;"/>
        </g>
        <g transform="matrix(1,0,0,1,124.541,68.3198)">
            <path d="M0,-9.958L0,-1.495C0,-0.945 0.446,-0.5 0.995,-0.5L3.482,-0.5C4.152,-0.5 5.284,0.778 7.418,0.97C7.708,0.996 7.962,0.772 7.967,0.481C7.991,-0.888 8.05,-4.591 8.024,-5.552C8.001,-6.445 7.743,-7.315 7.27,-8.073L5.91,-10.252C5.637,-10.688 5.159,-10.954 4.644,-10.954L0.995,-10.954C0.446,-10.954 0,-10.508 0,-9.958" style="fill:rgb(14,60,64);fill-rule:nonzero;"/>
        </g>
        <g transform="matrix(1,0,0,1,125.536,76.2832)">
            <path d="M0,-4.978L2.487,-4.978C3.86,-4.978 4.974,-3.864 4.974,-2.489L4.974,-0.996C4.974,-0.446 4.528,0 3.979,0L0,0C-0.549,0 -0.995,-0.446 -0.995,-0.996L-0.995,-3.982C-0.995,-4.532 -0.549,-4.978 0,-4.978" style="fill:rgb(14,60,64);fill-rule:nonzero;"/>
        </g>
        <g transform="matrix(1,0,0,1,213.633,129.55)">
            <path d="M0,-48.786L7.705,-48.786C9.093,-48.786 10.418,-48.205 11.359,-47.184L14.742,-43.516C15.46,-42.739 15.91,-41.756 16.029,-40.704C16.323,-38.111 16.92,-33.122 17.343,-31.362C17.969,-28.761 28.285,-11.133 28.285,-0.995C28.285,0 9.883,0 9.883,-0.995C9.883,-4.125 4.579,-25.646 2.422,-29.869C2.061,-30.577 7.635,-33.104 -0.065,-40.93C-1.022,-41.901 -1.367,-45.205 -1.49,-47.206C-1.543,-48.064 -0.86,-48.786 0,-48.786" style="fill:rgb(14,60,64);fill-rule:nonzero;"/>
        </g>
        <g transform="matrix(1,0,0,1,135.483,67.3222)">
            <path d="M0,-4.978L0,0.001C0,0.55 0.445,0.996 0.995,0.996L56.988,0.996C57.332,0.996 57.572,0.655 57.457,0.331L55.56,-4.982C55.348,-5.577 54.786,-5.974 54.156,-5.974L0.995,-5.974C0.445,-5.974 0,-5.528 0,-4.978" style="fill:rgb(14,60,64);fill-rule:nonzero;"/>
        </g>
        <g transform="matrix(1,0,0,1,136.477,83.2519)">
            <path d="M0,0.001C0,0.826 0.668,1.494 1.492,1.494L27.853,1.494C28.127,1.494 28.35,1.272 28.35,0.997L28.35,0.946C28.35,0.691 28.158,0.478 27.905,0.451L10.48,-1.435C10.125,-1.473 9.769,-1.493 9.411,-1.493L1.492,-1.493C0.668,-1.493 0,-0.824 0,0.001" style="fill:rgb(14,60,64);fill-rule:nonzero;"/>
        </g>
        <g transform="matrix(1,0,0,1,133.991,78.0248)">
            <path d="M0,-5.475C0,-6.162 0.557,-6.72 1.243,-6.72L38.048,-6.72C38.735,-6.72 39.292,-6.162 39.292,-5.475L39.292,0.001C39.292,0.688 38.735,1.245 38.048,1.245L36.967,1.245C35.918,1.245 34.908,0.894 34.056,0.281C27.906,-4.142 21.592,-4.229 1.244,-4.23C0.557,-4.23 0,-4.788 0,-5.475" style="fill:rgb(14,60,64);fill-rule:nonzero;"/>
        </g>
        <g transform="matrix(1,0,0,1,168.309,88.7293)">
            <path d="M0,-6.472C2.486,-5.974 7.212,-5.974 9.45,-6.472L4.974,0L0,-6.472Z" style="fill:rgb(14,60,64);fill-rule:nonzero;"/>
        </g>
        <g transform="matrix(0,1,1,0,205.362,46.1763)">
            <path d="M11.688,-12.186L12.684,-12.186C12.185,-5.72 12.185,5.718 12.684,11.688L11.688,11.688C11.19,5.718 11.19,-5.72 11.688,-12.186" style="fill:rgb(14,60,64);fill-rule:nonzero;"/>
        </g>
        <g transform="matrix(1,0,0,1,222.023,132.537)">
            <path d="M0,-0.996L0,0L3.979,0C3.979,-0.996 0,-0.996 0,-0.996" style="fill:rgb(14,60,64);fill-rule:nonzero;"/>
        </g>
        <g transform="matrix(1,0,0,1,240.426,131.541)">
            <path d="M0,0.996L2.984,0.996L2.984,0C2.984,0 0,0 0,0.996" style="fill:rgb(14,60,64);fill-rule:nonzero;"/>
        </g>
        <g transform="matrix(1,0,0,1,219.537,137.764)">
            <path d="M0,0.001C0,-0.412 0.334,-0.746 0.745,-0.746L17.904,-0.746L17.904,-0.248C7.566,-0.248 3.321,0.564 0.765,0.722C0.349,0.747 0,0.417 0,0.001" style="fill:rgb(14,60,64);fill-rule:nonzero;"/>
        </g>
        <g transform="matrix(1,0,0,1,240.923,137.761)">
            <path d="M0,0.004C0,0.403 0.322,0.729 0.722,0.733L1.733,0.743C2.148,0.747 2.487,0.411 2.487,-0.004C2.487,-0.412 2.156,-0.743 1.748,-0.743L0.746,-0.743C0.334,-0.743 0,-0.409 0,0.004" style="fill:rgb(14,60,64);fill-rule:nonzero;"/>
        </g>
        <g transform="matrix(1,0,0,1,216.055,139.009)">
            <path d="M0,-1.991C0.275,-1.991 0.498,-1.768 0.498,-1.493L0.498,-0.498C0.498,-0.222 0.275,0 0,0C-0.274,0 -0.497,-0.222 -0.497,-0.498L-0.497,-1.493C-0.497,-1.768 -0.274,-1.991 0,-1.991" style="fill:rgb(14,60,64);fill-rule:nonzero;"/>
        </g>
        <g transform="matrix(1,0,0,1,133.991,80.2658)">
            <path d="M0,-2.987C24.874,-2.987 24.874,-2.987 31.333,0C20.902,-1.991 11.807,-1.991 0,-1.991L0,-2.987Z" style="fill:rgb(14,60,64);fill-rule:nonzero;"/>
        </g>
        <g transform="matrix(1,0,0,1,182.595,76.0078)">
            <path d="M0,2.542L1.354,-0.17C1.522,-0.507 1.867,-0.72 2.244,-0.72L6.787,-0.72C7.244,-0.72 7.459,-0.154 7.117,0.15L4.043,2.885C3.77,3.128 3.417,3.262 3.052,3.262L0.444,3.262C0.075,3.262 -0.166,2.873 0,2.542" style="fill:rgb(14,60,64);fill-rule:nonzero;"/>
        </g>
        <g transform="matrix(1,0,0,1,195.663,74.7904)">
            <path d="M0,-0.996L6.963,-0.996L6.963,-0.498C4.974,0 1.989,0 0,-0.498L0,-0.996Z" style="fill:rgb(14,60,64);fill-rule:nonzero;"/>
        </g>
        <g transform="matrix(1,0,0,1,239.929,80.7632)">
            <path d="M0,-4.48C3.32,-1.786 -0.755,-2.529 -2.984,0C-1.286,-1.476 3.911,-1.878 5.501,-1.968C5.765,-1.983 5.968,-2.201 5.968,-2.465L5.968,-2.507C5.968,-2.771 5.766,-2.988 5.503,-3.003C4.494,-3.063 2.031,-3.324 0,-4.48" style="fill:rgb(14,60,64);fill-rule:nonzero;"/>
        </g>
        <g transform="matrix(1,0,0,1,218.045,84.2482)">
            <path d="M0,-12.943L16.965,-12.943C17.479,-12.943 17.908,-12.554 17.955,-12.041C18.034,-11.153 18.24,-9.723 18.775,-8.283C18.846,-8.093 18.802,-7.882 18.652,-7.746C17.753,-6.923 14.693,-3.887 14.439,-0.45C14.421,-0.193 14.195,0 13.938,0L13.668,0C13.517,0 13.376,-0.068 13.282,-0.188C9.939,-4.443 4.631,-8.152 -0.242,-9.301C-0.687,-9.405 -0.995,-9.808 -0.995,-10.265L-0.995,-11.947C-0.995,-12.497 -0.55,-12.943 0,-12.943" style="fill:rgb(14,60,64);fill-rule:nonzero;"/>
        </g>
        <g transform="matrix(1,0,0,1,209.59,74.2298)">
            <path d="M0,16.988L-0.498,16.988C-0.914,3.719 -6.33,6.663 -5.969,3.547C-5.901,2.964 -4.342,3.167 -3.334,3.361C-2.8,3.464 -2.255,3.268 -1.907,2.851L-0.448,1.097C-0.164,0.757 0.256,0.56 0.698,0.56L6.613,0.56C6.8,0.56 6.985,0.525 7.158,0.457L8.322,0L8.455,0.56L4.942,3.207C4.689,3.397 4.384,3.502 4.067,3.507L0.233,3.567C0.047,3.57 -0.136,3.607 -0.309,3.678C-0.993,3.96 -2.755,4.72 -2.504,4.98C-0.498,7.06 0,9.513 0,16.988" style="fill:rgb(14,60,64);fill-rule:nonzero;"/>
        </g>
        <g transform="matrix(1,0,0,1,196.804,135.119)">
            <path d="M0,-54.983C8.859,-51.766 13.661,-43.216 6.59,-36.157C6.311,-35.878 6.446,-35.41 6.829,-35.319C14.438,-33.515 19.133,-11.607 18.754,-0.59C18.724,0.306 21.86,-1.564 21.738,-2.582C19.577,-11.829 13.021,-34.574 13.021,-34.574C12.876,-35.107 12.518,-35.553 12.029,-35.811C11.158,-36.271 9.859,-37.064 9.96,-37.657C11.748,-48.245 8.976,-54.366 0.065,-55.272C-0.109,-55.289 -0.165,-55.043 0,-54.983" style="fill:rgb(14,60,64);fill-rule:nonzero;"/>
        </g>
        <g transform="matrix(1,0,0,1,178.955,71.3448)">
            <path d="M0,5.686C-1.009,5.868 -3.104,3.905 -2.997,2.885C-2.887,1.844 -1.037,-0.182 0,-0.04C0.684,0.054 1.723,1.354 1.822,2.039C1.969,3.047 1.002,5.506 0,5.686" style="fill:rgb(14,60,64);fill-rule:nonzero;"/>
        </g>
        <g transform="matrix(1,0,0,1,191.933,83.6677)">
            <path d="M0,1.971C-0.119,2.013 -0.232,1.896 -0.187,1.778C-0.001,1.288 0.399,0.327 0.748,0.118C0.942,0.001 1.494,-0.042 1.655,0.118C1.828,0.29 1.783,0.886 1.655,1.093C1.444,1.434 0.49,1.801 0,1.971" style="fill:rgb(14,60,64);fill-rule:nonzero;"/>
        </g>
        <g transform="matrix(-0.289881,-0.957063,-0.957063,0.289881,210.061,94.8974)">
            <path d="M-1.404,-2.019C-1.611,-2.162 -2.283,-1.964 -2.369,-1.727C-2.584,-1.128 -1.8,0.362 -1.404,1.058C-1.332,1.181 -1.143,1.145 -1.125,1.004C-1.021,0.169 -0.861,-1.643 -1.404,-2.019" style="fill:rgb(14,60,64);fill-rule:nonzero;"/>
        </g>
        <g transform="matrix(-0.975643,0.219365,0.219365,0.975643,219.307,69.1445)">
            <path d="M1.279,-3.455C1.363,-3.551 1.517,-3.506 1.537,-3.382C1.67,-2.562 1.958,-0.349 1.279,-0.063C0.862,0.111 -0.079,-0.806 -0.085,-1.26C-0.094,-1.82 0.852,-2.966 1.279,-3.455" style="fill:rgb(14,60,64);fill-rule:nonzero;"/>
        </g>
        <g transform="matrix(1,0,0,1,219.844,67.5266)">
            <path d="M0,-4.987C-0.119,-5.055 -0.258,-4.939 -0.214,-4.809C0.131,-3.786 1.164,-0.99 2.161,-0.978C2.541,-0.972 2.972,-2.264 2.972,-2.264C3.178,-2.591 3.555,-2.77 3.938,-2.721L5.757,-2.49C5.973,-2.463 6.146,-2.297 6.184,-2.082L6.566,0.109C6.629,0.466 6.939,0.726 7.302,0.726L14.671,0.726C15.104,0.726 15.448,0.36 15.415,-0.073C15.349,-0.952 15.208,-2.312 14.95,-2.84C14.631,-3.495 13.349,-4.704 12.604,-5.374C12.283,-5.661 11.816,-5.713 11.442,-5.499L6.752,-2.811C6.651,-2.753 6.533,-2.733 6.418,-2.753C6.418,-2.753 4.027,-3.059 3.27,-3.316C2.52,-3.57 0.741,-4.565 0,-4.987" style="fill:rgb(14,60,64);fill-rule:nonzero;"/>
        </g>
        <g transform="matrix(0.0666441,0.997777,0.997777,-0.0666441,225.169,56.7727)">
            <path d="M3.309,-2.092C4.487,-1.807 5.035,1.406 4.666,2.56C4.529,2.988 3.76,3.73 3.309,3.745C2.303,3.778 0.714,1.765 0.603,0.765C0.494,-0.213 2.352,-2.323 3.309,-2.092" style="fill:rgb(14,60,64);fill-rule:nonzero;"/>
        </g>
    </g>
    <g id="Layer-3" serif:id="Layer 3">
        <g transform="matrix(0,-1,-1,0,224.76,91.6211)">
            <path d="M-8.332,-8.333C-12.938,-8.333 -16.673,-4.603 -16.673,-0.001C-16.673,4.602 -12.938,8.332 -8.332,8.332C-3.726,8.332 0.008,4.602 0.008,-0.001C0.008,-4.603 -3.726,-8.333 -8.332,-8.333" style="fill:rgb(24,140,206);fill-rule:nonzero;"/>
        </g>
        <g transform="matrix(0,-1,-1,0,230.217,120.107)">
            <path d="M-4.425,-4.425C-6.871,-4.425 -8.854,-2.445 -8.854,0C-8.854,2.443 -6.871,4.425 -4.425,4.425C-1.98,4.425 0.005,2.443 0.005,0C0.005,-2.445 -1.98,-4.425 -4.425,-4.425" style="fill:rgb(24,140,206);fill-rule:nonzero;"/>
        </g>
        <g transform="matrix(0,-1,-1,0,224.761,95.3076)">
            <path d="M-4.645,-4.645C-7.214,-4.645 -9.295,-2.565 -9.295,0.001C-9.295,2.567 -7.214,4.645 -4.645,4.645C-2.077,4.645 0.005,2.567 0.005,0.001C0.005,-2.565 -2.077,-4.645 -4.645,-4.645" style="fill:rgb(14,60,64);fill-rule:nonzero;"/>
        </g>
        <g transform="matrix(0,-1,-1,0,230.217,123.13)">
            <path d="M-1.401,-1.401C-2.175,-1.401 -2.803,-0.774 -2.803,0C-2.803,0.774 -2.175,1.401 -1.401,1.401C-0.627,1.401 0.001,0.774 0.001,0C0.001,-0.774 -0.627,-1.401 -1.401,-1.401" style="fill:rgb(14,60,64);fill-rule:nonzero;"/>
        </g>
    </g>
</svg>
