<?xml version="1.0" encoding="UTF-8" standalone="no"?>
<!DOCTYPE svg PUBLIC "-//W3C//DTD SVG 1.1//EN" "http://www.w3.org/Graphics/SVG/1.1/DTD/svg11.dtd">
<svg width="100%" height="100%" viewBox="0 0 400 192" version="1.1" xmlns="http://www.w3.org/2000/svg" xmlns:xlink="http://www.w3.org/1999/xlink" xml:space="preserve" xmlns:serif="http://www.serif.com/" style="fill-rule:evenodd;clip-rule:evenodd;stroke-linejoin:round;stroke-miterlimit:1.5;">
    <g id="Body">
        <path id="Receiver" d="M292,99L292,74L287.645,72.944L196,73L196,99L218,108L272,99L292,99Z" style="fill:rgb(12,50,50);stroke:rgb(183,36,36);stroke-width:2px;"/>
        <path id="Lower-Receiver" serif:id="Lower Receiver" d="M222,108L263,108L271,99L292,99L292,91L225,91L222,108Z" style="fill:rgb(12,50,50);stroke:rgb(183,36,36);stroke-width:2px;"/>
        <g id="Receiver-Screws" serif:id="Receiver Screws" transform="matrix(1.25,0,0,1.25,-69.125,-23.75)">
            <path d="M276,93C277.104,93 278,93.896 278,95C278,96.104 277.104,97 276,97C274.896,97 274,96.104 274,95C274,93.896 274.896,93 276,93ZM285,93C286.104,93 287,93.896 287,95C287,96.104 286.104,97 285,97C283.896,97 283,96.104 283,95C283,93.896 283.896,93 285,93Z" style="fill:rgb(12,50,50);stroke:rgb(183,36,36);stroke-width:1.6px;"/>
        </g>
        <path id="Safety" d="M250.233,96.013L254,93L260,93L260,94L255,94L251.987,97.767C251.995,97.843 252,97.921 252,98C252,99.104 251.104,100 250,100C248.896,100 248,99.104 248,98C248,96.896 248.896,96 250,96C250.079,96 250.157,96.005 250.233,96.013Z" style="fill:rgb(183,36,36);stroke:rgb(183,36,36);stroke-width:2px;"/>
        <path id="Magazine" d="M199,112L222,115L222,98L199,94L199,112Z" style="fill:rgb(12,50,50);stroke:rgb(183,36,36);stroke-width:2px;"/>
        <path id="Magazine-Well" serif:id="Magazine Well" d="M223,110L228,89L198,89L198,100L223,110Z" style="fill:rgb(12,50,50);stroke:rgb(183,36,36);stroke-width:2px;"/>
        <path id="Magazine-Well-Emboss" serif:id="Magazine Well Emboss" d="M201,94.988C201,94.46 201.209,93.955 201.582,93.582C201.955,93.209 202.46,93 202.988,93C206.828,93 215.226,93 219.043,93C219.562,93 220.06,93.206 220.427,93.573C220.794,93.94 221,94.438 221,94.957C221,96.886 221,99.857 221,102.068C221,102.727 220.673,103.343 220.128,103.712C219.582,104.081 218.889,104.156 218.278,103.911C213.89,102.156 205.426,98.77 202.247,97.499C201.494,97.198 201,96.468 201,95.657C201,95.441 201,95.214 201,94.988Z" style="fill:rgb(12,50,50);stroke:rgb(183,36,36);stroke-width:2px;"/>
        <path id="Bolt-Side" serif:id="Bolt Side" d="M197,88L291,88L291,75L287,74L287,79L197,79L197,88Z" style="fill:rgb(12,50,50);stroke:rgb(183,36,36);stroke-width:2px;"/>
        <rect x="235" y="82" width="53" height="3" style="fill:rgb(183,36,36);stroke:rgb(183,36,36);stroke-width:2px;"/>
        <path id="Bolt-Catch-Divider" serif:id="Bolt Catch Divider" d="M279,79L279,88" style="fill:none;stroke:rgb(183,36,36);stroke-width:2px;"/>
    </g>
    <g id="Stock">
        <path id="Stock1" serif:id="Stock" d="M292,74C292,74 296.983,78.077 300.241,80.743C302.025,82.202 304.259,83 306.565,83C319.75,83 365,83 365,83L365,132L326.013,132C325.214,132 324.447,131.683 323.882,131.118C323.317,130.553 323,129.786 323,128.987C323,126.261 323,122.249 323,119.406C323,117.048 322.164,114.765 320.64,112.965C315.583,107.034 309.365,102.524 301.807,99.648C300.688,99.227 299.502,99.011 298.307,99.011C295.959,99 292,99 292,99L292,74Z" style="fill:rgb(12,50,50);stroke:rgb(183,36,36);stroke-width:2px;"/>
        <path id="Stock-Screws" serif:id="Stock Screws" d="M359,115.5C360.38,115.5 361.5,116.62 361.5,118C361.5,119.38 360.38,120.5 359,120.5C357.62,120.5 356.5,119.38 356.5,118C356.5,116.62 357.62,115.5 359,115.5ZM340,115.5C341.38,115.5 342.5,116.62 342.5,118C342.5,119.38 341.38,120.5 340,120.5C338.62,120.5 337.5,119.38 337.5,118C337.5,116.62 338.62,115.5 340,115.5Z" style="fill:rgb(183,36,36);"/>
        <path id="Butt" d="M365,83C365.66,83.136 368.568,82.043 372.735,80.28C373.759,79.912 374.901,80.132 375.716,80.853C376.53,81.574 376.886,82.681 376.646,83.742C374.17,97.766 375.858,116.835 380.14,133.458C380.446,134.587 380.058,135.791 379.151,136.529C378.243,137.268 376.986,137.403 375.942,136.875C370.006,133.871 365.606,131.786 365,132L365,83Z" style="fill:rgb(12,50,50);stroke:rgb(183,36,36);stroke-width:2px;"/>
        <path id="Chin-Rest" serif:id="Chin Rest" d="M313.998,82.695C313.771,82.081 313.858,81.395 314.232,80.857C314.606,80.32 315.219,80 315.873,80C324.979,80 353.091,80 361.56,80C362.16,80 362.727,80.269 363.107,80.732C363.487,81.195 363.639,81.805 363.522,82.392C362.64,86.801 360.728,96.362 359.403,102.987C358.604,106.981 354.932,109.737 350.875,109.389C343.312,108.741 331.704,107.746 326.16,107.271C324.231,107.106 322.571,105.841 321.898,104.026C319.94,98.737 315.88,87.776 313.998,82.695Z" style="fill:rgb(12,50,50);stroke:rgb(183,36,36);stroke-width:2px;"/>
    </g>
    <g id="Scope">
        <path id="Base" d="M204,52L204,69L214,64L258,64L269,67L269,53L258,56L214,56L204,52Z" style="fill:rgb(12,50,50);stroke:rgb(183,36,36);stroke-width:2px;"/>
        <path id="Front-Lens" serif:id="Front Lens" d="M204,52L188,52L188,51L186,51L186,70L188,70L188,69L204,69L204,52Z" style="fill:rgb(12,50,50);stroke:rgb(183,36,36);stroke-width:2px;"/>
        <rect id="Rear-Lens" serif:id="Rear Lens" x="269" y="53" width="18" height="14" style="fill:rgb(12,50,50);stroke:rgb(183,36,36);stroke-width:2px;"/>
        <path id="Rear-Eye-Cover" serif:id="Rear Eye Cover" d="M305,51L305,69L303,68L288,67L288,53L303,52L305,51Z" style="fill:rgb(12,50,50);stroke:rgb(183,36,36);stroke-width:2px;"/>
        <path id="Lens-Knob" serif:id="Lens Knob" d="M232,51L242,51L242,53L241,54L241,57L233,57L233,54L232,53L232,51Z" style="fill:rgb(12,50,50);stroke:rgb(183,36,36);stroke-width:2px;"/>
        <path id="Side-Module" serif:id="Side Module" d="M223,64L223,67L224,67L224,66L230,66L230,74L233,74L233,64L223,64ZM265,64L265,67L264,67L264,66L258,66L258,74L255,74L255,64L265,64ZM234,61L234,72L254,72L254,61L234,61Z" style="fill:rgb(12,50,50);stroke:rgb(183,36,36);stroke-width:2px;"/>
        <path id="Lens-Screw" serif:id="Lens Screw" d="M249,64C250.38,64 251.5,65.12 251.5,66.5C251.5,67.88 250.38,69 249,69C247.62,69 246.5,67.88 246.5,66.5C246.5,65.12 247.62,64 249,64ZM239.5,65C240.328,65 241,65.672 241,66.5C241,67.328 240.328,68 239.5,68C238.672,68 238,67.328 238,66.5C238,65.672 238.672,65 239.5,65Z" style="fill:rgb(183,36,36);stroke:rgb(183,36,36);stroke-width:2px;"/>
        <rect x="235.5" y="62.5" width="8" height="8" style="fill:none;stroke:rgb(183,36,36);stroke-width:2px;"/>
    </g>
    <g id="Grip">
        <path id="Trigger" d="M242.841,113.178L246.742,113.95L246.941,117.732L243,119C243.572,117.038 243.488,114.962 242.841,113.178ZM243.7,111.76C243.776,112.158 243.884,112.576 244,113C243.978,112.573 243.857,112.157 243.7,111.76C243.431,110.365 243.546,109.228 245,109L243,109C242.47,109.602 243.239,110.597 243.7,111.76Z" style="fill:rgb(183,36,36);stroke:rgb(183,36,36);stroke-width:2px;"/>
        <path id="Trigger-Guard" serif:id="Trigger Guard" d="M255,117C255,117 251.04,120.3 249.554,121.538C249.196,121.837 248.745,122 248.279,122C245.415,122 235,122 235,122C230.884,118.493 229.963,113.908 230,109L252,109L255,117Z" style="fill:none;stroke:rgb(183,36,36);stroke-width:2px;"/>
        <path id="Grip1" serif:id="Grip" d="M275,99C275,102.047 268.072,103.667 268,110C267.962,113.37 273.337,114.825 276,118C279.915,122.668 279.56,129.44 282,132L262,135C262.394,132.821 262.012,130.529 260,128C259.514,125.552 258.492,123.918 257,123C256.774,120.043 254.635,119.242 252,119C252,119 253.482,118.012 254.362,117.425C254.737,117.176 254.892,116.703 254.738,116.28C254.076,114.458 252.325,109.644 251.476,107.308C251.367,107.009 251.411,106.676 251.593,106.416C251.776,106.155 252.074,106 252.392,106C254.527,106 258.582,106 260.676,106C261.479,106 262.205,105.521 262.522,104.783C262.852,104.013 263.293,102.982 263.713,102.004C264.494,100.182 266.286,99 268.268,99C270.496,99 273.333,99 275,99Z" style="fill:rgb(12,50,50);stroke:rgb(183,36,36);stroke-width:2px;"/>
        <path id="Grip-Trim" serif:id="Grip Trim" d="M267,115C263.303,115.088 257.637,116.034 254,118L254,119C255.441,116.863 261.029,115.318 267,115Z" style="fill:none;stroke:rgb(183,36,36);stroke-width:2px;"/>
        <g id="Grip-Screw" serif:id="Grip Screw" transform="matrix(1,0,0,1,-9,-21)">
            <circle cx="275" cy="141" r="2" style="fill:rgb(183,36,36);"/>
        </g>
        <path id="Grip-Counterweight" serif:id="Grip Counterweight" d="M263,135C268.913,132.002 275.009,131.784 280,132C283.876,132.168 289.553,132.62 292,134C296.257,136.401 297.14,140.574 296,142C290.097,149.382 271.798,149.788 263,147C258.379,145.535 258.594,137.234 263,135Z" style="fill:rgb(12,50,50);stroke:rgb(183,36,36);stroke-width:2px;"/>
        <g id="Grip-Counterweight-Screw" serif:id="Grip Counterweight Screw" transform="matrix(1.25,0,0,1.25,-68.75,-35.25)">
            <circle cx="275" cy="141" r="2" style="fill:rgb(183,36,36);"/>
        </g>
    </g>
    <g id="Barrel">
        <g id="Barrel1" serif:id="Barrel" transform="matrix(0.910474,0,0,0.921344,-2.35817,6.40254)">
            <path d="M119.391,80.966L24.545,80.966C23.338,80.966 22.36,81.933 22.36,83.125C22.36,84.746 22.36,86.955 22.36,88.575C22.36,89.768 23.338,90.734 24.545,90.734C38.89,90.734 119.013,90.734 119.013,90.734L119.391,80.966Z" style="fill:rgb(12,50,50);"/>
            <path d="M119.391,80.966L24.545,80.966C23.338,80.966 22.36,81.933 22.36,83.125C22.36,84.746 22.36,86.955 22.36,88.575C22.36,89.768 23.338,90.734 24.545,90.734C38.89,90.734 119.013,90.734 119.013,90.734L119.391,80.966ZM24.557,83.137L117.109,83.137L116.899,88.564L24.557,88.564L24.557,83.137Z" style="fill:rgb(183,36,36);"/>
        </g>
        <path id="Handguard" d="M99.996,91.348C99.754,92.234 99.929,93.182 100.472,93.923C101.014,94.664 101.865,95.118 102.782,95.156C120.68,95.894 196,99 196,99L196,73L106.504,73C105.616,73 104.838,73.594 104.604,74.451C103.677,77.851 101.341,86.416 99.996,91.348Z" style="fill:rgb(12,50,50);stroke:rgb(183,36,36);stroke-width:2px;"/>
        <path id="Handguard-Screws" serif:id="Handguard Screws" d="M192,94L193,99L191,99L192,94ZM174,93L175,98L173,98L174,93ZM161,88L162,97L160,97L161,88ZM135,88L136,96L134,96L135,88ZM108,88L109,95L107,95L108,88Z" style="fill:rgb(183,36,36);stroke:rgb(183,36,36);stroke-width:2px;"/>
        <path id="Bolt-Slide" serif:id="Bolt Slide" d="M131,70L140,70L140,75L129,75L131,70Z" style="fill:rgb(12,50,50);stroke:rgb(183,36,36);stroke-width:2px;"/>
    </g>
</svg>
