<?xml version="1.0" encoding="UTF-8" standalone="no"?>
<!DOCTYPE svg PUBLIC "-//W3C//DTD SVG 1.1//EN" "http://www.w3.org/Graphics/SVG/1.1/DTD/svg11.dtd">
<svg width="100%" height="100%" viewBox="0 0 1200 800" version="1.1" xmlns="http://www.w3.org/2000/svg" xmlns:xlink="http://www.w3.org/1999/xlink" xml:space="preserve" xmlns:serif="http://www.serif.com/" style="fill-rule:evenodd;clip-rule:evenodd;stroke-linecap:round;stroke-linejoin:round;stroke-miterlimit:1.5;">
    <g id="Rope">
        <g id="Left">
            <path d="M187.5,258.333C86.262,225.341 45.039,319.566 100,366.667L187.5,258.333Z" style="fill:rgb(12,50,50);stroke:rgb(183,36,36);stroke-width:16.67px;"/>
            <path d="M512.5,270.833C388.699,209.808 255.86,133.765 109.002,297.238C98.235,309.186 91.155,323.996 88.619,339.878C84.652,365.045 87.273,391.439 95.241,418.827C95.609,420.087 96.549,421.099 97.779,421.559C234.99,472.891 504.413,570.729 508.9,333.333C515.734,311.314 516.305,290.613 512.5,270.833Z" style="fill:rgb(12,50,50);stroke:rgb(183,36,36);stroke-width:16.67px;"/>
            <path d="M241.667,275C304.324,235.903 429.019,285.99 500,329.167" style="fill:none;stroke:rgb(183,36,36);stroke-width:16.67px;"/>
            <path d="M500,541.667C415.291,568.611 395.302,641.597 250,641.667C147.048,641.716 86.028,602.171 87.5,529.167C95.892,448.91 201.944,470.84 300,470.833L520.833,462.5L500,541.667Z" style="fill:rgb(12,50,50);stroke:rgb(183,36,36);stroke-width:16.67px;"/>
            <path d="M520.833,354.167C492.297,321.498 465.972,308.68 375,325C331.075,332.88 281.926,304.525 245.833,308.333C116.606,321.969 105.559,410.869 91.667,470.833L516.667,404.167L520.833,354.167Z" style="fill:rgb(12,50,50);stroke:rgb(183,36,36);stroke-width:16.67px;"/>
            <path d="M504.167,466.667C437.846,528.76 368.486,606.304 250,608.333C181.629,609.505 87.884,514.351 87.5,470.833C87.3,448.192 141.208,396.555 195.833,375C256.368,351.113 320.635,359.124 375,375C410.004,385.222 431.752,334.292 525,375L504.167,466.667Z" style="fill:rgb(12,50,50);stroke:rgb(183,36,36);stroke-width:16.67px;"/>
            <path d="M516.667,445.833C469.664,426.356 418.312,410.426 350,408.333C210.42,411.511 197.779,450.664 191.667,491.667C186.94,541.332 214.032,560.183 262.5,558.333C284.075,557.51 329.88,544.329 370.833,520.833C426.028,489.167 479.215,444.986 516.667,445.833Z" style="fill:rgb(12,50,50);stroke:rgb(183,36,36);stroke-width:16.67px;"/>
            <path d="M454.167,466.667C412.109,455.062 362.777,450.339 300,458.333C253.429,465.609 246.668,477.557 241.667,500C238.224,515.447 307.403,509.82 350,508.333C361.639,507.895 369.885,510.849 375.269,516.667" style="fill:none;stroke:rgb(183,36,36);stroke-width:16.67px;"/>
        </g>
        <g id="Right">
            <path d="M879.167,662.5C824.353,672.453 831.404,745.645 875,741.667C1066.49,724.194 1087.11,662.421 1075,520.833L1004,520.833C1046.02,674.945 975.027,645.093 879.167,662.5Z" style="fill:rgb(12,50,50);stroke:rgb(183,36,36);stroke-width:16.67px;"/>
            <path d="M791.667,533.333C869.339,427.365 982.658,376.698 1116.67,366.667C1158.91,542.599 985.888,631.714 791.667,533.333Z" style="fill:rgb(12,50,50);stroke:rgb(183,36,36);stroke-width:16.67px;"/>
            <path d="M1108.33,325C1151.32,471.62 983.792,606.664 616.667,537.5L608.333,462.5L1108.33,325Z" style="fill:rgb(12,50,50);stroke:rgb(183,36,36);stroke-width:16.67px;"/>
            <path d="M616.667,491.667C863.827,515.85 1026.79,482.928 1079.17,375L733.333,395.833L616.667,491.667Z" style="fill:rgb(12,50,50);stroke:rgb(183,36,36);stroke-width:16.67px;"/>
            <path d="M1108.33,308.333C1108.33,230.344 1028.17,187.5 895.833,187.5C725.411,187.513 663.818,256.057 545.833,266.667L587.5,362.5C665.674,285.186 772.085,275 883.333,275C938.859,275 935.785,250.032 991.667,245.833C1029.87,242.963 1041.67,276.945 1041.67,308.333" style="fill:rgb(12,50,50);stroke:rgb(183,36,36);stroke-width:16.67px;"/>
            <path d="M608.333,437.5C617.27,396.913 672.351,387.078 800,404.167C994.194,417.384 1060.03,363.054 1029.17,275C1008.21,215.188 924.93,262.5 883.333,262.5C841.723,262.5 690.842,280.908 587.5,341.667L608.333,437.5Z" style="fill:rgb(12,50,50);stroke:rgb(183,36,36);stroke-width:16.67px;"/>
            <path d="M954.167,308.333C1010.53,294.814 998.722,344.166 983.333,407.446L604.167,437.5C602.262,395.812 604.606,357.726 650,354.167C802.67,342.195 845.137,309.857 954.167,308.333Z" style="fill:rgb(12,50,50);stroke:rgb(183,36,36);stroke-width:16.67px;"/>
            <path d="M1041.67,308.333C1041.67,373.082 900.968,430.182 676.287,393.987C661.238,391.524 645.799,393.421 631.794,399.453C607.188,410.142 596.274,428.76 612.5,445.833C725.978,464.717 842.064,464.2 979.167,458.333C1043.72,455.571 1105.92,350.028 1108.33,305.961" style="fill:rgb(12,50,50);stroke:rgb(183,36,36);stroke-width:16.67px;"/>
        </g>
        <g id="Center">
            <path d="M604.167,570.833C575.57,592.553 543.649,602.358 508.333,600L520.833,341.667L558.333,316.667L604.167,570.833Z" style="fill:rgb(12,50,50);stroke:rgb(183,36,36);stroke-width:16.67px;"/>
            <path d="M508.333,262.5C569.924,347.078 540.544,495.181 533.333,587.5C531.903,605.817 507.933,611.602 477.78,612.565C472.359,612.781 467.172,610.343 463.88,606.03C460.588,601.717 459.604,596.07 461.243,590.898C503.49,456.763 504.984,355.106 508.333,262.5Z" style="fill:rgb(12,50,50);stroke:rgb(183,36,36);stroke-width:16.67px;"/>
            <path d="M510.788,260.25C506.624,251.142 509.53,240.359 517.708,234.578C532.19,224.125 544.458,220.539 554.167,225C590.187,317.467 651.647,409.396 641.667,550C638.625,566.221 623.142,580.11 592.967,591.243C590.167,592.293 587.02,591.759 584.723,589.846C582.426,587.932 581.333,584.933 581.859,581.99C601.235,469.628 558.91,365.462 510.788,260.25Z" style="fill:rgb(12,50,50);stroke:rgb(183,36,36);stroke-width:16.67px;"/>
        </g>
    </g>
</svg>
