<?xml version="1.0" encoding="UTF-8" standalone="no"?>
<!DOCTYPE svg PUBLIC "-//W3C//DTD SVG 1.1//EN" "http://www.w3.org/Graphics/SVG/1.1/DTD/svg11.dtd">
<svg width="100%" height="100%" viewBox="0 0 288 192" version="1.1" xmlns="http://www.w3.org/2000/svg" xmlns:xlink="http://www.w3.org/1999/xlink" xml:space="preserve" xmlns:serif="http://www.serif.com/" style="fill-rule:evenodd;clip-rule:evenodd;stroke-linejoin:round;stroke-miterlimit:2;">
    <g id="Layer-2" serif:id="Layer 2">
        <g transform="matrix(1,0,0,1,181.482,104.294)">
            <path d="M0,-16.588L0,-8.495C0,-7.562 0.371,-6.667 1.032,-6.007C1.661,-5.379 2.514,-5.026 3.403,-5.026L26.189,-5.026C29.437,-5.026 32.233,-9.028 32.233,-11.562C32.233,-15.728 30.073,-18.096 28.204,-18.096L1.511,-18.096C0.676,-18.096 0,-17.421 0,-16.588M-64.972,-47.251L-59.935,-47.251L-59.935,-53.786C-59.935,-54.619 -59.258,-55.294 -58.424,-55.294L-52.452,-55.294C-51.116,-55.294 -49.835,-54.764 -48.891,-53.822L-46.301,-51.237C-45.356,-50.294 -44.075,-49.765 -42.739,-49.765L52.869,-49.765C53.863,-49.765 54.836,-50.058 55.663,-50.609L59.418,-53.108C60.088,-53.553 60.855,-53.832 61.656,-53.921L72.799,-55.157C73.518,-55.236 74.192,-54.796 74.408,-54.108L76.341,-47.936C76.482,-47.482 76.551,-47.009 76.566,-46.534C76.783,-39.633 80.108,-33.667 84.613,-30.663C85.907,-29.8 85.729,-21.636 84.613,-20.609C82.022,-18.225 70.511,-16.62 70.511,-12.567C70.511,-7.039 84.115,9.424 84.6,37.184C84.614,38.022 83.929,38.706 83.089,38.706L45.806,38.706C44.987,38.706 44.317,38.059 44.296,37.243C44.128,31.074 42.856,7.188 33.191,0.481C32.763,0.183 32.427,2.514 24.559,2.514L8.058,2.514L8.058,15.08C8.058,15.913 7.382,16.589 6.547,16.589L-4.029,16.589L-4.029,18.599L-16.117,18.599L-16.129,16.547L-56.408,16.587C-57.243,16.588 -57.92,15.912 -57.92,15.079L-57.926,-28.216L-64.959,-28.162C-65.799,-28.155 -66.482,-28.832 -66.482,-29.67L-66.482,-45.743C-66.482,-46.576 -65.806,-47.251 -64.972,-47.251" style="fill:rgb(213,36,36);fill-rule:nonzero;"/>
        </g>
        <g transform="matrix(0.907638,0.419754,0.419754,-0.907638,195.292,96.18)">
            <path d="M3.179,-1.377C9.293,1.45 10.019,7.83 6.836,14.713L3.179,13.021C6.81,5.169 3.491,1.619 2.546,-0.009C2.158,-0.68 2.818,-1.544 3.179,-1.377" style="fill:rgb(213,36,36);fill-rule:nonzero;"/>
        </g>
        <g transform="matrix(1,0,0,1,257.533,72.123)">
            <path d="M0,-15.583C4.93,-12.936 4.426,-3.757 6.044,0L0,0L0,-15.583Z" style="fill:rgb(213,36,36);fill-rule:nonzero;"/>
        </g>
        <g transform="matrix(0,1,1,0,261.896,59.2349)">
            <path d="M4.645,-4.646C7.206,-4.646 9.282,-2.566 9.282,0C9.282,2.565 7.206,4.645 4.645,4.645C2.084,4.645 0.009,2.565 0.009,0C0.009,-2.566 2.084,-4.646 4.645,-4.646" style="fill:rgb(213,36,36);fill-rule:nonzero;"/>
        </g>
        <g transform="matrix(1,0,0,1,123.562,106.305)">
            <path d="M0,-17.091L3.174,-17.091L3.174,0L0,0C-0.278,0 -0.503,-0.225 -0.503,-0.503L-0.503,-16.588C-0.503,-16.866 -0.278,-17.091 0,-17.091" style="fill:rgb(213,36,36);fill-rule:nonzero;"/>
        </g>
    </g>
    <g id="Layer-3" serif:id="Layer 3">
        <g transform="matrix(1,0,0,1,119.029,72.123)">
            <path d="M0,-11.059L2.015,-11.059C2.292,-11.059 2.518,-10.834 2.518,-10.556L2.518,-0.503C2.518,-0.225 2.292,0 2.015,0L0,0C-0.278,0 -0.504,-0.225 -0.504,-0.503L-0.504,-10.556C-0.504,-10.834 -0.278,-11.059 0,-11.059" style="fill:rgb(12,50,50);fill-rule:nonzero;"/>
        </g>
        <g transform="matrix(1,0,0,1,125.073,55.0329)">
            <path d="M0,-1.509L0,-0.001C0,0.554 0.451,1.005 1.007,1.005L6.687,1.005C7.073,1.005 7.316,0.588 7.124,0.252L5.975,-1.755C5.706,-2.224 5.206,-2.514 4.663,-2.514L1.007,-2.514C0.451,-2.514 0,-2.064 0,-1.509" style="fill:rgb(12,50,50);fill-rule:nonzero;"/>
        </g>
        <g transform="matrix(1,0,0,1,125.073,66.092)">
            <path d="M0,-5.028L0,-0.001C0,0.277 0.225,0.502 0.503,0.502L78.569,0.502C78.848,0.502 79.073,0.277 79.073,-0.001L79.073,-5.028C79.073,-5.305 78.848,-5.53 78.569,-5.53L0.503,-5.53C0.225,-5.53 0,-5.305 0,-5.028" style="fill:rgb(12,50,50);fill-rule:nonzero;"/>
        </g>
        <g transform="matrix(1,0,0,1,205.301,69.4628)">
            <path d="M0,0.294L-0.859,-0.564C-1.048,-0.753 -1.305,-0.858 -1.571,-0.858L-75.695,-0.858C-76.012,-0.858 -76.311,-0.709 -76.5,-0.456L-77.105,0.348C-77.354,0.679 -77.117,1.152 -76.702,1.152L-0.355,1.152C0.093,1.152 0.317,0.611 0,0.294" style="fill:rgb(12,50,50);fill-rule:nonzero;"/>
        </g>
        <g transform="matrix(1,0,0,1,205.698,70.6143)">
            <path d="M0,-12.566L17.396,-12.566C17.814,-12.566 18.188,-12.309 18.338,-11.919L21.79,-2.875C22.008,-2.303 22.12,-1.696 22.12,-1.085L22.12,-0.502C22.12,-0.224 21.895,0 21.616,0L5.051,0C4.69,0 4.342,-0.128 4.067,-0.362L1.494,-2.564C1.159,-2.851 0.967,-3.269 0.967,-3.709L0.967,-9.171C0.967,-9.742 0.771,-10.295 0.415,-10.741L-0.394,-11.75C-0.657,-12.079 -0.423,-12.566 0,-12.566" style="fill:rgb(12,50,50);fill-rule:nonzero;"/>
        </g>
        <g transform="matrix(1,0,0,1,126.081,102.786)">
            <path d="M0,-10.054L4.029,-10.054C4.585,-10.054 5.036,-9.604 5.036,-9.049L5.036,-1.006C5.036,-0.45 4.585,0 4.029,0L0,0C-0.557,0 -1.007,-0.45 -1.007,-1.006L-1.007,-9.049C-1.007,-9.604 -0.557,-10.054 0,-10.054" style="fill:rgb(12,50,50);fill-rule:nonzero;"/>
        </g>
        <g transform="matrix(1,0,0,1,233.358,137.972)">
            <path d="M0,1.509L0,0.001C0,-0.554 0.451,-1.005 1.007,-1.005L20.699,-1.005C21.603,-1.005 22.437,-0.521 22.886,0.262L23.744,1.762C23.937,2.097 23.694,2.514 23.308,2.514L1.007,2.514C0.451,2.514 0,2.064 0,1.509" style="fill:rgb(12,50,50);fill-rule:nonzero;"/>
        </g>
        <g transform="matrix(1,0,0,1,261.562,72.6253)">
            <path d="M0,67.861C-1.007,67.861 -3.996,63.806 -3.525,63.338C-2.166,61.981 -1.007,61.092 -1.007,58.31C-1.007,53.629 -14.444,14.075 -22.16,14.075C-24.985,14.075 -27.193,17.594 -28.204,17.594C-29.48,17.594 -33.768,5.564 -33.282,5.697C-27.807,7.201 -21.595,12.567 -18.635,12.567C-16.036,12.567 -14.954,9.551 -14.605,9.551C-13.671,9.551 -13.71,12.065 -12.339,12.065C-11.74,12.065 0,9.849 0,6.535C0,4.689 -3.525,2.25 -3.525,1.508C-3.525,1.028 -2.003,0 -1.511,0C-1.006,0 2.015,2.952 2.015,6.535C2.015,13.523 -12.33,8.657 -12.33,19.38C-12.33,24.828 2.015,49.336 2.015,65.348C2.015,66.153 1.31,67.861 0,67.861" style="fill:rgb(12,50,50);fill-rule:nonzero;"/>
        </g>
        <g transform="matrix(1,0,0,1,218.724,131.105)">
            <path d="M0,-47.085C-0.231,-47.739 0.254,-48.425 0.949,-48.425L4.562,-48.425C5.756,-48.425 9.778,-36.361 13.124,-36.361C14.738,-36.361 19.419,-42.393 21.182,-42.393C23.944,-42.393 39.313,-9.538 39.313,1.34L17.152,1.34L0,-47.085Z" style="fill:rgb(12,50,50);fill-rule:nonzero;"/>
        </g>
        <g transform="matrix(1,0,0,1,229.115,82.8837)">
            <path d="M0,56.71C-0.219,57.218 0.443,57.646 0.828,57.249C2.474,55.557 4.596,52.082 4.243,51.068C1.693,43.749 -8.729,13.116 -14.393,-0.205C-14.703,-0.936 -18.009,0.272 -17.414,0.801C-7.338,9.757 -17.166,17.695 -21.195,19.829C-22.085,20.3 -15.816,20.571 -15.5,20.273C-7.695,12.924 -0.305,46.811 0.214,51.068C0.609,54.321 0.355,55.883 0,56.71" style="fill:rgb(12,50,50);fill-rule:nonzero;"/>
        </g>
        <g transform="matrix(1,0,0,1,198.102,76.4462)">
            <path d="M0,-0.101L0,0C0,0.944 0.767,1.709 1.713,1.709L22.463,1.709C23.408,1.709 24.176,0.944 24.176,0L24.176,-0.101C24.176,-1.045 23.408,-1.81 22.463,-1.81L1.713,-1.81C0.767,-1.81 0,-1.045 0,-0.101" style="fill:rgb(12,50,50);fill-rule:nonzero;"/>
        </g>
        <g transform="matrix(1,0,0,1,183.497,100.65)">
            <path d="M0,17.719L-3.994,17.719C-4.662,17.719 -5.303,17.454 -5.774,16.983L-5.811,16.947C-6.282,16.476 -6.923,16.211 -7.591,16.211L-15.613,16.211C-16.17,16.211 -16.621,15.761 -16.621,15.205L-16.621,3.697C-16.621,3.424 -16.402,3.176 -16.13,3.195C-12.495,3.44 -10.756,2.703 -9.367,0.372C-9.195,0.085 -8.825,0 -8.575,0.223C-6.834,1.764 -1.639,3.379 0.282,3.941C0.712,4.066 1.007,4.458 1.007,4.906L1.007,16.713C1.007,17.269 0.556,17.719 0,17.719" style="fill:rgb(12,50,50);fill-rule:nonzero;"/>
        </g>
        <g transform="matrix(0.780313,0.625389,0.625389,-0.780313,242.583,80.9979)">
            <path d="M2.028,2.048C-3.977,2.71 -11.147,-0.781 -11.46,0.371C-11.66,1.101 1.042,11.211 2.028,11.711C3.155,12.281 4.579,12.055 4.858,11.401C6.32,7.9 1.69,7.253 2.028,2.048" style="fill:rgb(12,50,50);fill-rule:nonzero;"/>
        </g>
        <g transform="matrix(1,0,0,1,223.789,74.0556)">
            <path d="M0,5.105C0,5.638 1.078,6.925 1.511,6.613C2.044,6.229 4.491,1.137 4.029,-0.927C3.829,-1.82 0.503,-1.607 0.503,0.078C0.503,0.807 2.031,1.621 2.031,2.562C2.031,3.228 0,4.293 0,5.105" style="fill:rgb(12,50,50);fill-rule:nonzero;"/>
        </g>
        <g transform="matrix(-0.55401,0.83251,0.83251,0.55401,243.382,76.2805)">
            <path d="M6.137,-10.376C6.203,-10.81 6.998,-11.454 7.115,-10.936C7.4,-9.668 6.503,-0.038 6.137,2.328C6.051,2.884 4.164,4.01 4.184,3.448C4.354,-1.344 5.741,-7.773 6.137,-10.376" style="fill:rgb(12,50,50);fill-rule:nonzero;"/>
        </g>
        <g transform="matrix(1,0,0,1,247.46,78.3693)">
            <path d="M0,3.807C0.722,4.372 2.68,3.153 3.526,2.802C6.189,1.698 10.008,2.412 11.081,1.294C11.255,1.112 11.235,0.487 11.081,0.288C10.413,-0.565 3.971,0.782 3.526,1.294C2.665,2.286 0.667,2.54 0,3.305C-0.082,3.399 -0.099,3.73 0,3.807" style="fill:rgb(12,50,50);fill-rule:nonzero;"/>
        </g>
        <g transform="matrix(1,0,0,1,193.066,74.1331)">
            <path d="M0,5.53C0,6.535 -1.512,6.535 -1.512,6.535L-20.146,6.535C-21.619,5.065 -25.183,0.583 -25.183,0.001C-25.183,-1.005 -24.176,-1.005 -24.176,-1.005L-1.512,-1.005C-1.512,-1.005 -0.504,-1.005 -0.504,0.001C-0.504,0.754 -1.512,0.767 -1.512,2.011C-1.512,3.63 0,4.637 0,5.53" style="fill:rgb(12,50,50);fill-rule:nonzero;"/>
        </g>
        <g transform="matrix(1,0,0,1,127.087,83.6839)">
            <path d="M0,-6.534L0,0.001C0,0.834 0.677,1.508 1.511,1.508L19.894,1.508C21.335,0.4 21.267,-1.407 22.264,-3.242C22.698,-4.041 23.551,-4.523 24.461,-4.523L36.04,-4.523C36.541,-4.523 37.031,-4.376 37.446,-4.096C37.953,-3.752 38.49,-3.363 38.948,-3.145C39.14,-3.055 39.352,-3.015 39.565,-3.015L41.531,-3.015C41.901,-3.015 42.151,-3.403 41.986,-3.734C41.375,-4.96 40.414,-6.323 39.718,-7.371C39.439,-7.792 38.967,-8.042 38.461,-8.042L1.511,-8.042C0.677,-8.042 0,-7.367 0,-6.534" style="fill:rgb(12,50,50);fill-rule:nonzero;"/>
        </g>
        <g transform="matrix(1,0,0,1,242.797,51.5374)">
            <path d="M0,3.05L8.92,-0.53C9.714,-0.947 10.693,-0.586 11.026,0.244L11.438,3.308C11.57,3.638 11.327,3.997 10.971,3.997L0.234,3.997C-0.291,3.997 -0.465,3.294 0,3.05" style="fill:rgb(12,50,50);fill-rule:nonzero;"/>
        </g>
        <g transform="matrix(-0.860727,0.509067,0.509067,0.860727,261.52,66.6423)">
            <path d="M2.681,-9.234C2.737,-9.794 0.777,-11.014 0.791,-10.452C0.883,-6.813 2.22,0.87 2.681,1.648C2.913,2.041 4.622,2.399 4.481,1.965C3.635,-0.609 2.408,-6.499 2.681,-9.234" style="fill:rgb(12,50,50);fill-rule:nonzero;"/>
        </g>
        <g transform="matrix(0,1,1,0,261.895,61.8654)">
            <path d="M2.015,-2.015C3.125,-2.015 4.025,-1.114 4.025,0C4.025,1.113 3.125,2.015 2.015,2.015C0.904,2.015 0.004,1.113 0.004,0C0.004,-1.114 0.904,-2.015 2.015,-2.015" style="fill:rgb(12,50,50);fill-rule:nonzero;"/>
        </g>
        <g transform="matrix(1,0,0,1,129.102,80.5691)">
            <path d="M0,37.8L34.249,37.8C35.083,37.8 35.759,37.124 35.759,36.292L35.759,22.72C35.759,21.887 36.436,21.211 37.27,21.211C37.27,21.211 40.896,21.363 41.299,21.211C45.329,19.703 45.316,3.902 41.299,2.612C40.65,2.404 38.109,2.275 36.935,2.225C36.537,2.208 36.15,2.097 35.802,1.901L34.894,1.387C34.471,1.008 33.933,0.783 33.366,0.749C33.366,0.749 24.076,0 22.665,0.099C22.288,0.126 22.293,1.537 22.665,1.607C23.739,1.809 33.546,2.079 33.546,2.079C34.005,2.099 34.451,2.245 34.833,2.499L35.311,2.817C35.591,3.003 35.759,3.317 35.759,3.654L35.759,4.623C35.759,5.178 35.308,5.629 34.752,5.629L21.276,5.629C20.875,5.629 20.491,5.788 20.208,6.071L19.582,6.695C19.298,6.978 18.914,7.137 18.513,7.137L2.849,7.137C2.293,7.137 1.74,7.091 1.192,7L-0.421,6.732C-0.728,6.68 -1.007,6.917 -1.007,7.227C-1.007,7.461 -0.83,7.657 -0.597,7.68L0.854,7.825C2.657,8.005 4.029,9.519 4.029,11.326L4.029,23.222C4.029,24.055 3.353,24.731 2.519,24.731L0,24.731C-0.834,24.731 -1.511,25.405 -1.511,26.238L-1.511,36.292C-1.511,37.124 -0.834,37.8 0,37.8" style="fill:rgb(12,50,50);fill-rule:nonzero;"/>
        </g>
        <g transform="matrix(1,0,0,1,168.136,120.38)">
            <path d="M0,-1.508L6.547,-1.508C6.964,-1.508 7.303,-1.171 7.303,-0.754C7.303,-0.338 6.964,0 6.547,0L0,0C-0.418,0 -0.756,-0.338 -0.756,-0.754C-0.756,-1.171 -0.418,-1.508 0,-1.508" style="fill:rgb(12,50,50);fill-rule:nonzero;"/>
        </g>
        <g transform="matrix(1,0,0,1,187.353,103.94)">
            <path d="M0,-0.292C2.423,-1.004 15.342,-1.146 19.858,-1.14C20.016,-1.139 20.068,-0.93 19.93,-0.855C18.273,0.034 10.878,0.854 8.936,0.825C7.417,0.854 1.634,0.521 -0.002,-0.006C-0.142,-0.051 -0.14,-0.251 0,-0.292" style="fill:rgb(12,50,50);fill-rule:nonzero;"/>
        </g>
        <g transform="matrix(1,0,0,1,175.439,84.5517)">
            <path d="M0,13.71C-0.107,14.829 3.604,16.216 4.029,15.721C4.521,15.149 2.65,13.15 2.543,12.202C2.333,10.35 2.107,2.402 2.506,0.641C2.748,-0.43 4.725,-0.919 4.029,-1.873C3.566,-2.506 -2.813,-0.971 -1.511,-0.365C1.171,0.885 0.252,11.087 0,13.71" style="fill:rgb(12,50,50);fill-rule:nonzero;"/>
        </g>
        <g transform="matrix(1,0,0,1,125.26,76.491)">
            <path d="M0,-5.243L0.167,-5.576C0.264,-5.771 0.422,-5.929 0.617,-6.026L1.111,-6.273C1.251,-6.343 1.406,-6.379 1.562,-6.379L2.026,-6.379C2.226,-6.379 2.42,-6.437 2.585,-6.548L2.728,-6.642C2.966,-6.801 3.174,-6.998 3.346,-7.226L3.416,-7.319L3.748,-5.876L2.332,-5.876C2.053,-5.876 1.828,-5.651 1.828,-5.373L1.828,-1.352C1.828,-1.075 2.053,-0.849 2.332,-0.849L3.884,-0.849L1.828,2.076L1.828,1.373C1.828,1.215 1.813,1.058 1.784,0.903L1.705,0.49C1.672,0.319 1.608,0.158 1.538,-0.001C1.397,-0.319 1.324,-0.664 1.324,-1.014L1.324,-2.857C1.324,-3.133 1.101,-3.358 0.824,-3.359L0.677,-3.36C0.462,-3.362 0.271,-3.5 0.203,-3.704L-0.055,-4.476C-0.139,-4.729 -0.12,-5.005 0,-5.243" style="fill:rgb(12,50,50);fill-rule:nonzero;"/>
        </g>
        <g transform="matrix(-0.0378277,0.999284,0.999284,0.0378277,238.706,48.2452)">
            <path d="M10.149,-10.94C11.422,-2.651 11.515,5.397 11.191,13.023C11.168,13.578 10.703,14.01 10.149,13.989C9.625,13.969 9.214,13.536 9.224,13.012C9.463,0.197 9.494,-15.196 10.149,-10.94" style="fill:rgb(12,50,50);fill-rule:nonzero;"/>
        </g>
    </g>
    <g id="Layer-4" serif:id="Layer 4">
        <g transform="matrix(0,1,1,0,153.782,86.6635)">
            <path d="M9.588,-9.589C14.873,-9.589 19.158,-5.297 19.158,-0.001C19.158,5.295 14.873,9.588 9.588,9.588C4.303,9.588 0.019,5.295 0.019,-0.001C0.019,-5.297 4.303,-9.589 9.588,-9.589" style="fill:rgb(213,36,36);fill-rule:nonzero;"/>
        </g>
        <g transform="matrix(0,-1,-1,0,153.781,92.474)">
            <path d="M-3.777,-3.778C-5.859,-3.778 -7.548,-2.087 -7.548,-0.001C-7.548,2.085 -5.859,3.777 -3.777,3.777C-1.695,3.777 -0.007,2.085 -0.007,-0.001C-0.007,-2.087 -1.695,-3.778 -3.777,-3.778" style="fill:rgb(12,50,50);fill-rule:nonzero;"/>
        </g>
        <g transform="matrix(1,0,0,1,148.04,95.5471)">
            <path d="M0,1.409L-1.166,1.409C-1.554,1.409 -1.87,1.092 -1.87,0.704C-1.87,0.317 -1.554,0 -1.166,0L0,0C0.388,0 0.705,0.317 0.705,0.704C0.705,1.092 0.388,1.409 0,1.409" style="fill:rgb(12,50,50);fill-rule:nonzero;"/>
        </g>
        <g transform="matrix(1,0,0,1,160.689,95.5471)">
            <path d="M0,1.409L-1.166,1.409C-1.554,1.409 -1.871,1.092 -1.871,0.704C-1.871,0.317 -1.554,0 -1.166,0L0,0C0.388,0 0.704,0.317 0.704,0.704C0.704,1.092 0.388,1.409 0,1.409" style="fill:rgb(12,50,50);fill-rule:nonzero;"/>
        </g>
        <g transform="matrix(1,0,0,1,153.075,101.984)">
            <path d="M0,1.16L0,-0.001C0,-0.389 0.317,-0.705 0.705,-0.705L0.707,-0.705C1.095,-0.705 1.412,-0.389 1.412,-0.001L1.412,1.16C1.412,1.548 1.095,1.865 0.707,1.865L0.705,1.865C0.317,1.865 0,1.548 0,1.16" style="fill:rgb(12,50,50);fill-rule:nonzero;"/>
        </g>
        <g transform="matrix(1,0,0,1,153.075,89.359)">
            <path d="M0,1.161L0,0C0,-0.387 0.317,-0.705 0.705,-0.705L0.707,-0.705C1.095,-0.705 1.412,-0.387 1.412,0L1.412,1.161C1.412,1.549 1.095,1.866 0.707,1.866L0.705,1.866C0.317,1.866 0,1.549 0,1.161" style="fill:rgb(12,50,50);fill-rule:nonzero;"/>
        </g>
        <g transform="matrix(1,0,0,1,129.102,115.856)">
            <path d="M0,-8.044C0,-7.488 0.451,-7.038 1.007,-7.038L31.227,-7.038C31.783,-7.038 32.234,-6.588 32.234,-6.033C32.234,-5.478 31.783,-5.027 31.227,-5.027L1.007,-5.027C0.451,-5.027 0,-4.577 0,-4.023C0,-3.467 0.451,-3.017 1.007,-3.017L31.227,-3.017C31.783,-3.017 32.234,-2.566 32.234,-2.012C32.234,-1.456 31.783,-1.006 31.227,-1.006L1.007,-1.006C0.451,-1.006 0,-0.556 0,-0.001C0,0.555 0.451,1.005 1.007,1.005L33.745,1.005C34.301,1.005 34.752,0.555 34.752,-0.001L34.752,-8.044C34.752,-8.599 34.301,-9.049 33.745,-9.049L1.007,-9.049C0.451,-9.049 0,-8.599 0,-8.044" style="fill:rgb(213,36,36);fill-rule:nonzero;"/>
        </g>
        <g transform="matrix(1,0,0,1,168.502,100.021)">
            <path d="M0,-15.08C1.112,-15.08 2.015,-14.18 2.015,-13.07L2.015,-2.011C2.015,-0.9 1.112,0 0,0C-1.113,0 -2.015,-0.9 -2.015,-2.011L-2.015,-13.07C-2.015,-14.18 -1.113,-15.08 0,-15.08" style="fill:rgb(213,36,36);fill-rule:nonzero;"/>
        </g>
    </g>
</svg>
