<?xml version="1.0" encoding="UTF-8" standalone="no"?>
<!DOCTYPE svg PUBLIC "-//W3C//DTD SVG 1.1//EN" "http://www.w3.org/Graphics/SVG/1.1/DTD/svg11.dtd">
<svg width="100%" height="100%" viewBox="0 0 288 192" version="1.1" xmlns="http://www.w3.org/2000/svg" xmlns:xlink="http://www.w3.org/1999/xlink" xml:space="preserve" xmlns:serif="http://www.serif.com/" style="fill-rule:evenodd;clip-rule:evenodd;stroke-linejoin:round;stroke-miterlimit:2;">
    <g id="Layer-2" serif:id="Layer 2">
        <g transform="matrix(1,0,0,1,181.693,104.294)">
            <path d="M0,-16.588L0,-8.495C0,-7.562 0.37,-6.667 1.03,-6.007C1.657,-5.379 2.508,-5.026 3.395,-5.026L26.125,-5.026C29.363,-5.026 32.154,-9.028 32.154,-11.562C32.154,-15.728 30,-18.096 28.135,-18.096L1.507,-18.096C0.675,-18.096 0,-17.421 0,-16.588M-59.284,-51.776L-60.792,-51.776C-60.236,-51.776 -59.787,-52.225 -59.787,-52.781L-59.787,-53.786C-59.787,-54.619 -59.112,-55.294 -58.279,-55.294L-52.322,-55.294C-50.989,-55.294 -49.711,-54.764 -48.769,-53.822L-46.186,-51.237C-45.244,-50.294 -43.966,-49.765 -42.633,-49.765L52.739,-49.765C53.73,-49.765 54.7,-50.058 55.525,-50.609L59.271,-53.108C59.94,-53.553 60.705,-53.832 61.504,-53.921L72.619,-55.157C73.336,-55.236 74.009,-54.796 74.225,-54.108L76.152,-47.936C76.294,-47.482 76.362,-47.009 76.377,-46.534C76.594,-39.633 79.911,-33.667 84.404,-30.663C85.695,-29.8 85.517,-21.636 84.404,-20.609C81.82,-18.225 70.337,-16.62 70.337,-12.567C70.337,-7.039 83.908,9.424 84.392,37.184C84.406,38.022 83.722,38.706 82.884,38.706L45.693,38.706C44.877,38.706 44.209,38.059 44.187,37.243C44.02,31.074 42.751,7.188 33.11,0.481C32.682,0.183 32.347,2.514 24.499,2.514L8.038,2.514L8.038,15.08C8.038,15.913 7.363,16.589 6.531,16.589L-4.02,16.589L-4.02,18.599L-16.077,18.599L-16.089,16.547L-56.269,16.587C-57.101,16.588 -57.777,15.912 -57.777,15.079L-57.777,-26.642C-57.777,-27.197 -58.227,-27.647 -58.782,-27.647L-59.284,-27.647C-59.839,-27.647 -60.289,-27.197 -60.289,-26.642C-60.289,-26.087 -60.739,-25.636 -61.294,-25.636L-65.313,-25.636C-65.868,-25.636 -66.318,-26.087 -66.318,-26.642L-66.318,-28.652C-66.318,-29.208 -66.768,-29.658 -67.323,-29.658L-75.361,-29.658C-75.916,-29.658 -76.366,-29.208 -76.366,-28.652C-76.366,-28.097 -76.816,-27.647 -77.371,-27.647L-142.684,-27.647C-143.793,-27.647 -144.693,-28.547 -144.693,-29.658L-144.693,-49.765C-144.693,-50.875 -143.793,-51.776 -142.684,-51.776L-77.371,-51.776C-76.816,-51.776 -76.366,-51.325 -76.366,-50.77C-76.366,-50.215 -75.916,-49.765 -75.361,-49.765L-67.323,-49.765C-66.768,-49.765 -66.318,-50.215 -66.318,-50.77L-66.318,-52.781C-66.318,-53.336 -65.868,-53.786 -65.313,-53.786L-61.294,-53.786C-60.739,-53.786 -60.289,-53.336 -60.289,-52.781C-60.289,-52.226 -59.839,-51.776 -59.284,-51.776" style="fill:rgb(213,36,36);fill-rule:nonzero;"/>
        </g>
        <g transform="matrix(0.908061,0.418838,0.418838,-0.908061,195.466,96.1921)">
            <path d="M3.17,-1.371C9.272,1.444 9.996,7.819 6.82,14.705L3.17,13.021C6.793,5.165 3.481,1.624 2.538,-0.002C2.15,-0.672 2.81,-1.537 3.17,-1.371" style="fill:rgb(213,36,36);fill-rule:nonzero;"/>
        </g>
        <g transform="matrix(1,0,0,1,257.557,72.123)">
            <path d="M0,-15.583C4.918,-12.936 4.415,-3.757 6.029,0L0,0L0,-15.583Z" style="fill:rgb(213,36,36);fill-rule:nonzero;"/>
        </g>
        <g transform="matrix(0,1,1,0,261.908,59.2459)">
            <path d="M4.634,-4.635C7.195,-4.635 9.271,-2.56 9.271,0C9.271,2.558 7.195,4.634 4.634,4.634C2.073,4.634 -0.002,2.558 -0.002,0C-0.002,-2.56 2.073,-4.635 4.634,-4.635" style="fill:rgb(213,36,36);fill-rule:nonzero;"/>
        </g>
        <g transform="matrix(1,0,0,1,123.917,106.305)">
            <path d="M0,-17.091L3.167,-17.091L3.166,0L0,0C-0.277,0 -0.502,-0.225 -0.502,-0.503L-0.502,-16.588C-0.502,-16.866 -0.277,-17.091 0,-17.091" style="fill:rgb(213,36,36);fill-rule:nonzero;"/>
        </g>
    </g>
    <g id="Layer-3" serif:id="Layer 3">
        <g transform="matrix(1,0,0,1,125.424,55.0329)">
            <path d="M0,-1.509L0,-0.001C0,0.554 0.45,1.005 1.005,1.005L6.67,1.005C7.056,1.005 7.298,0.588 7.106,0.252L5.96,-1.755C5.692,-2.224 5.192,-2.514 4.652,-2.514L1.005,-2.514C0.45,-2.514 0,-2.064 0,-1.509" style="fill:rgb(12,50,50);fill-rule:nonzero;"/>
        </g>
        <g transform="matrix(1,0,0,1,125.424,66.092)">
            <path d="M0,-5.028L0,-0.001C0,0.277 0.225,0.502 0.502,0.502L78.375,0.502C78.653,0.502 78.878,0.277 78.878,-0.001L78.878,-5.028C78.878,-5.305 78.653,-5.53 78.375,-5.53L0.502,-5.53C0.225,-5.53 0,-5.305 0,-5.028" style="fill:rgb(12,50,50);fill-rule:nonzero;"/>
        </g>
        <g transform="matrix(1,0,0,1,205.454,69.4628)">
            <path d="M0,0.294L-0.858,-0.564C-1.047,-0.753 -1.302,-0.858 -1.568,-0.858L-75.509,-0.858C-75.825,-0.858 -76.123,-0.709 -76.313,-0.456L-76.916,0.348C-77.164,0.679 -76.928,1.152 -76.514,1.152L-0.355,1.152C0.092,1.152 0.316,0.611 0,0.294" style="fill:rgb(12,50,50);fill-rule:nonzero;"/>
        </g>
        <g transform="matrix(1,0,0,1,205.85,70.6143)">
            <path d="M0,-12.566L17.354,-12.566C17.771,-12.566 18.144,-12.309 18.292,-11.919L21.736,-2.875C21.954,-2.303 22.065,-1.696 22.065,-1.085L22.065,-0.502C22.065,-0.224 21.84,0 21.562,0L5.038,0C4.679,0 4.331,-0.128 4.058,-0.362L1.49,-2.564C1.156,-2.851 0.964,-3.269 0.964,-3.709L0.964,-9.171C0.964,-9.742 0.77,-10.295 0.414,-10.741L-0.393,-11.75C-0.655,-12.079 -0.422,-12.566 0,-12.566" style="fill:rgb(12,50,50);fill-rule:nonzero;"/>
        </g>
        <g transform="matrix(1,0,0,1,126.429,102.786)">
            <path d="M0,-10.054L4.019,-10.054C4.574,-10.054 5.024,-9.604 5.024,-9.049L5.024,-1.006C5.024,-0.45 4.574,0 4.019,0L0,0C-0.555,0 -1.005,-0.45 -1.005,-1.006L-1.005,-9.049C-1.005,-9.604 -0.555,-10.054 0,-10.054" style="fill:rgb(12,50,50);fill-rule:nonzero;"/>
        </g>
        <g transform="matrix(1,0,0,1,233.441,137.972)">
            <path d="M0,1.509L0,0.001C0,-0.554 0.45,-1.005 1.005,-1.005L20.648,-1.005C21.55,-1.005 22.382,-0.521 22.829,0.262L23.686,1.762C23.877,2.097 23.636,2.514 23.25,2.514L1.005,2.514C0.45,2.514 0,2.064 0,1.509" style="fill:rgb(12,50,50);fill-rule:nonzero;"/>
        </g>
        <g transform="matrix(1,0,0,1,261.576,72.6253)">
            <path d="M0,67.861C-1.005,67.861 -3.986,63.806 -3.517,63.338C-2.161,61.981 -1.005,61.092 -1.005,58.31C-1.005,53.629 -14.408,14.075 -22.106,14.075C-24.924,14.075 -27.126,17.594 -28.135,17.594C-29.407,17.594 -33.685,5.564 -33.2,5.697C-27.738,7.201 -21.542,12.567 -18.589,12.567C-15.996,12.567 -14.917,9.551 -14.57,9.551C-13.637,9.551 -13.676,12.065 -12.309,12.065C-11.712,12.065 0,9.849 0,6.535C0,4.689 -3.517,2.25 -3.517,1.508C-3.517,1.028 -1.999,0 -1.507,0C-1.004,0 2.01,2.952 2.01,6.535C2.01,13.523 -12.3,8.657 -12.3,19.38C-12.3,24.828 2.01,49.336 2.01,65.348C2.01,66.153 1.306,67.861 0,67.861" style="fill:rgb(12,50,50);fill-rule:nonzero;"/>
        </g>
        <g transform="matrix(1,0,0,1,218.843,131.105)">
            <path d="M0,-47.085C-0.231,-47.739 0.254,-48.425 0.947,-48.425L4.551,-48.425C5.741,-48.425 9.754,-36.361 13.091,-36.361C14.702,-36.361 19.371,-42.393 21.13,-42.393C23.885,-42.393 39.217,-9.538 39.217,1.34L17.11,1.34L0,-47.085Z" style="fill:rgb(12,50,50);fill-rule:nonzero;"/>
        </g>
        <g transform="matrix(1,0,0,1,229.209,82.8837)">
            <path d="M0,56.71C-0.218,57.218 0.442,57.646 0.826,57.249C2.468,55.557 4.585,52.082 4.232,51.068C1.688,43.749 -8.709,13.116 -14.356,-0.205C-14.667,-0.936 -17.965,0.272 -17.371,0.801C-7.319,9.757 -17.124,17.695 -21.143,19.829C-22.03,20.3 -15.777,20.571 -15.462,20.273C-7.677,12.924 -0.304,46.811 0.213,51.068C0.607,54.321 0.354,55.883 0,56.71" style="fill:rgb(12,50,50);fill-rule:nonzero;"/>
        </g>
        <g transform="matrix(1,0,0,1,198.272,76.4462)">
            <path d="M0,-0.101L0,0C0,0.944 0.765,1.709 1.709,1.709L22.407,1.709C23.352,1.709 24.116,0.944 24.116,0L24.116,-0.101C24.116,-1.045 23.352,-1.81 22.407,-1.81L1.709,-1.81C0.765,-1.81 0,-1.045 0,-0.101" style="fill:rgb(12,50,50);fill-rule:nonzero;"/>
        </g>
        <g transform="matrix(1,0,0,1,183.703,100.65)">
            <path d="M0,17.719L-3.983,17.719C-4.65,17.719 -5.289,17.454 -5.76,16.983L-5.796,16.947C-6.267,16.476 -6.905,16.211 -7.572,16.211L-15.575,16.211C-16.13,16.211 -16.58,15.761 -16.58,15.205L-16.58,3.697C-16.58,3.424 -16.361,3.176 -16.09,3.195C-12.464,3.44 -10.729,2.703 -9.344,0.372C-9.173,0.085 -8.804,0 -8.554,0.223C-6.817,1.764 -1.635,3.379 0.282,3.941C0.711,4.066 1.005,4.458 1.005,4.906L1.005,16.713C1.005,17.269 0.555,17.719 0,17.719" style="fill:rgb(12,50,50);fill-rule:nonzero;"/>
        </g>
        <g transform="matrix(0.78102,0.624506,0.624506,-0.78102,242.641,80.9958)">
            <path d="M2.027,2.04C-3.97,2.716 -11.128,-0.755 -11.441,0.396C-11.64,1.127 1.042,11.197 2.027,11.694C3.153,12.263 4.574,12.032 4.853,11.379C6.312,7.877 1.689,7.241 2.027,2.04" style="fill:rgb(12,50,50);fill-rule:nonzero;"/>
        </g>
        <g transform="matrix(1,0,0,1,223.895,74.0556)">
            <path d="M0,5.105C0,5.638 1.075,6.925 1.507,6.613C2.039,6.229 4.48,1.137 4.02,-0.927C3.819,-1.82 0.503,-1.607 0.503,0.078C0.503,0.807 2.026,1.621 2.026,2.562C2.026,3.228 0,4.293 0,5.105" style="fill:rgb(12,50,50);fill-rule:nonzero;"/>
        </g>
        <g transform="matrix(-0.554919,0.831905,0.831905,0.554919,243.451,76.2989)">
            <path d="M6.123,-10.364C6.189,-10.797 6.982,-11.438 7.099,-10.921C7.385,-9.655 6.489,-0.042 6.123,2.319C6.036,2.874 4.152,3.993 4.171,3.433C4.342,-1.352 5.727,-7.766 6.123,-10.364" style="fill:rgb(12,50,50);fill-rule:nonzero;"/>
        </g>
        <g transform="matrix(1,0,0,1,247.509,78.3693)">
            <path d="M0,3.807C0.72,4.372 2.672,3.153 3.517,2.802C6.174,1.698 9.982,2.412 11.053,1.294C11.227,1.112 11.207,0.487 11.053,0.288C10.387,-0.565 3.96,0.782 3.517,1.294C2.658,2.286 0.665,2.54 0,3.305C-0.083,3.399 -0.099,3.73 0,3.807" style="fill:rgb(12,50,50);fill-rule:nonzero;"/>
        </g>
        <g transform="matrix(1,0,0,1,193.249,74.1331)">
            <path d="M0,5.53C0,6.535 -1.508,6.535 -1.508,6.535L-20.097,6.535C-21.566,5.065 -25.121,0.583 -25.121,0.001C-25.121,-1.005 -24.116,-1.005 -24.116,-1.005L-1.508,-1.005C-1.508,-1.005 -0.503,-1.005 -0.503,0.001C-0.503,0.754 -1.508,0.767 -1.508,2.011C-1.508,3.63 0,4.637 0,5.53" style="fill:rgb(12,50,50);fill-rule:nonzero;"/>
        </g>
        <g transform="matrix(1,0,0,1,127.433,83.6839)">
            <path d="M0,-6.534L0,0.001C0,0.834 0.675,1.508 1.507,1.508L19.845,1.508C21.283,0.4 21.214,-1.407 22.209,-3.242C22.642,-4.041 23.494,-4.523 24.401,-4.523L35.951,-4.523C36.451,-4.523 36.94,-4.376 37.353,-4.096C37.859,-3.752 38.394,-3.363 38.851,-3.145C39.043,-3.055 39.254,-3.015 39.466,-3.015L41.428,-3.015C41.796,-3.015 42.046,-3.403 41.882,-3.734C41.272,-4.96 40.314,-6.323 39.62,-7.371C39.341,-7.792 38.871,-8.042 38.367,-8.042L1.507,-8.042C0.675,-8.042 0,-7.367 0,-6.534" style="fill:rgb(12,50,50);fill-rule:nonzero;"/>
        </g>
        <g transform="matrix(1,0,0,1,242.856,51.5374)">
            <path d="M0,3.05L8.898,-0.53C9.689,-0.947 10.668,-0.586 11,0.244L11.41,3.308C11.542,3.638 11.3,3.997 10.944,3.997L0.234,3.997C-0.29,3.997 -0.464,3.294 0,3.05" style="fill:rgb(12,50,50);fill-rule:nonzero;"/>
        </g>
        <g transform="matrix(-0.86125,0.508181,0.508181,0.86125,261.537,66.6498)">
            <path d="M2.675,-9.231C2.73,-9.79 0.773,-11.013 0.788,-10.452C0.88,-6.815 2.215,0.866 2.675,1.645C2.906,2.038 4.613,2.399 4.471,1.966C3.627,-0.609 2.403,-6.498 2.675,-9.231" style="fill:rgb(12,50,50);fill-rule:nonzero;"/>
        </g>
        <g transform="matrix(0,1,1,0,261.908,61.8699)">
            <path d="M2.01,-2.01C3.12,-2.01 4.021,-1.111 4.021,0C4.021,1.109 3.12,2.01 2.01,2.01C0.9,2.01 -0.001,1.109 -0.001,0C-0.001,-1.111 0.9,-2.01 2.01,-2.01" style="fill:rgb(12,50,50);fill-rule:nonzero;"/>
        </g>
        <g transform="matrix(1,0,0,1,129.443,80.5691)">
            <path d="M0,37.8L34.164,37.8C34.997,37.8 35.671,37.124 35.671,36.292L35.671,22.72C35.671,21.887 36.346,21.211 37.178,21.211C37.178,21.211 40.794,21.363 41.198,21.211C45.216,19.703 45.205,3.902 41.198,2.612C40.549,2.404 38.015,2.275 36.844,2.225C36.446,2.208 36.06,2.097 35.714,1.901L34.808,1.387C34.386,1.008 33.849,0.783 33.283,0.749C33.283,0.749 24.016,0 22.609,0.099C22.233,0.126 22.238,1.537 22.609,1.607C23.68,1.809 33.463,2.079 33.463,2.079C33.921,2.099 34.366,2.245 34.748,2.499L35.223,2.817C35.503,3.003 35.671,3.317 35.671,3.654L35.671,4.623C35.671,5.178 35.221,5.629 34.667,5.629L21.223,5.629C20.824,5.629 20.44,5.788 20.158,6.071L19.533,6.695C19.25,6.978 18.867,7.137 18.467,7.137L2.841,7.137C2.288,7.137 1.735,7.091 1.189,7L-0.42,6.732C-0.726,6.68 -1.005,6.917 -1.005,7.227C-1.005,7.461 -0.828,7.657 -0.595,7.68L0.853,7.825C2.65,8.005 4.02,9.519 4.02,11.326L4.02,23.222C4.02,24.055 3.345,24.731 2.512,24.731L0,24.731C-0.833,24.731 -1.507,25.405 -1.507,26.238L-1.507,36.292C-1.507,37.124 -0.833,37.8 0,37.8" style="fill:rgb(12,50,50);fill-rule:nonzero;"/>
        </g>
        <g transform="matrix(1,0,0,1,168.38,120.38)">
            <path d="M0,-1.508L6.531,-1.508C6.947,-1.508 7.284,-1.171 7.284,-0.754C7.284,-0.338 6.947,0 6.531,0L0,0C-0.417,0 -0.754,-0.338 -0.754,-0.754C-0.754,-1.171 -0.417,-1.508 0,-1.508" style="fill:rgb(12,50,50);fill-rule:nonzero;"/>
        </g>
        <g transform="matrix(1,0,0,1,187.55,103.94)">
            <path d="M0,-0.292C2.416,-1.004 15.304,-1.146 19.809,-1.14C19.966,-1.139 20.019,-0.93 19.88,-0.855C18.228,0.034 10.851,0.854 8.913,0.825C7.398,0.854 1.629,0.521 -0.003,-0.006C-0.142,-0.051 -0.14,-0.251 0,-0.292" style="fill:rgb(12,50,50);fill-rule:nonzero;"/>
        </g>
        <g transform="matrix(1,0,0,1,175.664,84.5517)">
            <path d="M0,13.71C-0.106,14.829 3.595,16.216 4.02,15.721C4.511,15.149 2.645,13.15 2.537,12.202C2.328,10.35 2.103,2.402 2.5,0.641C2.741,-0.43 4.714,-0.919 4.02,-1.873C3.559,-2.506 -2.805,-0.971 -1.507,-0.365C1.169,0.885 0.252,11.087 0,13.71" style="fill:rgb(12,50,50);fill-rule:nonzero;"/>
        </g>
        <g transform="matrix(1,0,0,1,125.61,76.491)">
            <path d="M0,-5.243L0.167,-5.576C0.264,-5.771 0.421,-5.929 0.616,-6.026L1.109,-6.273C1.249,-6.343 1.402,-6.379 1.558,-6.379L2.021,-6.379C2.22,-6.379 2.414,-6.437 2.579,-6.548L2.722,-6.642C2.958,-6.801 3.167,-6.998 3.338,-7.226L3.408,-7.319L3.739,-5.876L2.326,-5.876C2.048,-5.876 1.823,-5.651 1.823,-5.373L1.823,-1.352C1.823,-1.075 2.048,-0.849 2.326,-0.849L3.874,-0.849L1.823,2.076L1.823,1.373C1.823,1.215 1.809,1.058 1.779,0.903L1.701,0.49C1.668,0.319 1.604,0.158 1.534,-0.001C1.394,-0.319 1.321,-0.664 1.321,-1.014L1.321,-2.857C1.321,-3.133 1.098,-3.358 0.822,-3.359L0.676,-3.36C0.461,-3.362 0.271,-3.5 0.203,-3.704L-0.055,-4.476C-0.139,-4.729 -0.119,-5.005 0,-5.243" style="fill:rgb(12,50,50);fill-rule:nonzero;"/>
        </g>
        <g transform="matrix(-0.0379219,0.999281,0.999281,0.0379219,238.779,48.2718)">
            <path d="M10.122,-10.913C11.395,-2.645 11.488,5.382 11.164,12.99C11.141,13.543 10.677,13.975 10.122,13.954C9.598,13.934 9.188,13.502 9.197,12.978C9.436,0.196 9.468,-15.161 10.122,-10.913" style="fill:rgb(12,50,50);fill-rule:nonzero;"/>
        </g>
        <g transform="matrix(1,0,0,1,40.0146,74.6363)">
            <path d="M0,-20.107L9.701,-20.107C10.366,-20.107 10.843,-19.474 10.666,-18.832C9.172,-13.409 9.172,-6.698 10.666,-1.275C10.843,-0.633 10.366,0 9.701,0L0,0C-0.555,0 -1.005,-0.45 -1.005,-1.005L-1.005,-19.102C-1.005,-19.657 -0.555,-20.107 0,-20.107" style="fill:rgb(12,50,50);fill-rule:nonzero;"/>
        </g>
        <g transform="matrix(1,0,0,1,52.855,73.9329)">
            <path d="M0,-18.701C-1.713,-12.994 -1.713,-5.705 0,0.001C0.126,0.421 0.521,0.703 0.959,0.703L49.111,0.703C49.776,0.703 50.252,0.07 50.076,-0.572C48.582,-5.994 48.582,-12.706 50.076,-18.129C50.252,-18.771 49.776,-19.404 49.111,-19.404L0.959,-19.404C0.521,-19.404 0.126,-19.121 0,-18.701" style="fill:rgb(12,50,50);fill-rule:nonzero;"/>
        </g>
        <g transform="matrix(1,0,0,1,105.179,72.625)">
            <path d="M0,-16.085L9.192,-16.085C9.747,-16.085 10.197,-15.635 10.197,-15.08L10.197,-1.005C10.197,-0.449 9.747,0 9.192,0L0,0C-0.493,0 -0.917,-0.358 -0.993,-0.846C-1.815,-6.14 -1.815,-9.944 -0.993,-15.239C-0.917,-15.727 -0.493,-16.085 0,-16.085" style="fill:rgb(12,50,50);fill-rule:nonzero;"/>
        </g>
        <g transform="matrix(1,0,0,1,118.39,74.6363)">
            <path d="M0,-20.107C0.555,-20.107 1.005,-19.657 1.005,-19.102L1.005,-1.005C1.005,-0.45 0.555,0 0,0C-0.555,0 -1.005,-0.45 -1.005,-1.005L-1.005,-19.102C-1.005,-19.657 -0.555,-20.107 0,-20.107" style="fill:rgb(12,50,50);fill-rule:nonzero;"/>
        </g>
    </g>
    <g id="Layer-4" serif:id="Layer 4">
        <g transform="matrix(0,1,1,0,154.061,86.687)">
            <path d="M9.564,-9.565C14.849,-9.565 19.134,-5.283 19.134,-0.001C19.134,5.282 14.849,9.564 9.564,9.564C4.279,9.564 -0.005,5.282 -0.005,-0.001C-0.005,-5.283 4.279,-9.565 9.564,-9.565" style="fill:rgb(213,36,36);fill-rule:nonzero;"/>
        </g>
        <g transform="matrix(0,-1,-1,0,154.061,92.4835)">
            <path d="M-3.768,-3.769C-5.85,-3.769 -7.539,-2.082 -7.539,0.001C-7.539,2.081 -5.85,3.768 -3.768,3.768C-1.686,3.768 0.002,2.081 0.002,0.001C0.002,-2.082 -1.686,-3.769 -3.768,-3.769" style="fill:rgb(12,50,50);fill-rule:nonzero;"/>
        </g>
        <g transform="matrix(1,0,0,1,148.332,95.5471)">
            <path d="M0,1.409L-1.159,1.409C-1.547,1.409 -1.864,1.092 -1.864,0.704C-1.864,0.317 -1.547,0 -1.159,0L0,0C0.388,0 0.705,0.317 0.705,0.704C0.705,1.092 0.388,1.409 0,1.409" style="fill:rgb(12,50,50);fill-rule:nonzero;"/>
        </g>
        <g transform="matrix(1,0,0,1,160.949,95.5471)">
            <path d="M0,1.409L-1.159,1.409C-1.547,1.409 -1.864,1.092 -1.864,0.704C-1.864,0.317 -1.547,0 -1.159,0L0,0C0.388,0 0.704,0.317 0.704,0.704C0.704,1.092 0.388,1.409 0,1.409" style="fill:rgb(12,50,50);fill-rule:nonzero;"/>
        </g>
        <g transform="matrix(1,0,0,1,153.356,101.984)">
            <path d="M0,1.16L0,-0.001C0,-0.389 0.317,-0.705 0.704,-0.705C1.092,-0.705 1.409,-0.389 1.409,-0.001L1.409,1.16C1.409,1.548 1.092,1.865 0.704,1.865C0.317,1.865 0,1.548 0,1.16" style="fill:rgb(12,50,50);fill-rule:nonzero;"/>
        </g>
        <g transform="matrix(1,0,0,1,153.356,89.3585)">
            <path d="M0,1.162L0,0C0,-0.387 0.317,-0.704 0.704,-0.704C1.092,-0.704 1.409,-0.387 1.409,0L1.409,1.162C1.409,1.549 1.092,1.866 0.704,1.866C0.317,1.866 0,1.549 0,1.162" style="fill:rgb(12,50,50);fill-rule:nonzero;"/>
        </g>
        <g transform="matrix(1,0,0,1,129.443,115.856)">
            <path d="M0,-8.044C0,-7.488 0.45,-7.038 1.005,-7.038L31.149,-7.038C31.705,-7.038 32.154,-6.588 32.154,-6.033C32.154,-5.478 31.705,-5.027 31.149,-5.027L1.005,-5.027C0.45,-5.027 0,-4.577 0,-4.023C0,-3.467 0.45,-3.017 1.005,-3.017L31.149,-3.017C31.705,-3.017 32.154,-2.566 32.154,-2.012C32.154,-1.456 31.705,-1.006 31.149,-1.006L1.005,-1.006C0.45,-1.006 0,-0.556 0,-0.001C0,0.555 0.45,1.005 1.005,1.005L33.662,1.005C34.216,1.005 34.667,0.555 34.667,-0.001L34.667,-8.044C34.667,-8.599 34.216,-9.049 33.662,-9.049L1.005,-9.049C0.45,-9.049 0,-8.599 0,-8.044" style="fill:rgb(213,36,36);fill-rule:nonzero;"/>
        </g>
        <g transform="matrix(1,0,0,1,168.745,100.021)">
            <path d="M0,-15.08C1.109,-15.08 2.01,-14.18 2.01,-13.07L2.01,-2.011C2.01,-0.9 1.109,0 0,0C-1.11,0 -2.01,-0.9 -2.01,-2.011L-2.01,-13.07C-2.01,-14.18 -1.11,-15.08 0,-15.08" style="fill:rgb(213,36,36);fill-rule:nonzero;"/>
        </g>
    </g>
</svg>
