<?xml version="1.0" encoding="UTF-8" standalone="no"?>
<!DOCTYPE svg PUBLIC "-//W3C//DTD SVG 1.1//EN" "http://www.w3.org/Graphics/SVG/1.1/DTD/svg11.dtd">
<svg width="100%" height="100%" viewBox="0 0 400 192" version="1.1" xmlns="http://www.w3.org/2000/svg" xmlns:xlink="http://www.w3.org/1999/xlink" xml:space="preserve" xmlns:serif="http://www.serif.com/" style="fill-rule:evenodd;clip-rule:evenodd;stroke-linejoin:round;stroke-miterlimit:2;">
    <g id="Layer-6" serif:id="Layer 6">
        <g transform="matrix(1,0,0,1,81.8486,76.8228)">
            <path d="M0,-14.814L-18.524,-14.814C-21.565,-14.814 -24.031,-12.35 -24.031,-9.31L-24.031,-0.293L0,0L0,-4.806L2.002,-6.807L0,-14.814Z" style="fill:rgb(213,36,36);fill-rule:nonzero;"/>
        </g>
        <g transform="matrix(1,0,0,1,81.8486,79.1957)">
            <path d="M0,-15.185L-18.657,-15.185C-19.533,-15.185 -20.374,-14.837 -20.994,-14.218L-21.061,-14.151C-21.68,-13.532 -22.028,-12.691 -22.028,-11.815L-22.028,0L-2.002,-0.002L-2.002,-9.18L0,-9.18L0,-15.185Z" style="fill:rgb(12,50,50);fill-rule:nonzero;"/>
        </g>
        <g transform="matrix(1,0,0,1,59.8203,76.9231)">
            <path d="M0,-5.907L-7.643,-5.907C-8.519,-5.907 -9.359,-5.559 -9.979,-4.94L-10.046,-4.872C-10.666,-4.253 -11.014,-3.413 -11.014,-2.537L-11.014,0L0,0L0,-5.907Z" style="fill:rgb(213,36,36);fill-rule:nonzero;"/>
        </g>
        <g transform="matrix(1,0,0,1,57.8179,77.7631)">
            <path d="M0,-4.745L0,0L-7.009,0L-7.009,-2.744C-7.009,-3.849 -6.112,-4.745 -5.006,-4.745L0,-4.745Z" style="fill:rgb(12,50,50);fill-rule:nonzero;"/>
        </g>
        <g transform="matrix(1,0,0,1,38.293,106.045)">
            <path d="M0,-34.028L-0.901,-35.229C-1.28,-35.733 -1.873,-36.029 -2.503,-36.029L-28.537,-36.029C-28.537,-36.029 -31.04,-36.029 -32.542,-32.027C-33.543,-25.021 -33.543,-8.507 -32.542,-2.002C-31.04,2.001 -28.537,2.001 -28.537,2.001L-2.711,2.001C-2.052,2.001 -1.434,1.677 -1.061,1.133L-0.146,-0.197C0.63,-1.327 1.913,-2.002 3.284,-2.002L339.937,-2.002C342.94,-2.002 340.937,0 341.939,1.001C343.941,3.002 346.945,3.002 348.948,9.007C349.949,10.008 352.353,10.008 352.953,9.007C357.958,-2.002 357.958,-32.027 352.953,-43.035C352.353,-44.036 349.949,-44.036 348.948,-43.035C346.945,-37.03 343.941,-37.03 341.939,-35.029C340.937,-34.028 342.94,-32.027 339.937,-32.027L4.005,-32.027C2.429,-32.027 0.945,-32.768 0,-34.028" style="fill:rgb(213,36,36);fill-rule:nonzero;"/>
        </g>
        <g transform="matrix(-0.995697,0.0926634,0.0926634,0.995697,396.049,107.59)">
            <path d="M6.285,-38.322C4.106,-40.13 4.657,-45.006 1.833,-42.933C-1.188,-31.595 1.24,-5.689 6.285,4.899C9.443,6.414 8.001,1.723 9.809,-0.455C6.076,-8.149 4.035,-30.072 6.285,-38.322" style="fill:rgb(12,50,50);fill-rule:nonzero;"/>
        </g>
        <g transform="matrix(-0.996126,0.0879382,0.0879382,0.996126,389.639,104.718)">
            <path d="M4.588,-32.228C4.588,-32.228 3.59,-32.14 1.42,-33.958C-1.045,-27.712 1.068,-3.785 4.588,1.932C6.406,-0.238 7.405,-0.326 7.405,-0.326C4.881,-6.132 3.121,-26.07 4.588,-32.228" style="fill:rgb(12,50,50);fill-rule:nonzero;"/>
        </g>
        <g transform="matrix(1,0,0,1,370.219,102.041)">
            <path d="M0,-26.021L8.011,-26.021C10.014,-20.016 10.014,-6.005 8.011,0L0,0C2.003,-6.005 2.003,-20.016 0,-26.021" style="fill:rgb(12,50,50);fill-rule:nonzero;"/>
        </g>
        <g transform="matrix(1,0,0,1,354.198,102.041)">
            <path d="M0,-26.021L14.019,-26.021C16.021,-20.016 16.021,-6.005 14.019,0L0,0C2.003,-6.005 2.003,-20.016 0,-26.021" style="fill:rgb(12,50,50);fill-rule:nonzero;"/>
        </g>
        <g transform="matrix(1,0,0,1,300.129,102.041)">
            <path d="M0,-26.021L52.067,-26.021C54.069,-20.016 54.069,-6.005 52.067,0L0,0C2.003,-6.005 2.003,-20.016 0,-26.021" style="fill:rgb(12,50,50);fill-rule:nonzero;"/>
        </g>
        <g transform="matrix(0,1,1,0,243.05,18.941)">
            <path d="M57.08,-83.101L83.101,-83.101L83.101,55.077C77.096,57.079 63.085,57.079 57.08,55.077L57.08,-83.101Z" style="fill:rgb(12,50,50);fill-rule:nonzero;"/>
        </g>
        <g transform="matrix(1,0,0,1,151.939,102.041)">
            <path d="M0,-26.021L6.007,-26.021L6.007,0L0,0" style="fill:rgb(12,50,50);fill-rule:nonzero;"/>
        </g>
        <g transform="matrix(1,0,0,1,0,-13.937)">
            <rect x="143.929" y="89.958" width="6.007" height="26.021" style="fill:rgb(12,50,50);"/>
        </g>
        <g transform="matrix(1,0,0,1,0,-13.937)">
            <rect x="84.853" y="89.958" width="57.073" height="26.021" style="fill:rgb(12,50,50);"/>
        </g>
        <g transform="matrix(0,-1,-1,0,120.399,87.5277)">
            <path d="M-3.505,-3.504C-4.61,-3.504 -5.506,-1.935 -5.506,0C-5.506,1.936 -4.61,3.505 -3.505,3.505C-2.4,3.505 -1.503,1.936 -1.503,0C-1.503,-1.935 -2.4,-3.504 -3.505,-3.504" style="fill:rgb(213,36,36);fill-rule:nonzero;"/>
        </g>
        <g transform="matrix(0,-1,-1,0,108.383,86.5262)">
            <path d="M-4.507,-4.505C-5.612,-4.505 -6.508,-2.487 -6.508,0.001C-6.508,2.489 -5.612,4.507 -4.507,4.507C-3.402,4.507 -2.505,2.489 -2.505,0.001C-2.505,-2.487 -3.402,-4.505 -4.507,-4.505" style="fill:rgb(213,36,36);fill-rule:nonzero;"/>
        </g>
        <g transform="matrix(0,-1,-1,0,95.3666,88.5292)">
            <path d="M-2.504,-2.503C-3.609,-2.503 -4.505,-1.382 -4.505,0.001C-4.505,1.383 -3.609,2.504 -2.504,2.504C-1.399,2.504 -0.502,1.383 -0.502,0.001C-0.502,-1.382 -1.399,-2.503 -2.504,-2.503" style="fill:rgb(213,36,36);fill-rule:nonzero;"/>
        </g>
        <g transform="matrix(0,-1,-1,0,115.391,77.5194)">
            <path d="M-5.507,-5.507C-6.611,-5.507 -7.509,-3.041 -7.509,-0C-7.509,3.04 -6.611,5.507 -5.507,5.507C-4.402,5.507 -3.506,3.04 -3.506,-0C-3.506,-3.041 -4.402,-5.507 -5.507,-5.507" style="fill:rgb(213,36,36);fill-rule:nonzero;"/>
        </g>
        <g transform="matrix(0,-1,-1,0,102.875,81.0239)">
            <path d="M-2.002,-2.003C-3.107,-2.003 -4.004,-1.107 -4.004,-0.001C-4.004,1.106 -3.107,2.002 -2.002,2.002C-0.897,2.002 -0.001,1.106 -0.001,-0.001C-0.001,-1.107 -0.897,-2.003 -2.002,-2.003" style="fill:rgb(213,36,36);fill-rule:nonzero;"/>
        </g>
        <g transform="matrix(0,-1,-1,0,94.8652,81.0239)">
            <path d="M-2.002,-2.003C-3.107,-2.003 -4.004,-1.107 -4.004,0C-4.004,1.106 -3.107,2.002 -2.002,2.002C-0.897,2.002 -0.001,1.106 -0.001,0C-0.001,-1.107 -0.897,-2.003 -2.002,-2.003" style="fill:rgb(213,36,36);fill-rule:nonzero;"/>
        </g>
        <g transform="matrix(1,0,0,1,0,-13.937)">
            <rect x="79.846" y="89.958" width="3.004" height="26.021" style="fill:rgb(12,50,50);"/>
        </g>
        <g transform="matrix(1,0,0,1,50.8091,102.041)">
            <path d="M0,-26.021L27.035,-26.021L27.035,0L0,0C-2.003,-6.005 -2.003,-20.016 0,-26.021" style="fill:rgb(12,50,50);fill-rule:nonzero;"/>
        </g>
        <g transform="matrix(1,0,0,1,40.7959,102.041)">
            <path d="M0,-26.021L8.01,-26.021C6.008,-20.016 6.008,-6.005 8.01,0L0,0C-2.002,-6.005 -2.002,-20.016 0,-26.021" style="fill:rgb(12,50,50);fill-rule:nonzero;"/>
        </g>
        <g transform="matrix(1,0,0,1,14.7627,106.045)">
            <path d="M0,-34.028L21.027,-34.028C19.525,-25.021 19.525,-8.507 21.027,0L0,0C-1.502,-8.507 -1.502,-25.021 0,-34.028" style="fill:rgb(12,50,50);fill-rule:nonzero;"/>
        </g>
        <g transform="matrix(1,0,0,1,9.2554,106.045)">
            <path d="M0,-34.028L3.504,-34.028C1.902,-25.021 1.902,-8.507 3.504,0L0,0C-1.502,-8.507 -1.502,-25.021 0,-34.028" style="fill:rgb(12,50,50);fill-rule:nonzero;"/>
        </g>
        <g transform="matrix(1,0,0,1,155.274,118.055)">
            <path d="M0,-8.476L-21.359,-8.476L-21.359,-2C-21.359,-0.896 -20.463,0 -19.359,0L0,0L0,-8.476Z" style="fill:rgb(213,36,36);fill-rule:nonzero;"/>
        </g>
        <g transform="matrix(1,0,0,1,156.561,117.054)">
            <path d="M0,-10.208L-21.645,-10.208L-21.645,-1C-21.645,-0.448 -21.197,0 -20.645,0L0,0L0,-10.208Z" style="fill:rgb(12,50,50);fill-rule:nonzero;"/>
        </g>
        <g transform="matrix(1,0,0,1,174.968,116.053)">
            <path d="M0,-17.014L2.003,-13.011L0,0L-12.015,-1.001L-109.14,-1.001L-109.14,-13.011L-105.135,-17.014L0,-17.014Z" style="fill:rgb(213,36,36);fill-rule:nonzero;"/>
        </g>
        <g transform="matrix(1,0,0,1,131.913,114.051)">
            <path d="M0,-13.01L0,-1L31.04,-1L41.053,0L43.055,-11.009L41.053,-13.01L0,-13.01Z" style="fill:rgb(12,50,50);fill-rule:nonzero;"/>
        </g>
        <g transform="matrix(0,-1,-1,0,166.957,106.043)">
            <path d="M-3.004,-3.005C-4.662,-3.005 -6.007,-1.66 -6.007,-0.001C-6.007,1.658 -4.662,3.004 -3.004,3.004C-1.345,3.004 -0.002,1.658 -0.002,-0.001C-0.002,-1.66 -1.345,-3.005 -3.004,-3.005" style="fill:rgb(213,36,36);fill-rule:nonzero;"/>
        </g>
        <g transform="matrix(0,-1,-1,0,166.958,107.502)">
            <path d="M-1.545,-1.545C-2.399,-1.545 -3.09,-0.853 -3.09,-0C-3.09,0.852 -2.399,1.545 -1.545,1.545C-0.691,1.545 -0,0.852 -0,-0C-0,-0.853 -0.691,-1.545 -1.545,-1.545" style="fill:rgb(12,50,50);fill-rule:nonzero;"/>
        </g>
        <g transform="matrix(1,0,0,1,129.911,113.051)">
            <path d="M0,-12.01L0,0L-62.08,0L-62.08,-10.009L-60.077,-12.01L0,-12.01Z" style="fill:rgb(12,50,50);fill-rule:nonzero;"/>
        </g>
        <g transform="matrix(-1,0,0,1,178.717,43.107)">
            <rect x="51.81" y="58.934" width="75.097" height="31.025" style="fill:rgb(213,36,36);"/>
        </g>
        <g transform="matrix(1,0,0,1,0,43.108)">
            <rect x="53.813" y="60.935" width="71.092" height="27.022" style="fill:rgb(12,50,50);"/>
        </g>
        <g transform="matrix(-1,0,0,1,174.712,45.108)">
            <rect x="71.836" y="62.937" width="31.04" height="21.018" style="fill:rgb(213,36,36);"/>
        </g>
        <g transform="matrix(-1,0,0,1,174.711,45.11)">
            <rect x="73.838" y="64.938" width="27.035" height="17.014" style="fill:rgb(12,50,50);"/>
        </g>
        <g transform="matrix(0,-1,-1,0,77.8432,112.049)">
            <path d="M-2.002,-2.003C-3.107,-2.003 -4.004,-1.107 -4.004,-0.001C-4.004,1.105 -3.107,2.002 -2.002,2.002C-0.897,2.002 -0.001,1.105 -0.001,-0.001C-0.001,-1.107 -0.897,-2.003 -2.002,-2.003" style="fill:rgb(213,36,36);fill-rule:nonzero;"/>
        </g>
        <g transform="matrix(0,-1,-1,0,87.3554,112.049)">
            <path d="M-2.002,-2.003C-3.107,-2.003 -4.004,-1.107 -4.004,-0.001C-4.004,1.105 -3.107,2.002 -2.002,2.002C-0.897,2.002 -0.001,1.105 -0.001,-0.001C-0.001,-1.107 -0.897,-2.003 -2.002,-2.003" style="fill:rgb(213,36,36);fill-rule:nonzero;"/>
        </g>
        <g transform="matrix(0,-1,-1,0,96.8676,112.049)">
            <path d="M-2.002,-2.003C-3.107,-2.003 -4.004,-1.107 -4.004,-0.001C-4.004,1.105 -3.107,2.002 -2.002,2.002C-0.897,2.002 -0.001,1.105 -0.001,-0.001C-0.001,-1.107 -0.897,-2.003 -2.002,-2.003" style="fill:rgb(213,36,36);fill-rule:nonzero;"/>
        </g>
        <g transform="matrix(0,-1,-1,0,77.8437,121.056)">
            <path d="M-2.003,-2.003C-3.108,-2.003 -4.005,-1.107 -4.005,-0.001C-4.005,1.106 -3.108,2.003 -2.003,2.003C-0.898,2.003 -0.001,1.106 -0.001,-0.001C-0.001,-1.107 -0.898,-2.003 -2.003,-2.003" style="fill:rgb(213,36,36);fill-rule:nonzero;"/>
        </g>
        <g transform="matrix(0,-1,-1,0,96.8681,121.056)">
            <path d="M-2.003,-2.003C-3.108,-2.003 -4.005,-1.107 -4.005,-0.001C-4.005,1.106 -3.108,2.003 -2.003,2.003C-0.898,2.003 -0.001,1.106 -0.001,-0.001C-0.001,-1.107 -0.898,-2.003 -2.003,-2.003" style="fill:rgb(213,36,36);fill-rule:nonzero;"/>
        </g>
        <g transform="matrix(0,-1,-1,0,87.3559,121.056)">
            <path d="M-2.003,-2.003C-3.108,-2.003 -4.005,-1.107 -4.005,-0.001C-4.005,1.106 -3.108,2.003 -2.003,2.003C-0.898,2.003 -0.001,1.106 -0.001,-0.001C-0.001,-1.107 -0.898,-2.003 -2.003,-2.003" style="fill:rgb(213,36,36);fill-rule:nonzero;"/>
        </g>
        <g transform="matrix(1,0,0,1,0,58.12)">
            <rect x="53.813" y="60.935" width="16.021" height="12.01" style="fill:rgb(213,36,36);"/>
        </g>
        <g transform="matrix(-1,0,0,1,121.644,60.123)">
            <rect x="53.813" y="60.934" width="14.018" height="10.009" style="fill:rgb(12,50,50);"/>
        </g>
        <g transform="matrix(-1,0,0,1,121.643,60.12)">
            <rect x="55.815" y="62.437" width="10.013" height="7.006" style="fill:rgb(213,36,36);"/>
        </g>
        <g transform="matrix(-1,0,0,1,121.644,60.121)">
            <rect x="57.818" y="64.438" width="6.008" height="3.003" style="fill:rgb(12,50,50);"/>
        </g>
        <g transform="matrix(1,0,0,1,108.883,139.071)">
            <path d="M0,-36.029L18.023,-36.029C18.023,-9.007 23.03,-3.002 21.027,-1.001C16.021,0 2.003,0 -3.004,-1.001C-5.006,-3.002 0,-9.007 0,-36.029" style="fill:rgb(213,36,36);fill-rule:nonzero;"/>
        </g>
        <g transform="matrix(-0.208053,0.978118,0.978118,0.208053,121.811,125.278)">
            <path d="M9.412,-11.625C13.662,-12.358 13.328,-10.792 13.328,-10.792L9.412,7.621C9.412,7.621 9.079,9.188 5.496,6.788L9.412,-11.625Z" style="fill:rgb(12,50,50);fill-rule:nonzero;"/>
        </g>
        <g transform="matrix(1,0,0,1,110.886,130.065)">
            <path d="M0,-15.013L14.018,-15.013C14.018,-15.013 14.98,-3.003 16.021,0L-2.003,0C-0.965,-3.003 0,-15.013 0,-15.013" style="fill:rgb(12,50,50);fill-rule:nonzero;"/>
        </g>
        <g transform="matrix(1,0,0,1,0,30.098)">
            <rect x="110.886" y="78.949" width="14.018" height="4.004" style="fill:rgb(12,50,50);"/>
        </g>
        <g transform="matrix(1,0,0,1,0,20.09)">
            <rect x="110.886" y="84.954" width="14.018" height="2.002" style="fill:rgb(12,50,50);"/>
        </g>
        <g transform="matrix(-0.570313,0.821427,0.821427,0.570313,172.021,112.085)">
            <path d="M12.916,-16.676C9.835,-15.438 3.736,-5.38 0.588,2.665C4.212,4.726 6.928,5.774 12.916,3.916C17.426,-2.58 20.392,-7.456 19.683,-11.035C18.897,-14.08 15.864,-15.877 12.916,-16.676" style="fill:rgb(213,36,36);fill-rule:nonzero;"/>
        </g>
        <g transform="matrix(-0.531262,0.847208,0.847208,0.531262,170.17,112.629)">
            <path d="M10.689,-14.111C12.123,-14.536 14.791,-12.967 15.899,-11.173C16.892,-7.034 15.542,-4.181 10.689,3.031C7.961,4.581 4.714,5.145 1.261,3.237C4.084,-4.92 7.439,-11.168 10.689,-14.111" style="fill:rgb(12,50,50);fill-rule:nonzero;"/>
        </g>
        <g transform="matrix(1,0,0,1,155.547,141.954)">
            <path d="M0,-28.872C0,-28.872 -1.637,-26.096 -1.637,-10.826C-4.612,-10.976 -6.86,-9.637 -6.795,-7.059C-6.299,-3.341 1.215,-7.535 6.944,-1.259C8.729,0 11.805,-2.894 11.209,-5.373C10.565,-7.803 9.424,-8.596 7.391,-9.736C7.391,-24.162 6.498,-28.872 6.498,-28.872L0,-28.872Z" style="fill:rgb(213,36,36);fill-rule:nonzero;"/>
        </g>
        <g transform="matrix(1,0,0,1,156.269,140.569)">
            <path d="M0,-26.281L4.967,-26.3C4.967,-26.3 5.606,-18.896 5.606,-8.292C5.604,-7.29 9.248,-6.263 9.468,-3.648C9.613,-2.485 7.78,0.019 6.77,-1.051C0.298,-6.703 -5.802,-3.79 -6.167,-5.823C-6.332,-7.183 -4.632,-8.805 -1.231,-8.088C-1.231,-20.553 0,-26.281 0,-26.281" style="fill:rgb(12,50,50);fill-rule:nonzero;"/>
        </g>
        <g transform="matrix(1,0,0,1,144.93,70.0159)">
            <path d="M0,-12.01L9.012,-12.01C10.013,-14.012 9.012,-14.012 10.614,-14.612C11.615,-12.01 11.615,-0 10.614,2.602C9.012,2.001 10.013,2.001 9.012,-0L0,-0L0,-12.01Z" style="fill:rgb(213,36,36);fill-rule:nonzero;"/>
        </g>
        <g transform="matrix(-0.970128,-0.242593,-0.242593,0.970128,150.603,67.6022)">
            <path d="M-1.396,-8.178C-1.493,-6.14 -2.465,-2.255 -3.338,-0.411L-1.396,0.075C-0.522,-1.769 0.45,-5.654 0.546,-7.692L-1.396,-8.178Z" style="fill:rgb(12,50,50);fill-rule:nonzero;"/>
        </g>
        <g transform="matrix(-0.9701,-0.242707,-0.242707,0.9701,145.596,67.602)">
            <path d="M-1.396,-8.178C-1.492,-6.139 -2.464,-2.255 -3.339,-0.411L-1.396,0.075C-0.522,-1.769 0.45,-5.654 0.548,-7.692L-1.396,-8.178Z" style="fill:rgb(12,50,50);fill-rule:nonzero;"/>
        </g>
        <g transform="matrix(1,0,0,1,82.8501,72.0175)">
            <path d="M0,-19.016L63.081,-19.016L63.081,0L0,0C-2.002,-5.004 -2.002,-14.012 0,-19.016" style="fill:rgb(213,36,36);fill-rule:nonzero;"/>
        </g>
        <g transform="matrix(1,0,0,1,0,-66.98)">
            <rect x="88.858" y="121.984" width="55.071" height="15.012" style="fill:rgb(12,50,50);"/>
        </g>
        <g transform="matrix(-0.980561,0.196217,0.196217,0.980561,87.3074,69.673)">
            <path d="M0.511,-15.063C2.081,-12.315 3.849,-3.482 3.456,-0.342L0.511,0.247L-2.435,-14.473L0.511,-15.063Z" style="fill:rgb(12,50,50);fill-rule:nonzero;"/>
        </g>
        <g transform="matrix(0.99999,0.00442284,0.00442284,-0.99999,127.935,54.7743)">
            <rect x="-0.027" y="-12.177" width="14.072" height="12.146" style="fill:rgb(213,36,36);"/>
        </g>
        <g transform="matrix(1,0,0,1,0,-69.984)">
            <rect x="129.911" y="126.989" width="10.013" height="8.006" style="fill:rgb(12,50,50);"/>
        </g>
        <g transform="matrix(0,-1,-1,0,134.916,50.9979)">
            <path d="M-4.506,-4.507C-2.019,-4.507 -0.003,-2.489 -0.003,-0C-0.003,2.489 -2.019,4.506 -4.506,4.506C-6.993,4.506 -9.009,2.489 -9.009,-0C-9.009,-2.489 -6.993,-4.507 -4.506,-4.507" style="fill:rgb(213,36,36);fill-rule:nonzero;"/>
        </g>
        <g transform="matrix(0,-1,-1,0,134.916,51.9994)">
            <path d="M-3.504,-3.505C-5.439,-3.505 -7.007,-1.936 -7.007,-0.001C-7.007,1.935 -5.439,3.504 -3.504,3.504C-1.569,3.504 -0.002,1.935 -0.002,-0.001C-0.002,-1.936 -1.569,-3.505 -3.504,-3.505" style="fill:rgb(12,50,50);fill-rule:nonzero;"/>
        </g>
        <g transform="matrix(1,0,0,1,67.3301,103.042)">
            <path d="M0,-37.03C2.753,-37.03 5.507,-31.776 5.507,-29.024L5.507,-8.007C5.507,-5.254 2.753,0 0,0C-2.753,0 -5.507,-5.254 -5.507,-8.007L-5.507,-29.024C-5.507,-31.776 -2.753,-37.03 0,-37.03" style="fill:rgb(213,36,36);fill-rule:nonzero;"/>
        </g>
        <g transform="matrix(1,0,0,1,67.3301,101.041)">
            <path d="M0,-33.027C1.659,-33.027 3.504,-28.68 3.504,-27.022L3.504,-6.005C3.504,-4.346 1.659,0 0,0C-1.659,0 -3.504,-4.346 -3.504,-6.005L-3.504,-27.022C-3.504,-28.68 -1.659,-33.027 0,-33.027" style="fill:rgb(12,50,50);fill-rule:nonzero;"/>
        </g>
    </g>
</svg>
